<svg width="24" height="24" viewBox="0 0 24 24" fill="none" xmlns="http://www.w3.org/2000/svg">
<path fill-rule="evenodd" clip-rule="evenodd" d="M3.09467 3.09467C4.42914 1.7602 6.42603 1.25 9 1.25H15C17.574 1.25 19.5709 1.7602 20.9053 3.09467C22.2398 4.42914 22.75 6.42603 22.75 9V15C22.75 17.574 22.2398 19.5709 20.9053 20.9053C19.5709 22.2398 17.574 22.75 15 22.75H9C6.42603 22.75 4.42914 22.2398 3.09467 20.9053C1.7602 19.5709 1.25 17.574 1.25 15V9C1.25 6.42603 1.7602 4.42914 3.09467 3.09467ZM4.15533 4.15533C3.2398 5.07086 2.75 6.57397 2.75 9V15C2.75 17.426 3.2398 18.9291 4.15533 19.8447C5.07086 20.7602 6.57397 21.25 9 21.25H15C17.426 21.25 18.9291 20.7602 19.8447 19.8447C20.7602 18.9291 21.25 17.426 21.25 15V9C21.25 6.57397 20.7602 5.07086 19.8447 4.15533C18.9291 3.2398 17.426 2.75 15 2.75H9C6.57397 2.75 5.07086 3.2398 4.15533 4.15533Z" fill="#292D32"/>
<path fill-rule="evenodd" clip-rule="evenodd" d="M17.1296 8.91704C17.457 9.17081 17.5166 9.64192 17.2629 9.96929L14.9485 12.955C14.3536 13.7073 13.2567 13.8445 12.4915 13.2533L12.4863 13.2492L10.6597 11.8119C10.5469 11.7262 10.3895 11.7475 10.3038 11.8581C10.3038 11.8582 10.3039 11.8579 10.3038 11.8581L7.9243 14.9475C7.67154 15.2756 7.20062 15.3367 6.87246 15.084C6.5443 14.8312 6.48318 14.3603 6.73593 14.0321L9.11665 10.9412C9.71056 10.1726 10.8118 10.0337 11.5787 10.6263L11.5839 10.6304L13.4105 12.0677C13.5245 12.1543 13.6852 12.132 13.7703 12.0265L16.0774 9.05031C16.3311 8.72294 16.8022 8.66327 17.1296 8.91704Z" fill="#292D32"/>
</svg>
