<svg width="24" height="24" viewBox="0 0 24 24" fill="none" xmlns="http://www.w3.org/2000/svg">
<path fill-rule="evenodd" clip-rule="evenodd" d="M1.5 12C1.5 6.22386 6.22386 1.5 12 1.5C17.7761 1.5 22.5 6.22386 22.5 12C22.5 17.7761 17.7761 22.5 12 22.5C6.22386 22.5 1.5 17.7761 1.5 12ZM12 2.5C6.77614 2.5 2.5 6.77614 2.5 12C2.5 17.2239 6.77614 21.5 12 21.5C17.2239 21.5 21.5 17.2239 21.5 12C21.5 6.77614 17.2239 2.5 12 2.5Z" fill="#292D32" stroke="#292D32" stroke-width="0.5" stroke-linecap="round" stroke-linejoin="round"/>
<path fill-rule="evenodd" clip-rule="evenodd" d="M7.5 12C7.5 11.7239 7.72386 11.5 8 11.5H16C16.2761 11.5 16.5 11.7239 16.5 12C16.5 12.2761 16.2761 12.5 16 12.5H8C7.72386 12.5 7.5 12.2761 7.5 12Z" fill="#292D32"/>
<path fill-rule="evenodd" clip-rule="evenodd" d="M12 7.5C12.2761 7.5 12.5 7.72386 12.5 8V16C12.5 16.2761 12.2761 16.5 12 16.5C11.7239 16.5 11.5 16.2761 11.5 16V8C11.5 7.72386 11.7239 7.5 12 7.5Z" fill="#292D32"/>
</svg>
