<svg width="24" height="24" viewBox="0 0 24 24" fill="none" xmlns="http://www.w3.org/2000/svg">
<path fill-rule="evenodd" clip-rule="evenodd" d="M2.57007 5.86C2.57007 3.32705 4.63459 1.25 7.18007 1.25H16.8201C19.3662 1.25 21.4281 3.32697 21.4401 5.85646L21.4401 5.86L21.4401 19.95C21.4401 21.0187 21.053 21.9642 20.2282 22.45C19.4032 22.9359 18.3893 22.8153 17.456 22.2957M17.456 22.2957L12.5693 19.582C12.4558 19.5174 12.2548 19.4625 12.0088 19.4625C11.7636 19.4625 11.5571 19.5171 11.4354 19.585L6.55419 22.2957L6.55183 22.297C5.61755 22.8114 4.60495 22.9272 3.78196 22.4425C2.9584 21.9575 2.57007 21.0157 2.57007 19.95V5.86M7.18007 2.75C5.46554 2.75 4.07007 4.15295 4.07007 5.86V19.95C4.07007 20.6843 4.32674 21.0225 4.54317 21.15C4.76005 21.2777 5.18207 21.3385 5.82713 20.9837C5.82752 20.9834 5.82792 20.9832 5.82831 20.983L10.7048 18.275C10.7046 18.2751 10.7049 18.2749 10.7048 18.275C11.1029 18.0531 11.5767 17.9625 12.0088 17.9625C12.439 17.9625 12.9114 18.0521 13.3071 18.276L18.1842 20.9843C18.8306 21.3444 19.2522 21.284 19.467 21.1575C19.6821 21.0308 19.9401 20.6913 19.9401 19.95V5.862C19.9312 4.15219 18.5334 2.75 16.8201 2.75H7.18007Z" fill="#292D32"/>
<path fill-rule="evenodd" clip-rule="evenodd" d="M15.6204 7.96967C15.9133 8.26256 15.9133 8.73744 15.6204 9.03033L11.6204 13.0303C11.3275 13.3232 10.8527 13.3232 10.5598 13.0303L9.05976 11.5303C8.76686 11.2374 8.76686 10.7626 9.05976 10.4697C9.35265 10.1768 9.82752 10.1768 10.1204 10.4697L11.0901 11.4393L14.5598 7.96967C14.8527 7.67678 15.3275 7.67678 15.6204 7.96967Z" fill="#292D32"/>
</svg>
