<svg width="24" height="24" viewBox="0 0 24 24" fill="none" xmlns="http://www.w3.org/2000/svg">
<path fill-rule="evenodd" clip-rule="evenodd" d="M14.0764 5.57662C14.2716 5.38136 14.5882 5.38136 14.7835 5.57662L20.8535 11.6466C20.9473 11.7404 20.9999 11.8676 20.9999 12.0002C20.9999 12.1328 20.9473 12.26 20.8535 12.3537L14.7835 18.4237C14.5882 18.619 14.2716 18.619 14.0764 18.4237C13.8811 18.2285 13.8811 17.9119 14.0764 17.7166L19.7928 12.0002L14.0764 6.28373C13.8811 6.08847 13.8811 5.77188 14.0764 5.57662Z" fill="#292D32"/>
<path fill-rule="evenodd" clip-rule="evenodd" d="M3 12C3 11.7239 3.22386 11.5 3.5 11.5H20.33C20.6061 11.5 20.83 11.7239 20.83 12C20.83 12.2761 20.6061 12.5 20.33 12.5H3.5C3.22386 12.5 3 12.2761 3 12Z" fill="#292D32"/>
</svg>
