<svg width="24" height="24" viewBox="0 0 24 24" fill="none" xmlns="http://www.w3.org/2000/svg">
<path fill-rule="evenodd" clip-rule="evenodd" d="M3.27145 3.27145C4.53609 2.0068 6.45069 1.5 9 1.5H15C17.5493 1.5 19.4639 2.0068 20.7286 3.27145C21.9932 4.53609 22.5 6.45069 22.5 9V15C22.5 17.5493 21.9932 19.4639 20.7286 20.7286C19.4639 21.9932 17.5493 22.5 15 22.5H9C6.45069 22.5 4.53609 21.9932 3.27145 20.7286C2.0068 19.4639 1.5 17.5493 1.5 15V9C1.5 6.45069 2.0068 4.53609 3.27145 3.27145ZM3.97855 3.97855C2.9932 4.96391 2.5 6.54931 2.5 9V15C2.5 17.4507 2.9932 19.0361 3.97855 20.0214C4.96391 21.0068 6.54931 21.5 9 21.5H15C17.4507 21.5 19.0361 21.0068 20.0214 20.0214C21.0068 19.0361 21.5 17.4507 21.5 15V9C21.5 6.54931 21.0068 4.96391 20.0214 3.97855C19.0361 2.9932 17.4507 2.5 15 2.5H9C6.54931 2.5 4.96391 2.9932 3.97855 3.97855Z" fill="#292D32"/>
<path fill-rule="evenodd" clip-rule="evenodd" d="M11.6469 9.58589C11.8421 9.39129 12.1579 9.39129 12.353 9.58589L15.883 13.1059C16.0786 13.3009 16.079 13.6175 15.884 13.813C15.689 14.0085 15.3725 14.009 15.1769 13.814L12 10.646L8.82302 13.814C8.62748 14.009 8.3109 14.0085 8.11592 13.813C7.92093 13.6175 7.92138 13.3009 8.11692 13.1059L11.6469 9.58589Z" fill="#292D32"/>
</svg>
