<svg width="24" height="24" viewBox="0 0 24 24" fill="none" xmlns="http://www.w3.org/2000/svg">
<path fill-rule="evenodd" clip-rule="evenodd" d="M11.9999 3C12.1325 3 12.2597 3.05268 12.3535 3.14645L18.4235 9.21645C18.6187 9.41171 18.6187 9.72829 18.4235 9.92355C18.2282 10.1188 17.9116 10.1188 17.7164 9.92355L11.9999 4.20711L6.28349 9.92355C6.08822 10.1188 5.77164 10.1188 5.57638 9.92355C5.38112 9.72829 5.38112 9.41171 5.57638 9.21645L11.6464 3.14645C11.7401 3.05268 11.8673 3 11.9999 3Z" fill="#292D32"/>
<path fill-rule="evenodd" clip-rule="evenodd" d="M12 3.16992C12.2761 3.16992 12.5 3.39378 12.5 3.66992V20.4999C12.5 20.7761 12.2761 20.9999 12 20.9999C11.7239 20.9999 11.5 20.7761 11.5 20.4999V3.66992C11.5 3.39378 11.7239 3.16992 12 3.16992Z" fill="#292D32"/>
</svg>
