<svg width="24" height="24" viewBox="0 0 24 24" fill="none" xmlns="http://www.w3.org/2000/svg">
<path fill-rule="evenodd" clip-rule="evenodd" d="M12 2.5C6.75329 2.5 2.5 6.75329 2.5 12C2.5 17.2467 6.75329 21.5 12 21.5C17.2467 21.5 21.5 17.2467 21.5 12C21.5 6.75329 17.2467 2.5 12 2.5ZM1.5 12C1.5 6.20101 6.20101 1.5 12 1.5C17.799 1.5 22.5 6.20101 22.5 12C22.5 17.799 17.799 22.5 12 22.5C6.20101 22.5 1.5 17.799 1.5 12Z" fill="#292D32"/>
<path fill-rule="evenodd" clip-rule="evenodd" d="M10.3869 8.11616C10.5825 7.92118 10.8991 7.92162 11.094 8.11716L14.614 11.6472C14.8086 11.8423 14.8086 12.1581 14.614 12.3533L11.094 15.8833C10.8991 16.0788 10.5825 16.0793 10.3869 15.8843C10.1914 15.6893 10.191 15.3727 10.3859 15.1772L13.5539 12.0002L10.3859 8.82327C10.191 8.62773 10.1914 8.31115 10.3869 8.11616Z" fill="#292D32"/>
</svg>
