<svg width="24" height="24" viewBox="0 0 24 24" fill="none" xmlns="http://www.w3.org/2000/svg">
<path fill-rule="evenodd" clip-rule="evenodd" d="M12 2.5C6.75329 2.5 2.5 6.75329 2.5 12C2.5 17.2467 6.75329 21.5 12 21.5C17.2467 21.5 21.5 17.2467 21.5 12C21.5 6.75329 17.2467 2.5 12 2.5ZM1.5 12C1.5 6.20101 6.20101 1.5 12 1.5C17.799 1.5 22.5 6.20101 22.5 12C22.5 17.799 17.799 22.5 12 22.5C6.20101 22.5 1.5 17.799 1.5 12Z" fill="#292D32"/>
<path fill-rule="evenodd" clip-rule="evenodd" d="M13.613 8.11616C13.8086 8.31115 13.809 8.62773 13.614 8.82327L10.4461 12.0002L13.614 15.1772C13.809 15.3727 13.8086 15.6893 13.613 15.8843C13.4175 16.0793 13.1009 16.0788 12.9059 15.8833L9.38594 12.3533C9.19134 12.1581 9.19134 11.8423 9.38594 11.6472L12.9059 8.11716C13.1009 7.92162 13.4175 7.92118 13.613 8.11616Z" fill="#292D32"/>
</svg>
