<svg width="24" height="24" viewBox="0 0 24 24" fill="none" xmlns="http://www.w3.org/2000/svg">
<path fill-rule="evenodd" clip-rule="evenodd" d="M9.92355 5.57662C10.1188 5.77188 10.1188 6.08847 9.92355 6.28373L4.20711 12.0002L9.92355 17.7166C10.1188 17.9119 10.1188 18.2285 9.92355 18.4237C9.72829 18.619 9.41171 18.619 9.21645 18.4237L3.14645 12.3537C3.05268 12.26 3 12.1328 3 12.0002C3 11.8676 3.05268 11.7404 3.14645 11.6466L9.21645 5.57662C9.41171 5.38136 9.72829 5.38136 9.92355 5.57662Z" fill="#292D32"/>
<path fill-rule="evenodd" clip-rule="evenodd" d="M3.16992 12C3.16992 11.7239 3.39378 11.5 3.66992 11.5H20.4999C20.7761 11.5 20.9999 11.7239 20.9999 12C20.9999 12.2761 20.7761 12.5 20.4999 12.5H3.66992C3.39378 12.5 3.16992 12.2761 3.16992 12Z" fill="#292D32"/>
</svg>
