<svg width="24" height="24" viewBox="0 0 24 24" fill="none" xmlns="http://www.w3.org/2000/svg">
<path fill-rule="evenodd" clip-rule="evenodd" d="M12 2.5C6.75329 2.5 2.5 6.75329 2.5 12C2.5 17.2467 6.75329 21.5 12 21.5C17.2467 21.5 21.5 17.2467 21.5 12C21.5 6.75329 17.2467 2.5 12 2.5ZM1.5 12C1.5 6.20101 6.20101 1.5 12 1.5C17.799 1.5 22.5 6.20101 22.5 12C22.5 17.799 17.799 22.5 12 22.5C6.20101 22.5 1.5 17.799 1.5 12Z" fill="#292D32"/>
<path fill-rule="evenodd" clip-rule="evenodd" d="M12 8C12.2761 8 12.5 8.22386 12.5 8.5V14.5C12.5 14.7761 12.2761 15 12 15C11.7239 15 11.5 14.7761 11.5 14.5V8.5C11.5 8.22386 11.7239 8 12 8Z" fill="#292D32"/>
<path fill-rule="evenodd" clip-rule="evenodd" d="M8.64645 12.1464C8.84171 11.9512 9.15829 11.9512 9.35355 12.1464L12 14.7929L14.6464 12.1464C14.8417 11.9512 15.1583 11.9512 15.3536 12.1464C15.5488 12.3417 15.5488 12.6583 15.3536 12.8536L12.3536 15.8536C12.1583 16.0488 11.8417 16.0488 11.6464 15.8536L8.64645 12.8536C8.45118 12.6583 8.45118 12.3417 8.64645 12.1464Z" fill="#292D32"/>
</svg>
