<svg width="24" height="24" viewBox="0 0 24 24" fill="none" xmlns="http://www.w3.org/2000/svg">
<path fill-rule="evenodd" clip-rule="evenodd" d="M12 2.5C6.75329 2.5 2.5 6.75329 2.5 12C2.5 17.2467 6.75329 21.5 12 21.5C17.2467 21.5 21.5 17.2467 21.5 12C21.5 6.75329 17.2467 2.5 12 2.5ZM1.5 12C1.5 6.20101 6.20101 1.5 12 1.5C17.799 1.5 22.5 6.20101 22.5 12C22.5 17.799 17.799 22.5 12 22.5C6.20101 22.5 1.5 17.799 1.5 12Z" fill="#292D32"/>
<path fill-rule="evenodd" clip-rule="evenodd" d="M9 12C9 11.7239 9.22386 11.5 9.5 11.5H15.5C15.7761 11.5 16 11.7239 16 12C16 12.2761 15.7761 12.5 15.5 12.5H9.5C9.22386 12.5 9 12.2761 9 12Z" fill="#292D32"/>
<path fill-rule="evenodd" clip-rule="evenodd" d="M11.8536 8.64645C12.0488 8.84171 12.0488 9.15829 11.8536 9.35355L9.20711 12L11.8536 14.6464C12.0488 14.8417 12.0488 15.1583 11.8536 15.3536C11.6583 15.5488 11.3417 15.5488 11.1464 15.3536L8.14645 12.3536C7.95118 12.1583 7.95118 11.8417 8.14645 11.6464L11.1464 8.64645C11.3417 8.45118 11.6583 8.45118 11.8536 8.64645Z" fill="#292D32"/>
</svg>
