<svg width="24" height="24" viewBox="0 0 24 24" fill="none" xmlns="http://www.w3.org/2000/svg">
<path fill-rule="evenodd" clip-rule="evenodd" d="M12 2.5C6.75329 2.5 2.5 6.75329 2.5 12C2.5 17.2467 6.75329 21.5 12 21.5C17.2467 21.5 21.5 17.2467 21.5 12C21.5 6.75329 17.2467 2.5 12 2.5ZM1.5 12C1.5 6.20101 6.20101 1.5 12 1.5C17.799 1.5 22.5 6.20101 22.5 12C22.5 17.799 17.799 22.5 12 22.5C6.20101 22.5 1.5 17.799 1.5 12Z" fill="#292D32"/>
<path fill-rule="evenodd" clip-rule="evenodd" d="M8.11592 10.3872C8.3109 10.1916 8.62748 10.1912 8.82302 10.3862L12 13.5541L15.1769 10.3862C15.3725 10.1912 15.689 10.1916 15.884 10.3872C16.079 10.5827 16.0786 10.8993 15.883 11.0943L12.353 14.6143C12.1579 14.8089 11.8421 14.8089 11.6469 14.6143L8.11692 11.0943C7.92138 10.8993 7.92093 10.5827 8.11592 10.3872Z" fill="#292D32"/>
</svg>
