<svg width="24" height="24" viewBox="0 0 24 24" fill="none" xmlns="http://www.w3.org/2000/svg">
<path fill-rule="evenodd" clip-rule="evenodd" d="M5.57638 14.0766C5.77164 13.8814 6.08822 13.8814 6.28349 14.0766L11.9999 19.7931L17.7164 14.0766C17.9116 13.8814 18.2282 13.8814 18.4235 14.0766C18.6187 14.2719 18.6187 14.5885 18.4235 14.7837L12.3535 20.8537C12.2597 20.9475 12.1325 21.0002 11.9999 21.0002C11.8673 21.0002 11.7401 20.9475 11.6464 20.8537L5.57638 14.7837C5.38112 14.5885 5.38112 14.2719 5.57638 14.0766Z" fill="#292D32"/>
<path fill-rule="evenodd" clip-rule="evenodd" d="M12 3C12.2761 3 12.5 3.22386 12.5 3.5V20.33C12.5 20.6061 12.2761 20.83 12 20.83C11.7239 20.83 11.5 20.6061 11.5 20.33V3.5C11.5 3.22386 11.7239 3 12 3Z" fill="#292D32"/>
</svg>
