<svg width="24" height="24" viewBox="0 0 24 24" fill="none" xmlns="http://www.w3.org/2000/svg">
<path fill-rule="evenodd" clip-rule="evenodd" d="M15.75 6.51011C15.75 4.31676 13.8655 2.55996 11.6324 2.77661L11.6297 2.77687C9.80824 2.94687 8.25 4.79256 8.25 6.70011V7.67011C8.25 8.08433 7.91421 8.42011 7.5 8.42011C7.08579 8.42011 6.75 8.08433 6.75 7.67011V6.70011C6.75 4.10811 8.81106 1.53423 11.4889 1.28348C14.6152 0.980976 17.25 3.44391 17.25 6.51011V7.89011C17.25 8.30433 16.9142 8.64011 16.5 8.64011C16.0858 8.64011 15.75 8.30433 15.75 7.89011V6.51011Z" fill="#292D32"/>
<path fill-rule="evenodd" clip-rule="evenodd" d="M3.37363 8.81723C4.25905 7.76457 5.77706 7.25 8.0001 7.25H16.0001C18.2231 7.25 19.7411 7.76457 20.6266 8.81723C21.5048 9.8614 21.587 11.2337 21.4455 12.5125L21.4444 12.523L20.6951 18.5167C20.5845 19.5429 20.3256 20.6669 19.4097 21.5037C18.4986 22.3361 17.0869 22.75 15.0001 22.75H9.0001C6.91324 22.75 5.50162 22.3361 4.59048 21.5037C3.67453 20.6669 3.41564 19.5429 3.30508 18.5166L2.55457 12.5125C2.41307 11.2337 2.49536 9.8614 3.37363 8.81723ZM4.04497 12.3423L4.79594 18.3501C4.89579 19.282 5.10264 19.9399 5.60221 20.3963C6.10857 20.8589 7.06695 21.25 9.0001 21.25H15.0001C16.9332 21.25 17.8916 20.8589 18.398 20.3963C18.8975 19.9399 19.1045 19.282 19.2044 18.3501L19.2058 18.337L19.9552 12.3422C20.0827 11.1837 19.9496 10.3428 19.4786 9.78277C19.014 9.23043 18.0471 8.75 16.0001 8.75H8.0001C5.95313 8.75 4.98615 9.23043 4.52156 9.78277C4.05053 10.3428 3.91744 11.1838 4.04497 12.3423Z" fill="#292D32"/>
<path fill-rule="evenodd" clip-rule="evenodd" d="M14.4956 12C14.4956 11.4477 14.9433 11 15.4956 11H15.5046C16.0569 11 16.5046 11.4477 16.5046 12C16.5046 12.5523 16.0569 13 15.5046 13H15.4956C14.9433 13 14.4956 12.5523 14.4956 12Z" fill="#292D32"/>
<path fill-rule="evenodd" clip-rule="evenodd" d="M7.49463 12C7.49463 11.4477 7.94234 11 8.49463 11H8.50361C9.0559 11 9.50361 11.4477 9.50361 12C9.50361 12.5523 9.0559 13 8.50361 13H8.49463C7.94234 13 7.49463 12.5523 7.49463 12Z" fill="#292D32"/>
</svg>
