<svg width="24" height="24" viewBox="0 0 24 24" fill="none" xmlns="http://www.w3.org/2000/svg">
<path fill-rule="evenodd" clip-rule="evenodd" d="M12 11.75C10.2051 11.75 8.75 13.2051 8.75 15C8.75 16.7949 10.2051 18.25 12 18.25C13.7949 18.25 15.25 16.7949 15.25 15C15.25 13.2051 13.7949 11.75 12 11.75ZM7.25 15C7.25 12.3766 9.37665 10.25 12 10.25C14.6234 10.25 16.75 12.3766 16.75 15C16.75 17.6234 14.6234 19.75 12 19.75C9.37665 19.75 7.25 17.6234 7.25 15Z" fill="#292D32"/>
<path fill-rule="evenodd" clip-rule="evenodd" d="M14.1118 13.5118C14.3924 13.8165 14.373 14.2909 14.0684 14.5716L12.2972 16.2035C11.7941 16.6921 11.0185 16.639 10.5599 16.1804L9.90986 15.5304C9.61696 15.2375 9.61696 14.7626 9.90986 14.4697C10.2027 14.1768 10.6776 14.1768 10.9705 14.4697L11.4475 14.9467L13.052 13.4684C13.3566 13.1878 13.8311 13.2072 14.1118 13.5118Z" fill="#292D32"/>
<path fill-rule="evenodd" clip-rule="evenodd" d="M3.37363 8.81723C4.25905 7.76457 5.77706 7.25 8.0001 7.25H16.0001C18.2231 7.25 19.7411 7.76457 20.6266 8.81723C21.5048 9.8614 21.587 11.2337 21.4455 12.5125L21.4444 12.523L20.6951 18.5167C20.5845 19.5429 20.3256 20.6669 19.4097 21.5037C18.4986 22.3361 17.0869 22.75 15.0001 22.75H9.0001C6.91324 22.75 5.50162 22.3361 4.59048 21.5037C3.67453 20.6669 3.41564 19.5429 3.30508 18.5166L2.55457 12.5125C2.41307 11.2337 2.49536 9.8614 3.37363 8.81723ZM4.04497 12.3423L4.79594 18.3501C4.89579 19.282 5.10264 19.9399 5.60221 20.3963C6.10857 20.8589 7.06695 21.25 9.0001 21.25H15.0001C16.9332 21.25 17.8916 20.8589 18.398 20.3963C18.8975 19.9399 19.1045 19.282 19.2044 18.3501L19.2058 18.337L19.9552 12.3422C20.0827 11.1837 19.9496 10.3428 19.4786 9.78277C19.014 9.23043 18.0471 8.75 16.0001 8.75H8.0001C5.95313 8.75 4.98615 9.23043 4.52156 9.78277C4.05053 10.3428 3.91744 11.1838 4.04497 12.3423Z" fill="#292D32"/>
<path fill-rule="evenodd" clip-rule="evenodd" d="M15.75 6.51011C15.75 4.31676 13.8655 2.55996 11.6324 2.77661L11.6297 2.77687C9.80824 2.94687 8.25 4.79256 8.25 6.70011V7.67011C8.25 8.08433 7.91421 8.42011 7.5 8.42011C7.08579 8.42011 6.75 8.08433 6.75 7.67011V6.70011C6.75 4.10811 8.81106 1.53423 11.4889 1.28348C14.6152 0.980976 17.25 3.44391 17.25 6.51011V7.89011C17.25 8.30433 16.9142 8.64011 16.5 8.64011C16.0858 8.64011 15.75 8.30433 15.75 7.89011V6.51011Z" fill="#292D32"/>
</svg>
