<svg width="24" height="24" viewBox="0 0 24 24" fill="none" xmlns="http://www.w3.org/2000/svg">
<path fill-rule="evenodd" clip-rule="evenodd" d="M9.33954 1.46894C9.63284 1.76143 9.63349 2.2363 9.341 2.5296L5.721 6.1596C5.42851 6.4529 4.95364 6.45355 4.66034 6.16106C4.36705 5.86857 4.36639 5.3937 4.65888 5.1004L8.27888 1.4704C8.57137 1.1771 9.04624 1.17645 9.33954 1.46894Z" fill="#292D32"/>
<path fill-rule="evenodd" clip-rule="evenodd" d="M14.6603 1.46894C14.9536 1.17645 15.4285 1.17711 15.721 1.4704L19.341 5.1004C19.6335 5.3937 19.6328 5.86857 19.3395 6.16106C19.0462 6.45355 18.5714 6.4529 18.2789 6.1596L14.6589 2.5296C14.3664 2.2363 14.367 1.76143 14.6603 1.46894Z" fill="#292D32"/>
<path fill-rule="evenodd" clip-rule="evenodd" d="M3.06612 6.77949C2.95982 6.85068 2.75 7.0482 2.75 7.8501C2.75 8.84947 2.98342 8.98364 3.02242 9.00607L3.02325 9.00654C3.08165 9.0402 3.19013 9.07586 3.40918 9.09196C3.5762 9.10423 3.74829 9.10294 3.96204 9.10134C4.04163 9.10074 4.12698 9.1001 4.22 9.1001H19.78C19.873 9.1001 19.9584 9.10074 20.038 9.10134C20.2517 9.10294 20.4238 9.10423 20.5908 9.09196C20.8099 9.07586 20.9183 9.0402 20.9767 9.00654L20.9776 9.00607C21.0166 8.98364 21.25 8.84947 21.25 7.8501C21.25 7.0482 21.0402 6.85068 20.9339 6.77949C20.7469 6.65425 20.418 6.6001 19.78 6.6001H4.22C3.58197 6.6001 3.2531 6.65425 3.06612 6.77949ZM2.23138 5.53321C2.8469 5.12095 3.62803 5.1001 4.22 5.1001H19.78C20.372 5.1001 21.1531 5.12095 21.7686 5.53321C22.4648 5.99951 22.75 6.80199 22.75 7.8501C22.75 8.99341 22.4918 9.86463 21.7257 10.3062C21.3829 10.5037 21.0133 10.565 20.7007 10.5879C20.4675 10.6051 20.2081 10.603 19.9768 10.6012C19.9083 10.6006 19.8422 10.6001 19.78 10.6001H4.22C4.15779 10.6001 4.09171 10.6006 4.02316 10.6012C3.79185 10.603 3.5325 10.6051 3.29925 10.5879C2.98674 10.565 2.6171 10.5037 2.27425 10.3062C1.50815 9.86464 1.25 8.99341 1.25 7.8501C1.25 6.80199 1.53518 5.99951 2.23138 5.53321Z" fill="#292D32"/>
<path fill-rule="evenodd" clip-rule="evenodd" d="M9.76001 13.25C10.1742 13.25 10.51 13.5858 10.51 14V17.55C10.51 17.9642 10.1742 18.3 9.76001 18.3C9.3458 18.3 9.01001 17.9642 9.01001 17.55V14C9.01001 13.5858 9.3458 13.25 9.76001 13.25Z" fill="#292D32"/>
<path fill-rule="evenodd" clip-rule="evenodd" d="M14.3601 13.25C14.7743 13.25 15.1101 13.5858 15.1101 14V17.55C15.1101 17.9642 14.7743 18.3 14.3601 18.3C13.9459 18.3 13.6101 17.9642 13.6101 17.55V14C13.6101 13.5858 13.9459 13.25 14.3601 13.25Z" fill="#292D32"/>
<path fill-rule="evenodd" clip-rule="evenodd" d="M20.6414 9.26356C21.0482 9.34158 21.3147 9.7346 21.2367 10.1414L19.5567 18.9012C19.3799 19.8248 19.1488 20.8486 18.4289 21.6029C17.677 22.3909 16.5392 22.7501 14.8901 22.7501H8.86011C7.30829 22.7501 6.17693 22.3625 5.39894 21.5746C4.64211 20.8081 4.33744 19.7766 4.17011 18.7622L2.75991 10.1209C2.69319 9.71213 2.97051 9.32664 3.37932 9.25993C3.78812 9.19322 4.17361 9.47053 4.24032 9.87934L5.65011 18.5181C5.65008 18.5179 5.65015 18.5183 5.65011 18.5181C5.8028 19.4433 6.04322 20.0922 6.46628 20.5207C6.8683 20.9278 7.55194 21.2501 8.86011 21.2501H14.8901C16.3511 21.2501 16.9983 20.9294 17.3438 20.5673C17.7214 20.1716 17.9004 19.5754 18.0835 18.6191L19.7635 9.85888C19.8416 9.45208 20.2346 9.18554 20.6414 9.26356Z" fill="#292D32"/>
</svg>
