<svg width="24" height="24" viewBox="0 0 24 24" fill="none" xmlns="http://www.w3.org/2000/svg">
<path fill-rule="evenodd" clip-rule="evenodd" d="M3.88534 5.2371C3.20538 5.86848 2.75 6.89295 2.75 8.5V15.5C2.75 17.107 3.20538 18.1315 3.88534 18.7629C4.57535 19.4036 5.61497 19.75 7 19.75H17C18.385 19.75 19.4246 19.4036 20.1147 18.7629C20.7946 18.1315 21.25 17.107 21.25 15.5V8.5C21.25 6.89295 20.7946 5.86848 20.1147 5.2371C19.4246 4.59637 18.385 4.25 17 4.25H7C5.61497 4.25 4.57535 4.59637 3.88534 5.2371ZM2.86466 4.1379C3.92465 3.15363 5.38503 2.75 7 2.75H17C18.615 2.75 20.0754 3.15363 21.1353 4.1379C22.2054 5.13152 22.75 6.60705 22.75 8.5V15.5C22.75 17.393 22.2054 18.8685 21.1353 19.8621C20.0754 20.8464 18.615 21.25 17 21.25H7C5.38503 21.25 3.92465 20.8464 2.86466 19.8621C1.79462 18.8685 1.25 17.393 1.25 15.5V8.5C1.25 6.60705 1.79462 5.13152 2.86466 4.1379Z" fill="#292D32"/>
<path fill-rule="evenodd" clip-rule="evenodd" d="M6 7.25C6.41421 7.25 6.75 7.58579 6.75 8V16C6.75 16.4142 6.41421 16.75 6 16.75C5.58579 16.75 5.25 16.4142 5.25 16V8C5.25 7.58579 5.58579 7.25 6 7.25Z" fill="#292D32"/>
<path fill-rule="evenodd" clip-rule="evenodd" d="M9 7.25C9.41421 7.25 9.75 7.58579 9.75 8V12C9.75 12.4142 9.41421 12.75 9 12.75C8.58579 12.75 8.25 12.4142 8.25 12V8C8.25 7.58579 8.58579 7.25 9 7.25Z" fill="#292D32"/>
<path fill-rule="evenodd" clip-rule="evenodd" d="M9 14.25C9.41421 14.25 9.75 14.5858 9.75 15V16C9.75 16.4142 9.41421 16.75 9 16.75C8.58579 16.75 8.25 16.4142 8.25 16V15C8.25 14.5858 8.58579 14.25 9 14.25Z" fill="#292D32"/>
<path fill-rule="evenodd" clip-rule="evenodd" d="M15 7.25C15.4142 7.25 15.75 7.58579 15.75 8V9C15.75 9.41421 15.4142 9.75 15 9.75C14.5858 9.75 14.25 9.41421 14.25 9V8C14.25 7.58579 14.5858 7.25 15 7.25Z" fill="#292D32"/>
<path fill-rule="evenodd" clip-rule="evenodd" d="M12 7.25C12.4142 7.25 12.75 7.58579 12.75 8V16C12.75 16.4142 12.4142 16.75 12 16.75C11.5858 16.75 11.25 16.4142 11.25 16V8C11.25 7.58579 11.5858 7.25 12 7.25Z" fill="#292D32"/>
<path fill-rule="evenodd" clip-rule="evenodd" d="M15 11.25C15.4142 11.25 15.75 11.5858 15.75 12V16C15.75 16.4142 15.4142 16.75 15 16.75C14.5858 16.75 14.25 16.4142 14.25 16V12C14.25 11.5858 14.5858 11.25 15 11.25Z" fill="#292D32"/>
<path fill-rule="evenodd" clip-rule="evenodd" d="M18 7.25C18.4142 7.25 18.75 7.58579 18.75 8V16C18.75 16.4142 18.4142 16.75 18 16.75C17.5858 16.75 17.25 16.4142 17.25 16V8C17.25 7.58579 17.5858 7.25 18 7.25Z" fill="#292D32"/>
</svg>
