<svg width="25" height="24" viewBox="0 0 25 24" fill="none" xmlns="http://www.w3.org/2000/svg">
<path d="M3.96973 7.43945L12.7997 12.5494L21.5697 7.46942" stroke="#FF6B00" stroke-width="1.5" stroke-linecap="round" stroke-linejoin="round"/>
<path d="M12.7998 21.6091V12.5391" stroke="#FF6B00" stroke-width="1.5" stroke-linecap="round" stroke-linejoin="round"/>
<path d="M10.7294 2.48L5.38943 5.45003C4.17943 6.12003 3.18945 7.80001 3.18945 9.18001V14.83C3.18945 16.21 4.17943 17.89 5.38943 18.56L10.7294 21.53C11.8694 22.16 13.7394 22.16 14.8794 21.53L20.2195 18.56C21.4295 17.89 22.4194 16.21 22.4194 14.83V9.18001C22.4194 7.80001 21.4295 6.12003 20.2195 5.45003L14.8794 2.48C13.7294 1.84 11.8694 1.84 10.7294 2.48Z" stroke="#FF6B00" stroke-width="1.5" stroke-linecap="round" stroke-linejoin="round"/>
<path d="M17.7996 13.2396V9.57965L8.30957 4.09961" stroke="#FF6B00" stroke-width="1.5" stroke-linecap="round" stroke-linejoin="round"/>
</svg>
