<svg width="25" height="24" viewBox="0 0 25 24" fill="none" xmlns="http://www.w3.org/2000/svg">
<path d="M10.4004 22H14.4004C19.4004 22 21.4004 20 21.4004 15V9C21.4004 4 19.4004 2 14.4004 2H10.4004C5.40039 2 3.40039 4 3.40039 9V15C3.40039 20 5.40039 22 10.4004 22Z" stroke="#ADB2C0" stroke-width="1.5" stroke-linecap="round" stroke-linejoin="round"/>
<path d="M16.9004 7.58008V8.58008C16.9004 9.40008 16.2304 10.0801 15.4004 10.0801H9.40039C8.58039 10.0801 7.90039 9.41008 7.90039 8.58008V7.58008C7.90039 6.76008 8.57039 6.08008 9.40039 6.08008H15.4004C16.2304 6.08008 16.9004 6.75008 16.9004 7.58008Z" stroke="#ADB2C0" stroke-width="1.5" stroke-linecap="round" stroke-linejoin="round"/>
<path d="M8.53651 14H8.54806" stroke="#ADB2C0" stroke-width="2" stroke-linecap="round" stroke-linejoin="round"/>
<path d="M12.3959 14H12.4074" stroke="#ADB2C0" stroke-width="2" stroke-linecap="round" stroke-linejoin="round"/>
<path d="M16.2543 14H16.2658" stroke="#ADB2C0" stroke-width="2" stroke-linecap="round" stroke-linejoin="round"/>
<path d="M8.53651 17.5H8.54806" stroke="#ADB2C0" stroke-width="2" stroke-linecap="round" stroke-linejoin="round"/>
<path d="M12.3959 17.5H12.4074" stroke="#ADB2C0" stroke-width="2" stroke-linecap="round" stroke-linejoin="round"/>
<path d="M16.2543 17.5H16.2658" stroke="#ADB2C0" stroke-width="2" stroke-linecap="round" stroke-linejoin="round"/>
</svg>
