<svg width="24" height="25" viewBox="0 0 24 25" fill="none" xmlns="http://www.w3.org/2000/svg">
<path fill-rule="evenodd" clip-rule="evenodd" d="M5.38451 3.104C4.87638 3.104 5.3417 4.56207 4.81491 5.08063L4.80923 5.08622L4.80344 5.09169C4.34868 5.5207 4.03383 5.98969 3.83669 6.49074L3.83514 6.49469C3.63292 7.00023 3.52877 7.55503 3.52877 8.14614C3.52877 9.06881 3.74143 10.0594 4.18952 11.124C4.64384 12.1933 5.2736 13.2841 6.06635 14.3864C6.87227 15.4932 7.77629 16.553 8.77915 17.5659C9.7923 18.569 10.8529 19.4737 11.971 20.2904C13.0698 21.0903 14.1705 21.7208 15.2628 22.1862C16.3375 22.6441 17.3274 22.8561 18.2288 22.8561C18.8336 22.8561 19.3852 22.7443 19.8903 22.5338L19.8944 22.5322C20.3892 22.3294 19.8549 20.7574 20.2788 20.2904M3.76835 4.00603C4.5203 3.26812 5.39936 2.85614 6.36877 2.85614C6.75195 2.85614 7.14188 2.93752 7.49818 3.10754C7.86632 3.27843 8.20186 3.54007 8.46273 3.91536L10.779 7.18015C10.9841 7.4652 11.1445 7.74411 11.2606 8.0265C11.3785 8.30324 11.4588 8.61258 11.4588 8.92614C11.4588 9.31301 11.346 9.68277 11.1458 10.0155C10.9755 10.314 10.743 10.6018 10.4744 10.8712L9.78565 11.5871C9.79262 11.6036 9.80198 11.6258 9.8121 11.6516C9.96177 11.914 10.2268 12.2834 10.6287 12.7586C11.0688 13.267 11.5355 13.7823 12.0392 14.2958C12.5711 14.8178 13.0749 15.292 13.5836 15.7239C14.0646 16.1309 14.4394 16.3902 14.7118 16.5383C14.7337 16.5478 14.7541 16.557 14.7706 16.5646L15.4603 15.884C15.7337 15.6108 16.027 15.37 16.34 15.2028C16.667 15.008 17.0235 14.8961 17.4188 14.8961C17.7187 14.8961 18.015 14.9602 18.3127 15.082C18.5957 15.1977 18.8727 15.357 19.1505 15.5459L19.1568 15.5502L22.4696 17.9022C22.8242 18.1486 23.1021 18.4606 23.2753 18.8541L23.2804 18.8658L23.2851 18.8776C23.4125 19.1961 23.4988 19.5413 23.4988 19.9361C23.4988 20.4086 23.3935 20.8878 23.177 21.3464C22.9772 21.7694 22.7169 22.172 22.3745 22.5498C21.819 23.162 21.1895 23.6221 20.4653 23.9193C19.771 24.2083 19.0232 24.3561 18.2288 24.3561C17.0902 24.3561 15.9001 24.0882 14.6748 23.5661C13.4673 23.0516 12.2682 22.3622 11.0873 21.5025L11.0864 21.5018C9.90548 20.6392 8.78701 19.6848 7.72101 18.629L7.71586 18.6239C6.66024 17.5581 5.70554 16.4393 4.85245 15.2676L4.84991 15.2641C4.00351 14.0874 3.31387 12.8992 2.80847 11.7094L2.80754 11.7072C2.29596 10.4922 2.02877 9.30315 2.02877 8.14614C2.02877 7.37798 2.16437 6.63346 2.44163 5.93956C2.72364 5.22367 3.1666 4.57518 3.76835 4.00603ZM5.38451 3.104C5.55949 3.104 6.71191 4.39398 6.85422 4.46228L5.38451 3.104ZM7.23213 4.77305C7.13458 4.63216 7.01306 4.53569 6.86448 4.46711L6.85422 4.46228M7.23213 4.77305L9.55708 8.05012L7.23213 4.77305ZM9.87461 8.60012C9.81123 8.44518 9.71295 8.26663 9.56012 8.05437L9.55708 8.05012M9.95877 8.92614C9.95877 8.8619 9.94018 8.75336 9.87941 8.61158L9.87461 8.60012M9.95877 8.92614C9.95877 9.01517 9.93391 9.12167 9.85812 9.24618L9.95877 8.92614ZM9.85812 9.24618L9.85182 9.25654L9.85812 9.24618ZM9.85182 9.25654L9.84585 9.2671L9.85182 9.25654ZM9.84585 9.2671C9.75773 9.42299 9.61446 9.60979 9.40844 9.81581L9.84585 9.2671ZM9.40844 9.81581L9.40331 9.82094L9.40844 9.81581ZM9.40331 9.82094L9.39828 9.82617L9.40331 9.82094ZM9.39828 9.82617L8.64236 10.6119L9.39828 9.82617ZM8.64236 10.6119C8.38437 10.8731 8.26877 11.1969 8.26877 11.5361C8.26877 11.6872 8.28885 11.8188 8.32116 11.948L8.33152 11.9895L8.34652 12.0295C8.36613 12.0818 8.38581 12.1282 8.39828 12.1576C8.39952 12.1605 8.4007 12.1633 8.40179 12.1659C8.41479 12.1966 8.41735 12.2036 8.41735 12.2036L8.43837 12.2667L8.47035 12.3253C8.68579 12.7203 9.03296 13.1949 9.48623 13.7306L9.49164 13.7369C9.94927 14.2657 10.44 14.8077 10.9734 15.3514L10.9784 15.3564L10.9834 15.3614C11.5294 15.8973 12.0638 16.4013 12.6133 16.8679L12.6143 16.8687C13.1565 17.3275 13.6324 17.6643 14.0379 17.879L14.0731 17.8977L14.1102 17.9125C14.1153 17.9145 14.1264 17.9193 14.1588 17.9342C14.1861 17.9467 14.2279 17.966 14.2733 17.9855L14.2892 17.9923L14.3054 17.9984C14.495 18.0695 14.6707 18.0861 14.8188 18.0861C15.1972 18.0861 15.5143 17.9403 15.757 17.6986L16.5156 16.95L16.5191 16.9465C16.7388 16.7268 16.9176 16.5931 17.0557 16.5211L17.0776 16.5096L17.0987 16.4968C17.2259 16.4194 17.3226 16.3961 17.4188 16.3961C17.4988 16.3961 17.6026 16.4121 17.7448 16.4703C17.9004 16.534 18.0816 16.6334 18.301 16.7822L21.6046 19.1277L21.6119 19.1328C21.7701 19.2423 21.8507 19.3462 21.8977 19.448C21.9666 19.6238 21.9988 19.7751 21.9988 19.9361C21.9988 20.1837 21.944 20.4444 21.8206 20.7059C21.6804 21.0027 20.5162 20.0283 20.2788 20.2904" fill="#292D32"/>
</svg>
