<svg width="16" height="20" viewBox="0 0 16 20" fill="none" xmlns="http://www.w3.org/2000/svg">
<path d="M10 0L16 6V18C16 18.5304 15.7893 19.0391 15.4142 19.4142C15.0391 19.7893 14.5304 20 14 20H2C1.46957 20 0.960859 19.7893 0.585786 19.4142C0.210714 19.0391 0 18.5304 0 18V2C0 1.46957 0.210714 0.960859 0.585786 0.585786C0.960859 0.210714 1.46957 0 2 0H10ZM14 18V7H9V2H2V18H14ZM7.5 8C10 8 12 10 12 12.5C12 15 10 17 7.5 17C5 17 3 15 3 12.5C3 10 5 8 7.5 8ZM7.5 9.5C6.94 9.5 6.42 9.65 6 9.92L10.08 14C10.35 13.58 10.5 13.06 10.5 12.5C10.5 11.7044 10.1839 10.9413 9.62132 10.3787C9.05871 9.81607 8.29565 9.5 7.5 9.5ZM4.5 12.5C4.5 13.2956 4.81607 14.0587 5.37868 14.6213C5.94129 15.1839 6.70435 15.5 7.5 15.5C8.06 15.5 8.58 15.35 9 15.08L4.92 11C4.65 11.42 4.5 11.94 4.5 12.5Z" fill="black"/>
</svg>
