<svg width="24" height="24" viewBox="0 0 24 24" fill="none" xmlns="http://www.w3.org/2000/svg">
<path fill-rule="evenodd" clip-rule="evenodd" d="M1.25 12.6099C1.25 12.1956 1.58579 11.8599 2 11.8599H19C19.4142 11.8599 19.75 12.1956 19.75 12.6099C19.75 13.0241 19.4142 13.3599 19 13.3599H2C1.58579 13.3599 1.25 13.0241 1.25 12.6099Z" fill="#292D32"/>
<path fill-rule="evenodd" clip-rule="evenodd" d="M5.03784 7.31888C3.90924 7.38633 3.44461 7.62081 3.19902 7.93066C2.91992 8.28281 2.75 8.93508 2.75 10.2798V17.2698C2.75 18.7628 2.95829 19.3968 3.2843 19.7185C3.61379 20.0436 4.26443 20.2498 5.78003 20.2498H15.22C16.71 20.2498 17.3641 20.052 17.6986 19.7373C18.0198 19.4351 18.2347 18.8421 18.25 17.4258V10.2798C18.25 8.78677 18.0417 8.15285 17.7157 7.83115C17.3862 7.50603 16.7356 7.2998 15.22 7.2998H5.78003C5.51934 7.2998 5.27492 7.30902 5.03784 7.31888ZM4.96878 5.82046C5.20963 5.81042 5.48314 5.7998 5.78003 5.7998H15.22C16.7244 5.7998 17.9637 5.96858 18.7693 6.76346C19.5783 7.56176 19.75 8.79284 19.75 10.2798V17.4377C19.7349 18.8686 19.5449 20.0598 18.7264 20.8298C17.9208 21.5877 16.7 21.7498 15.22 21.7498H5.78003C4.27563 21.7498 3.03626 21.581 2.23073 20.7862C1.42172 19.9879 1.25 18.7568 1.25 17.2698V10.2798C1.25 8.92453 1.39508 7.7918 2.02348 6.99895C2.68493 6.16439 3.71901 5.89417 4.95577 5.82111L4.96878 5.82046Z" fill="#292D32"/>
<path fill-rule="evenodd" clip-rule="evenodd" d="M5.78396 5.8H15.22C16.7244 5.8 17.9637 5.96878 18.7693 6.76365C19.5783 7.56195 19.75 8.79303 19.75 10.28V16.5897C20.3291 16.4792 20.6227 16.294 20.801 16.0691C21.0801 15.717 21.25 15.0647 21.25 13.72V6.73C21.25 5.23697 21.0417 4.60305 20.7157 4.28135C20.3862 3.95622 19.7356 3.75 18.22 3.75H8.78003C7.29005 3.75 6.63589 3.94785 6.30142 4.26251C6.04629 4.50253 5.8582 4.9261 5.78396 5.8ZM5.27361 3.16999C6.07916 2.41215 7.30001 2.25 8.78003 2.25H18.22C19.7244 2.25 20.9637 2.41878 21.7693 3.21365C22.5783 4.01195 22.75 5.24303 22.75 6.73V13.72C22.75 15.0753 22.6049 16.208 21.9765 17.0009C21.3151 17.8354 20.281 18.1056 19.0442 18.1787C18.838 18.1909 18.6359 18.1175 18.4855 17.9757C18.3352 17.834 18.25 17.6366 18.25 17.43V10.28C18.25 8.78696 18.0417 8.15305 17.7157 7.83135C17.3862 7.50622 16.7356 7.3 15.22 7.3H5.78003C5.51692 7.3 5.27037 7.30938 5.03122 7.31935C4.8257 7.32791 4.62568 7.25169 4.47798 7.10852C4.33029 6.96534 4.24788 6.76779 4.25004 6.56211C4.2651 5.13117 4.45507 3.94005 5.27361 3.16999Z" fill="#292D32"/>
<path fill-rule="evenodd" clip-rule="evenodd" d="M4.5 17.8101C4.5 17.3958 4.83579 17.0601 5.25 17.0601H6.96997C7.38418 17.0601 7.71997 17.3958 7.71997 17.8101C7.71997 18.2243 7.38418 18.5601 6.96997 18.5601H5.25C4.83579 18.5601 4.5 18.2243 4.5 17.8101Z" fill="#292D32"/>
<path fill-rule="evenodd" clip-rule="evenodd" d="M8.35986 17.8101C8.35986 17.3958 8.69565 17.0601 9.10986 17.0601H12.5499C12.9641 17.0601 13.2999 17.3958 13.2999 17.8101C13.2999 18.2243 12.9641 18.5601 12.5499 18.5601H9.10986C8.69565 18.5601 8.35986 18.2243 8.35986 17.8101Z" fill="#292D32"/>
</svg>
