<svg width="24" height="24" viewBox="0 0 24 24" fill="none" xmlns="http://www.w3.org/2000/svg">
<path fill-rule="evenodd" clip-rule="evenodd" d="M5.57007 12.2903C5.57007 11.2461 6.41587 10.4004 7.46005 10.4004H10.11V11.1504H10.86V17.4103C10.86 17.8246 10.5243 18.1603 10.11 18.1603H6.32007C5.90585 18.1603 5.57007 17.8246 5.57007 17.4103V12.2903ZM9.36005 11.9004H7.46005C7.24424 11.9004 7.07007 12.0746 7.07007 12.2903V16.6603H9.36005V11.9004Z" fill="#292D32"/>
<path fill-rule="evenodd" clip-rule="evenodd" d="M9.35132 7.74011C9.35132 6.69592 10.1971 5.8501 11.2413 5.8501H12.7613C13.8141 5.8501 14.6413 6.70456 14.6413 7.74011V17.4001C14.6413 17.8144 14.3055 18.1501 13.8913 18.1501H10.1013C9.6871 18.1501 9.35132 17.8144 9.35132 17.4001V7.74011ZM11.2413 7.3501C11.0255 7.3501 10.8513 7.5243 10.8513 7.74011V16.6501H13.1413V7.74011C13.1413 7.51567 12.9685 7.3501 12.7613 7.3501H11.2413Z" fill="#292D32"/>
<path fill-rule="evenodd" clip-rule="evenodd" d="M13.1482 12.8501C13.1482 12.4359 13.484 12.1001 13.8982 12.1001H16.5482C17.5889 12.1001 18.4218 12.9499 18.4381 13.9782L18.4383 13.9901H18.4382V17.4001C18.4382 17.8144 18.1024 18.1501 17.6882 18.1501H13.8982C13.484 18.1501 13.1482 17.8144 13.1482 17.4001V12.8501ZM14.6482 13.6001V16.6501H16.9382V13.9975C16.9322 13.7682 16.7462 13.6001 16.5482 13.6001H14.6482Z" fill="#292D32"/>
<path fill-rule="evenodd" clip-rule="evenodd" d="M3.09467 3.09467C4.42914 1.7602 6.42603 1.25 9 1.25H15C17.574 1.25 19.5709 1.7602 20.9053 3.09467C22.2398 4.42914 22.75 6.42603 22.75 9V15C22.75 17.574 22.2398 19.5709 20.9053 20.9053C19.5709 22.2398 17.574 22.75 15 22.75H9C6.42603 22.75 4.42914 22.2398 3.09467 20.9053C1.7602 19.5709 1.25 17.574 1.25 15V9C1.25 6.42603 1.7602 4.42914 3.09467 3.09467ZM4.15533 4.15533C3.2398 5.07086 2.75 6.57397 2.75 9V15C2.75 17.426 3.2398 18.9291 4.15533 19.8447C5.07086 20.7602 6.57397 21.25 9 21.25H15C17.426 21.25 18.9291 20.7602 19.8447 19.8447C20.7602 18.9291 21.25 17.426 21.25 15V9C21.25 6.57397 20.7602 5.07086 19.8447 4.15533C18.9291 3.2398 17.426 2.75 15 2.75H9C6.57397 2.75 5.07086 3.2398 4.15533 4.15533Z" fill="#292D32"/>
</svg>
