<svg width="24" height="24" viewBox="0 0 24 24" fill="none" xmlns="http://www.w3.org/2000/svg">
<path fill-rule="evenodd" clip-rule="evenodd" d="M15.3404 11.6694C15.6333 11.9623 15.6333 12.4371 15.3404 12.73L11.3404 16.73C11.1997 16.8707 11.009 16.9497 10.8101 16.9497C10.6111 16.9497 10.4204 16.8707 10.2797 16.73L8.77973 15.23C8.48684 14.9371 8.48684 14.4623 8.77973 14.1694C9.07262 13.8765 9.5475 13.8765 9.84039 14.1694L10.8101 15.139L14.2797 11.6694C14.5726 11.3765 15.0475 11.3765 15.3404 11.6694Z" fill="#292D32"/>
<path fill-rule="evenodd" clip-rule="evenodd" d="M9.92882 1.24966C9.95338 1.24973 9.97713 1.2498 10 1.2498H14C14.0229 1.2498 14.0466 1.24973 14.0712 1.24966C14.5142 1.24841 15.222 1.24639 15.791 1.62576C16.4753 2.08197 16.75 2.90075 16.75 3.9998C16.75 4.02267 16.7501 4.04642 16.7501 4.07098C16.7514 4.51396 16.7534 5.22177 16.374 5.79083C15.9178 6.47514 15.099 6.7498 14 6.7498H10C9.97713 6.7498 9.95338 6.74987 9.92882 6.74994C9.48584 6.7512 8.77803 6.75321 8.20897 6.37384C7.52467 5.91763 7.25 5.09885 7.25 3.9998C7.25 2.90075 7.52467 2.08197 8.20897 1.62576C8.77803 1.24639 9.48584 1.24841 9.92882 1.24966ZM9.04103 2.87384C8.97533 2.91763 8.75 3.09885 8.75 3.9998C8.75 4.90075 8.97533 5.08197 9.04103 5.12576C9.19042 5.22536 9.43524 5.2498 10 5.2498H14C14.901 5.2498 15.0822 5.02447 15.126 4.95878C15.2256 4.80938 15.25 4.56457 15.25 3.9998C15.25 3.09885 15.0247 2.91763 14.959 2.87384C14.8096 2.77424 14.5648 2.7498 14 2.7498H10C9.43524 2.7498 9.19042 2.77424 9.04103 2.87384Z" fill="#292D32"/>
<path fill-rule="evenodd" clip-rule="evenodd" d="M8.74891 3.97956C8.77126 4.39317 8.45409 4.74659 8.04048 4.76895C6.43434 4.85576 5.43333 5.19324 4.80215 5.87647C4.1626 6.56876 3.75 7.78083 3.75 10V16C3.75 17.9868 4.01132 19.2312 4.68943 20.0062C5.34587 20.7564 6.56467 21.25 9 21.25H15C17.4353 21.25 18.6541 20.7564 19.3106 20.0062C19.9887 19.2312 20.25 17.9868 20.25 16V10C20.25 7.77532 19.8372 6.56383 19.1982 5.8731C18.5674 5.19127 17.5669 4.85583 15.9595 4.76895C15.5459 4.74659 15.2287 4.39317 15.2511 3.97956C15.2735 3.56595 15.6269 3.24878 16.0405 3.27113C17.7631 3.36425 19.2626 3.73381 20.2993 4.85448C21.3278 5.96625 21.75 7.65475 21.75 10V16C21.75 18.0133 21.5113 19.7689 20.4394 20.9939C19.3459 22.2437 17.5647 22.75 15 22.75H9C6.43533 22.75 4.65413 22.2437 3.56057 20.9939C2.48868 19.7689 2.25 18.0133 2.25 16V10C2.25 7.65925 2.6724 5.97132 3.70035 4.85861C4.73667 3.73684 6.23566 3.36431 7.95952 3.27113C8.37313 3.24878 8.72655 3.56595 8.74891 3.97956Z" fill="#292D32"/>
</svg>
