<svg width="24" height="24" viewBox="0 0 24 24" fill="none" xmlns="http://www.w3.org/2000/svg">
<path fill-rule="evenodd" clip-rule="evenodd" d="M15.1835 8.81637C15.3787 9.01163 15.3787 9.32821 15.1835 9.52348L9.52348 15.1835C9.32821 15.3787 9.01163 15.3787 8.81637 15.1835C8.62111 14.9882 8.62111 14.6716 8.81637 14.4764L14.4764 8.81637C14.6716 8.62111 14.9882 8.62111 15.1835 8.81637Z" fill="#292D32"/>
<path fill-rule="evenodd" clip-rule="evenodd" d="M8.81637 8.81637C9.01163 8.62111 9.32821 8.62111 9.52348 8.81637L15.1835 14.4764C15.3787 14.6716 15.3787 14.9882 15.1835 15.1835C14.9882 15.3787 14.6716 15.3787 14.4764 15.1835L8.81637 9.52348C8.62111 9.32821 8.62111 9.01163 8.81637 8.81637Z" fill="#292D32"/>
</svg>
