<svg width="24" height="24" viewBox="0 0 24 24" fill="none" xmlns="http://www.w3.org/2000/svg">
<path fill-rule="evenodd" clip-rule="evenodd" d="M15.1835 8.81637C15.3787 9.01163 15.3787 9.32821 15.1835 9.52348L9.52348 15.1835C9.32821 15.3787 9.01163 15.3787 8.81637 15.1835C8.62111 14.9882 8.62111 14.6716 8.81637 14.4764L14.4764 8.81637C14.6716 8.62111 14.9882 8.62111 15.1835 8.81637Z" fill="#292D32"/>
<path fill-rule="evenodd" clip-rule="evenodd" d="M8.81637 8.81637C9.01163 8.62111 9.32821 8.62111 9.52348 8.81637L15.1835 14.4764C15.3787 14.6716 15.3787 14.9882 15.1835 15.1835C14.9882 15.3787 14.6716 15.3787 14.4764 15.1835L8.81637 9.52348C8.62111 9.32821 8.62111 9.01163 8.81637 8.81637Z" fill="#292D32"/>
<path fill-rule="evenodd" clip-rule="evenodd" d="M3.27145 3.27145C4.53609 2.0068 6.45069 1.5 9 1.5H15C17.5493 1.5 19.4639 2.0068 20.7286 3.27145C21.9932 4.53609 22.5 6.45069 22.5 9V15C22.5 17.5493 21.9932 19.4639 20.7286 20.7286C19.4639 21.9932 17.5493 22.5 15 22.5H9C6.45069 22.5 4.53609 21.9932 3.27145 20.7286C2.0068 19.4639 1.5 17.5493 1.5 15V9C1.5 6.45069 2.0068 4.53609 3.27145 3.27145ZM3.97855 3.97855C2.9932 4.96391 2.5 6.54931 2.5 9V15C2.5 17.4507 2.9932 19.0361 3.97855 20.0214C4.96391 21.0068 6.54931 21.5 9 21.5H15C17.4507 21.5 19.0361 21.0068 20.0214 20.0214C21.0068 19.0361 21.5 17.4507 21.5 15V9C21.5 6.54931 21.0068 4.96391 20.0214 3.97855C19.0361 2.9932 17.4507 2.5 15 2.5H9C6.54931 2.5 4.96391 2.9932 3.97855 3.97855Z" fill="#292D32"/>
</svg>
