<svg width="24" height="24" viewBox="0 0 24 24" fill="none" xmlns="http://www.w3.org/2000/svg">
<path fill-rule="evenodd" clip-rule="evenodd" d="M12.5886 3.02072C12.2615 2.69362 11.7163 2.69361 11.3892 3.02072C11.3892 3.02072 11.3892 3.02071 11.3892 3.02072L9.86924 4.54074C9.64927 4.7607 9.36347 4.92591 9.09864 5.03571C8.83421 5.14534 8.51674 5.23038 8.20889 5.23038H6.0589C5.5931 5.23038 5.20889 5.61459 5.20889 6.08036V8.23038C5.20889 8.53824 5.12384 8.85572 5.0142 9.12014C4.90439 9.38498 4.73918 9.67075 4.51923 9.89071C4.51923 9.89071 4.51923 9.89071 4.51923 9.89071L2.99924 11.4107C2.67213 11.7378 2.67213 12.283 2.99923 12.6101L4.51483 14.1257C4.7393 14.3438 4.90504 14.6299 5.0142 14.8932C5.12503 15.1605 5.20889 15.4799 5.20889 15.7904V17.9403C5.20889 18.4062 5.59317 18.7904 6.0589 18.7904H8.20889C8.51674 18.7904 8.83421 18.8755 9.09864 18.9851C9.36347 19.0949 9.64926 19.2601 9.86923 19.4801L11.3892 21.0001C11.7163 21.3272 12.2615 21.3272 12.5886 21.0001L14.1086 19.4801C14.3285 19.2601 14.6143 19.0949 14.8792 18.9851C15.1436 18.8755 15.461 18.7904 15.7689 18.7904H17.9189C18.3846 18.7904 18.7689 18.4062 18.7689 17.9403V15.7904C18.7689 15.4826 18.8539 15.1651 18.9636 14.9007C19.0734 14.6358 19.2386 14.3501 19.4586 14.1301L20.9786 12.6101C21.3057 12.283 21.3057 11.7378 20.9786 11.4107L19.4586 9.89072C19.2386 9.67076 19.0734 9.38498 18.9636 9.12014C18.8539 8.85572 18.7689 8.53824 18.7689 8.23038V6.08036C18.7689 5.61457 18.3847 5.23038 17.9189 5.23038H15.7689C15.461 5.23038 15.1436 5.14534 14.8792 5.03571C14.6143 4.92591 14.3285 4.7607 14.1086 4.54074L12.5886 3.02072ZM10.3286 1.96006C11.2415 1.04717 12.7363 1.04717 13.6492 1.96006L15.1692 3.48008C15.2093 3.52012 15.3085 3.5899 15.4537 3.65008C15.5992 3.71044 15.7167 3.73038 15.7689 3.73038H17.9189C19.2131 3.73038 20.2689 4.78614 20.2689 6.08036V8.23038C20.2689 8.28252 20.2888 8.40004 20.3492 8.54562C20.4094 8.69079 20.4792 8.79001 20.5192 8.83006L22.0392 10.3501C22.9521 11.263 22.9521 12.7579 22.0392 13.6707L20.5192 15.1908C20.4792 15.2308 20.4094 15.33 20.3492 15.4752C20.2888 15.6208 20.2689 15.7383 20.2689 15.7904V17.9403C20.2689 19.2345 19.2132 20.2904 17.9189 20.2904H15.7689C15.7167 20.2904 15.5992 20.3104 15.4537 20.3707C15.3085 20.4309 15.2093 20.5007 15.1692 20.5407L13.6492 22.0608C12.7363 22.9737 11.2415 22.9737 10.3286 22.0608L8.80857 20.5407C8.76854 20.5007 8.66933 20.4309 8.52416 20.3707C8.37858 20.3104 8.26105 20.2904 8.20889 20.2904H6.0589C4.76463 20.2904 3.70889 19.2345 3.70889 17.9403V15.7904C3.70889 15.731 3.68776 15.6104 3.62859 15.4677C3.56873 15.3233 3.50149 15.2322 3.46906 15.2011L3.45856 15.1908L1.93857 13.6707C1.93857 13.6707 1.93858 13.6707 1.93857 13.6707C1.02569 12.7579 1.02568 11.263 1.93857 10.3501C1.93857 10.3501 1.93857 10.3501 1.93857 10.3501L3.45856 8.83006C3.4986 8.79002 3.56839 8.69079 3.62859 8.54562C3.68895 8.40004 3.70889 8.28252 3.70889 8.23038V6.08036C3.70889 4.78612 4.76471 3.73038 6.0589 3.73038H8.20889C8.26105 3.73038 8.37858 3.71043 8.52416 3.65008C8.66932 3.5899 8.76853 3.52012 8.80856 3.48009C8.80856 3.48009 8.80857 3.48008 8.80856 3.48009L10.3286 1.96006Z" fill="#292D32"/>
<path fill-rule="evenodd" clip-rule="evenodd" d="M15.5303 8.46967C15.8232 8.76256 15.8232 9.23744 15.5303 9.53033L9.53033 15.5303C9.23744 15.8232 8.76256 15.8232 8.46967 15.5303C8.17678 15.2374 8.17678 14.7626 8.46967 14.4697L14.4697 8.46967C14.7626 8.17678 15.2374 8.17678 15.5303 8.46967Z" fill="#292D32"/>
<path fill-rule="evenodd" clip-rule="evenodd" d="M13.4944 14.5C13.4944 13.9477 13.9421 13.5 14.4944 13.5H14.5034C15.0557 13.5 15.5034 13.9477 15.5034 14.5C15.5034 15.0523 15.0557 15.5 14.5034 15.5H14.4944C13.9421 15.5 13.4944 15.0523 13.4944 14.5Z" fill="#292D32"/>
<path fill-rule="evenodd" clip-rule="evenodd" d="M8.49438 9.5C8.49438 8.94772 8.9421 8.5 9.49438 8.5H9.50337C10.0557 8.5 10.5034 8.94772 10.5034 9.5C10.5034 10.0523 10.0557 10.5 9.50337 10.5H9.49438C8.9421 10.5 8.49438 10.0523 8.49438 9.5Z" fill="#292D32"/>
</svg>
