<svg width="24" height="24" viewBox="0 0 24 24" fill="none" xmlns="http://www.w3.org/2000/svg">
<path fill-rule="evenodd" clip-rule="evenodd" d="M5.53965 2.64463C6.16306 2.18848 6.94027 1.8999 7.72003 1.8999H11.52C11.8925 1.8999 12.3368 1.96038 12.7511 2.07876C13.1318 2.18755 13.5811 2.37144 13.9114 2.68184L16.9792 5.05686L16.0609 6.24295L12.9233 3.81385L12.8897 3.78023C12.8231 3.71359 12.643 3.60792 12.339 3.52105C12.0533 3.43942 11.7476 3.3999 11.52 3.3999H7.72003C7.2998 3.3999 6.82701 3.56133 6.42542 3.85518C6.02436 4.14863 5.7469 4.53477 5.64764 4.9318L5.64103 4.95825L3.22954 12.2932L3.22634 12.3022C3.05036 12.7949 3.13847 13.1785 3.32382 13.43C3.5127 13.6863 3.87295 13.8999 4.42003 13.8999H8.42003C9.46338 13.8999 10.3289 14.7913 10.1625 15.956L10.1611 15.9657L9.65735 19.1893L9.65217 19.2126C9.5415 19.7106 9.89517 20.351 10.4572 20.5384L10.4704 20.5428L10.4834 20.5477C10.6863 20.6238 10.9531 20.622 11.2262 20.5281C11.5044 20.4325 11.7051 20.2702 11.796 20.1339L11.7976 20.1315L15.8976 14.0315L17.1425 14.8683L13.0441 20.9659C13.0438 20.9663 13.0435 20.9668 13.0432 20.9672C12.7341 21.4302 12.2352 21.7675 11.7138 21.9467C11.1908 22.1265 10.563 22.1753 9.96979 21.957C8.74702 21.5419 7.91062 20.2023 8.18236 18.9128L8.67811 15.7399C8.697 15.6011 8.65622 15.5245 8.62015 15.4836C8.57832 15.4362 8.50988 15.3999 8.42003 15.3999H4.42003C3.46712 15.3999 2.62736 15.0135 2.11624 14.3198C1.60339 13.6238 1.49049 12.7113 1.81034 11.8072L4.19966 4.53968C4.40549 3.74942 4.92306 3.0958 5.53965 2.64463Z" fill="#292D32"/>
<path fill-rule="evenodd" clip-rule="evenodd" d="M17.6038 4.7261C17.5051 4.81722 17.3701 5.03451 17.3701 5.65V15.45C17.3701 16.0655 17.5051 16.2828 17.6038 16.3739C17.7173 16.4786 17.9776 16.6 18.6201 16.6H19.6201C20.2626 16.6 20.523 16.4786 20.6364 16.3739C20.7351 16.2828 20.8701 16.0655 20.8701 15.45V5.65C20.8701 5.03451 20.7351 4.81722 20.6364 4.7261C20.523 4.62138 20.2626 4.5 19.6201 4.5H18.6201C17.9776 4.5 17.7173 4.62138 17.6038 4.7261ZM16.5864 3.6239C17.123 3.12862 17.8626 3 18.6201 3H19.6201C20.3776 3 21.1173 3.12862 21.6538 3.6239C22.2051 4.13278 22.3701 4.86549 22.3701 5.65V15.45C22.3701 16.2345 22.2051 16.9672 21.6538 17.4761C21.1173 17.9714 20.3776 18.1 19.6201 18.1H18.6201C17.8626 18.1 17.123 17.9714 16.5864 17.4761C16.0351 16.9672 15.8701 16.2345 15.8701 15.45V5.65C15.8701 4.86549 16.0351 4.13278 16.5864 3.6239Z" fill="#292D32"/>
</svg>
