<svg width="24" height="24" viewBox="0 0 24 24" fill="none" xmlns="http://www.w3.org/2000/svg">
<path fill-rule="evenodd" clip-rule="evenodd" d="M3.09467 3.09467C4.42914 1.7602 6.42603 1.25 9 1.25H11C11.4142 1.25 11.75 1.58579 11.75 2C11.75 2.41421 11.4142 2.75 11 2.75H9C6.57397 2.75 5.07086 3.2398 4.15533 4.15533C3.2398 5.07086 2.75 6.57397 2.75 9V15C2.75 17.426 3.2398 18.9291 4.15533 19.8447C5.07086 20.7602 6.57397 21.25 9 21.25H15C17.426 21.25 18.9291 20.7602 19.8447 19.8447C20.7602 18.9291 21.25 17.426 21.25 15V13C21.25 12.5858 21.5858 12.25 22 12.25C22.4142 12.25 22.75 12.5858 22.75 13V15C22.75 17.574 22.2398 19.5709 20.9053 20.9053C19.5709 22.2398 17.574 22.75 15 22.75H9C6.42603 22.75 4.42914 22.2398 3.09467 20.9053C1.7602 19.5709 1.25 17.574 1.25 15V9C1.25 6.42603 1.7602 4.42914 3.09467 3.09467Z" fill="#292D32"/>
<path fill-rule="evenodd" clip-rule="evenodd" d="M18.1969 1.0135C19.3103 0.904216 20.4141 1.39315 21.5105 2.48958C22.607 3.58602 23.0959 4.68983 22.9866 5.80318C22.8812 6.87719 22.2335 7.76732 21.5105 8.49024L13.6218 16.3789C13.3966 16.5969 13.1023 16.7873 12.8183 16.93C12.5359 17.0719 12.2033 17.1971 11.8863 17.2424L8.87244 17.6729C8.13036 17.775 7.42033 17.5724 6.92219 17.0763C6.42298 16.5791 6.21878 15.8689 6.32793 15.1225C6.328 15.122 6.32807 15.1215 6.32815 15.121L6.75739 12.1163C6.75745 12.1158 6.75752 12.1154 6.75758 12.1149C6.80262 11.7937 6.92714 11.4587 7.07008 11.1744C7.21332 10.8894 7.40618 10.5933 7.62986 10.3696L15.5099 2.48958C16.2328 1.76666 17.1229 1.11893 18.1969 1.0135ZM18.3435 2.50633C17.7875 2.5609 17.2076 2.91317 16.5705 3.55024L8.69053 11.4302C8.61421 11.5066 8.50707 11.6555 8.41031 11.848C8.31345 12.0407 8.25812 12.2152 8.243 12.3236L8.24266 12.326L7.81266 15.336L7.81224 15.3388C7.76188 15.6819 7.86275 15.896 7.9807 16.0135C8.09985 16.1322 8.31928 16.2344 8.66616 16.1872C8.66676 16.1871 8.66735 16.187 8.66795 16.1869L11.6741 15.7575C11.7771 15.7427 11.9495 15.6879 12.1446 15.5898C12.3354 15.4939 12.4894 15.3861 12.575 15.3045L20.4499 7.42958C21.0869 6.79251 21.4392 6.21264 21.4938 5.65665C21.5445 5.14 21.3534 4.45381 20.4499 3.55024C19.5463 2.64668 18.8601 2.45561 18.3435 2.50633Z" fill="#292D32"/>
<path fill-rule="evenodd" clip-rule="evenodd" d="M14.7074 3.42793C15.1063 3.31613 15.5202 3.54881 15.632 3.94765C16.2311 6.08476 17.9039 7.75922 20.0543 8.3685C20.4528 8.48141 20.6844 8.89602 20.5715 9.29455C20.4585 9.69307 20.0439 9.9246 19.6454 9.81169C16.9958 9.06096 14.9286 6.99542 14.1877 4.35254C14.0759 3.9537 14.3086 3.53974 14.7074 3.42793Z" fill="#292D32"/>
</svg>
