<svg width="20" height="22" viewBox="0 0 20 22" fill="none" xmlns="http://www.w3.org/2000/svg">
<path fill-rule="evenodd" clip-rule="evenodd" d="M13.2676 0.0266131C14.4343 -0.122583 15.6147 0.354533 16.8142 1.48308L16.8155 1.48439C18.019 2.62248 18.5668 3.77697 18.4846 4.95285C18.4052 6.0891 17.7465 7.05081 16.9954 7.84437M16.9954 7.84437L8.78946 16.5301C8.55813 16.782 8.24664 16.9953 7.95134 17.1532C7.65225 17.3131 7.30628 17.45 6.98149 17.5077L6.9765 17.5086L3.75765 18.0584C2.97708 18.193 2.22858 17.9979 1.69538 17.4923C1.16293 16.9873 0.927641 16.251 1.0148 15.4665L1.01506 15.4642L1.38666 12.2102C1.42982 11.8865 1.55004 11.5362 1.69175 11.2323C1.83295 10.9295 2.0256 10.6085 2.25358 10.3658L2.25504 10.3642L10.465 1.67425C11.2166 0.880371 12.1401 0.170786 13.2676 0.0266131M11.5549 2.70491C11.5547 2.70505 11.555 2.70478 11.5549 2.70491L3.34685 11.3928C3.34668 11.393 3.34702 11.3926 3.34685 11.3928C3.26488 11.4803 3.15228 11.6495 3.05119 11.8663C2.95193 12.0791 2.89231 12.2761 2.87444 12.4026L2.50563 15.6321C2.50559 15.6325 2.50555 15.6328 2.50552 15.6332C2.46301 16.0181 2.58264 16.2664 2.72755 16.4039C2.87185 16.5407 3.12335 16.6456 3.50279 16.5802L3.50394 16.58L6.72105 16.0305C6.84632 16.0079 7.03934 15.9399 7.2441 15.8304C7.45168 15.7194 7.60783 15.5997 7.686 15.514L7.69496 15.5042L15.905 6.81425C16.5737 6.1079 16.9452 5.46425 16.9883 4.84826C17.0286 4.2718 16.7916 3.52654 15.7857 2.575C14.7854 1.63401 14.031 1.44121 13.4578 1.5145C12.8454 1.59281 12.2232 1.99903 11.5549 2.70491Z" fill="#292D32"/>
<path fill-rule="evenodd" clip-rule="evenodd" d="M9.5243 2.89821C9.93358 2.83444 10.3171 3.11454 10.3808 3.52381C10.7579 5.94443 12.7225 7.79704 15.1649 8.04304C15.577 8.08455 15.8775 8.4523 15.836 8.86443C15.7945 9.27655 15.4267 9.577 15.0146 9.53549C11.897 9.22149 9.38157 6.8541 8.8987 3.75472C8.83493 3.34545 9.11502 2.96197 9.5243 2.89821Z" fill="#292D32"/>
<path fill-rule="evenodd" clip-rule="evenodd" d="M0 20.5894C0 20.1751 0.335786 19.8394 0.75 19.8394H18.75C19.1642 19.8394 19.5 20.1751 19.5 20.5894C19.5 21.0036 19.1642 21.3394 18.75 21.3394H0.75C0.335786 21.3394 0 21.0036 0 20.5894Z" fill="#292D32"/>
</svg>
