<svg width="24" height="24" viewBox="0 0 24 24" fill="none" xmlns="http://www.w3.org/2000/svg">
<path fill-rule="evenodd" clip-rule="evenodd" d="M11.9999 9.16992C10.4341 9.16992 9.16992 10.4341 9.16992 11.9999C9.16992 12.5103 9.30385 12.9864 9.54021 13.399L13.399 9.54021C12.9864 9.30385 12.5103 9.16992 11.9999 9.16992ZM7.66992 11.9999C7.66992 9.60571 9.60571 7.66992 11.9999 7.66992C13.1977 7.66992 14.276 8.15536 15.0603 8.93959C15.3531 9.23249 15.3531 9.70736 15.0603 10.0003L10.0003 15.0603C9.70736 15.3531 9.23249 15.3531 8.93959 15.0603C8.15536 14.276 7.66992 13.1977 7.66992 11.9999Z" fill="#292D32"/>
<path fill-rule="evenodd" clip-rule="evenodd" d="M2.25734 9.00695C4.64826 5.24858 8.15186 2.97998 11.9998 2.97998C14.2495 2.97998 16.4053 3.76359 18.2715 5.17121C18.6022 5.42065 18.668 5.89093 18.4186 6.22162C18.1692 6.55231 17.6989 6.61818 17.3682 6.36875C15.7344 5.13637 13.8902 4.47998 11.9998 4.47998C8.78799 4.47998 5.71174 6.37118 3.52266 9.81252L3.52204 9.81351C3.16745 10.369 2.96484 11.1642 2.96484 12.005C2.96484 12.8457 3.16745 13.6409 3.52204 14.1965L3.52238 14.197C4.27615 15.3801 5.14895 16.393 6.08887 17.2013C6.40292 17.4714 6.43857 17.945 6.16848 18.259C5.8984 18.5731 5.42486 18.6087 5.11081 18.3386C4.05073 17.427 3.08354 16.2998 2.25731 15.003C1.71213 14.1486 1.46484 13.054 1.46484 12.005C1.46484 10.9559 1.71214 9.86136 2.25734 9.00695Z" fill="#292D32"/>
<path fill-rule="evenodd" clip-rule="evenodd" d="M19.58 7.34579C19.9028 7.08618 20.3749 7.13737 20.6345 7.46013C21.0184 7.9374 21.3955 8.45025 21.7434 8.99833C22.288 9.85257 22.5351 10.9466 22.5351 11.9952C22.5351 13.0442 22.2878 14.1388 21.7426 14.9932C19.3517 18.7516 15.8481 21.0202 12.0001 21.0202C10.6636 21.0202 9.35494 20.7376 8.12907 20.2214C7.74732 20.0607 7.56815 19.6209 7.72889 19.2392C7.88963 18.8574 8.32941 18.6782 8.71116 18.839C9.76529 19.2828 10.8767 19.5202 12.0001 19.5202C15.212 19.5202 18.2882 17.629 20.4773 14.1877L20.4779 14.1867C20.8325 13.6312 21.0351 12.836 21.0351 11.9952C21.0351 11.1544 20.8325 10.3592 20.4779 9.80373L20.4769 9.80207C20.1647 9.31015 19.8218 8.843 19.4657 8.40027C19.2061 8.07751 19.2573 7.6054 19.58 7.34579Z" fill="#292D32"/>
<path fill-rule="evenodd" clip-rule="evenodd" d="M15.6461 11.9623C16.0534 12.0374 16.3228 12.4285 16.2476 12.8358C15.9312 14.5517 14.5419 15.941 12.8261 16.2574C12.4187 16.3325 12.0276 16.0632 11.9525 15.6558C11.8774 15.2485 12.1467 14.8574 12.5541 14.7823C13.6582 14.5787 14.5689 13.668 14.7725 12.5638C14.8476 12.1565 15.2387 11.8872 15.6461 11.9623Z" fill="#292D32"/>
<path fill-rule="evenodd" clip-rule="evenodd" d="M10.0003 13.9995C10.2932 14.2923 10.2932 14.7672 10.0003 15.0601L2.53033 22.5301C2.23744 22.823 1.76256 22.823 1.46967 22.5301C1.17678 22.2372 1.17678 21.7623 1.46967 21.4695L8.93967 13.9995C9.23256 13.7066 9.70744 13.7066 10.0003 13.9995Z" fill="#292D32"/>
<path fill-rule="evenodd" clip-rule="evenodd" d="M22.5301 1.46967C22.823 1.76256 22.823 2.23744 22.5301 2.53033L15.0601 10.0003C14.7672 10.2932 14.2923 10.2932 13.9995 10.0003C13.7066 9.70744 13.7066 9.23256 13.9995 8.93967L21.4695 1.46967C21.7623 1.17678 22.2372 1.17678 22.5301 1.46967Z" fill="#292D32"/>
</svg>
