<svg width="24" height="24" viewBox="0 0 24 24" fill="none" xmlns="http://www.w3.org/2000/svg">
<path fill-rule="evenodd" clip-rule="evenodd" d="M5.3999 2.6001C4.59189 2.6001 3.8999 3.26013 3.8999 4.2001V6.5001C3.8999 6.70461 3.97263 7.00732 4.11866 7.33307C4.26275 7.6545 4.4564 7.94948 4.65346 8.14654L4.66252 8.15561L8.4624 12.1557C8.47216 12.166 8.48148 12.1767 8.49034 12.1877C8.72609 12.4824 8.94917 12.877 9.11414 13.2894C9.27804 13.6991 9.3999 14.1647 9.3999 14.6001V19.9001C9.3999 21.0779 10.742 21.7831 11.7339 21.1767L13.1295 20.2795L13.1427 20.2714C13.2867 20.1849 13.4568 19.9954 13.5938 19.7319C13.7292 19.4715 13.7999 19.2006 13.7999 19.0001V14.7001C13.7999 14.2232 13.9175 13.7069 14.1146 13.2423C14.3098 12.7824 14.5988 12.3356 14.9739 12.0209L19.2565 8.23632C19.4523 8.03708 19.6665 7.72037 19.8322 7.3557C20.0015 6.98338 20.0999 6.60575 20.0999 6.3001V4.1001C20.0999 3.27624 19.4238 2.6001 18.5999 2.6001H5.3999ZM2.8999 4.2001C2.8999 2.74007 4.00792 1.6001 5.3999 1.6001H18.5999C19.976 1.6001 21.0999 2.72396 21.0999 4.1001V6.3001C21.0999 6.79444 20.9484 7.31682 20.7426 7.7695C20.5362 8.22353 20.2549 8.65218 19.9535 8.95365C19.9462 8.96092 19.9387 8.96796 19.931 8.97476L15.631 12.7748L15.62 12.7842C15.3979 12.9692 15.189 13.2703 15.0352 13.6329C14.8823 13.9933 14.7999 14.377 14.7999 14.7001V19.0001C14.7999 19.3996 14.6706 19.8287 14.481 20.1933C14.2943 20.5523 14.0169 20.9104 13.6644 21.1245L12.262 22.026C10.6543 23.0154 8.3999 21.9208 8.3999 19.9001V14.6001C8.3999 14.3355 8.32177 14.0011 8.18566 13.6608C8.05405 13.3317 7.88263 13.0332 7.72194 12.8282L3.94158 8.84887C3.64072 8.54646 3.38611 8.14358 3.20615 7.74213C3.02717 7.34287 2.8999 6.89559 2.8999 6.5001V4.2001Z" fill="#292D32"/>
<path fill-rule="evenodd" clip-rule="evenodd" d="M11.1948 1.67598C11.429 1.82218 11.5004 2.13061 11.3542 2.36487L6.42425 10.2649C6.27805 10.4991 5.96963 10.5705 5.73536 10.4243C5.50109 10.2782 5.42969 9.96972 5.57589 9.73546L10.5059 1.83546C10.6521 1.60119 10.9605 1.52979 11.1948 1.67598Z" fill="#292D32"/>
</svg>
