<svg width="24" height="24" viewBox="0 0 24 24" fill="none" xmlns="http://www.w3.org/2000/svg">
<path fill-rule="evenodd" clip-rule="evenodd" d="M5.33006 2.50977C4.51188 2.50977 3.81006 3.17996 3.81006 4.12976V6.44977C3.81006 6.66002 3.88323 6.96544 4.03 7.29258C4.1749 7.61555 4.3709 7.91346 4.57361 8.11617L4.58259 8.12515L8.42247 12.1653C8.43088 12.1741 8.43896 12.1833 8.44669 12.1927C8.69019 12.4897 8.91676 12.8889 9.08315 13.3056C9.24872 13.7202 9.37006 14.1903 9.37006 14.6298V19.9797C9.37006 21.1792 10.7332 21.8913 11.7333 21.2769L13.1389 20.3696C13.3709 20.2199 13.6804 20.2866 13.8302 20.5186C13.9799 20.7506 13.9132 21.0601 13.6812 21.2098L12.2631 22.1251C10.6435 23.1265 8.37006 22.0188 8.37006 19.9797V14.6298C8.37006 14.3592 8.2914 14.0194 8.15447 13.6764C8.02132 13.343 7.84766 13.0432 7.68429 12.8402L3.8618 8.81856C3.55657 8.51183 3.29929 8.10684 3.11762 7.70191C2.93688 7.29907 2.81006 6.84952 2.81006 6.44977V4.12976C2.81006 2.65957 3.92823 1.50977 5.33006 1.50977H18.6701C20.0562 1.50977 21.1901 2.64365 21.1901 4.02979V6.24976C21.1901 6.74976 21.0356 7.27747 20.8274 7.73363C20.6186 8.19116 20.3349 8.62205 20.0336 8.92332C19.8384 9.11858 19.5218 9.11858 19.3265 8.92332C19.1312 8.72805 19.1312 8.41147 19.3265 8.21621C19.5252 8.01748 19.7465 7.69336 19.9177 7.31839C20.0895 6.94204 20.1901 6.55975 20.1901 6.24976V4.02979C20.1901 3.19592 19.5039 2.50977 18.6701 2.50977H5.33006Z" fill="#292D32"/>
<path fill-rule="evenodd" clip-rule="evenodd" d="M16.8799 10.5C14.536 10.5 12.6299 12.4061 12.6299 14.75C12.6299 15.5469 12.8539 16.3057 13.2449 16.9366L13.249 16.9432L13.2489 16.9432C13.9825 18.1688 15.3331 19 16.8799 19C18.4283 19 19.7775 18.1775 20.51 16.9446L20.5132 16.9393L20.5132 16.9393C20.9067 16.2954 21.1299 15.5452 21.1299 14.75C21.1299 12.4061 19.2237 10.5 16.8799 10.5ZM11.6299 14.75C11.6299 11.8539 13.9837 9.5 16.8799 9.5C19.776 9.5 22.1299 11.8539 22.1299 14.75C22.1299 15.7337 21.8537 16.6625 21.3682 17.458C20.4604 18.9837 18.7904 20 16.8799 20C14.968 20 13.2997 18.9727 12.3928 17.4601C11.9051 16.6717 11.6299 15.7318 11.6299 14.75Z" fill="#292D32"/>
<path fill-rule="evenodd" clip-rule="evenodd" d="M15.2866 13.1264C15.4818 12.9312 15.7984 12.9312 15.9937 13.1264L18.5037 15.6364C18.699 15.8317 18.699 16.1483 18.5037 16.3435C18.3084 16.5388 17.9918 16.5388 17.7966 16.3435L15.2866 13.8335C15.0913 13.6383 15.0913 13.3217 15.2866 13.1264Z" fill="#292D32"/>
<path fill-rule="evenodd" clip-rule="evenodd" d="M18.4837 13.1562C18.6789 13.3515 18.6789 13.6681 18.4837 13.8633L15.9737 16.3733C15.7784 16.5686 15.4618 16.5686 15.2666 16.3733C15.0713 16.1781 15.0713 15.8615 15.2666 15.6662L17.7766 13.1562C17.9718 12.961 18.2884 12.9609 18.4837 13.1562Z" fill="#292D32"/>
<path fill-rule="evenodd" clip-rule="evenodd" d="M5.33006 2.5C4.51188 2.5 3.81006 3.17019 3.81006 4.12V6.45001C3.81006 6.6528 3.88426 6.95725 4.03343 7.28836C4.1803 7.61435 4.37747 7.91632 4.57709 8.11994L4.58251 8.12546L8.42247 12.1655C8.43226 12.1758 8.44161 12.1866 8.45049 12.1977C8.68588 12.4919 8.91138 12.8885 9.07887 13.3045C9.24524 13.7177 9.37006 14.1887 9.37006 14.63V19.98C9.37006 21.1794 10.7332 21.8915 11.7333 21.2771L13.1389 20.3699C13.1447 20.3661 13.1506 20.3625 13.1565 20.359C13.3027 20.273 13.4743 20.0829 13.6123 19.8163C13.7485 19.5532 13.8201 19.277 13.8201 19.07V19C13.236 18.5924 12.753 18.0627 12.392 17.4585C11.9064 16.6629 11.6301 15.7338 11.6301 14.75C11.6301 11.8539 13.9839 9.5 16.8801 9.5C17.1852 9.5 17.4861 9.52605 17.7778 9.57903L19.335 8.20765C19.5329 8.00185 19.7496 7.67921 19.9175 7.31039C20.0895 6.93235 20.1901 6.54996 20.1901 6.23999V4.02002C20.1901 3.18616 19.5039 2.5 18.6701 2.5H5.33006ZM2.81006 4.12C2.81006 2.6498 3.92823 1.5 5.33006 1.5H18.6701C20.0562 1.5 21.1901 2.63388 21.1901 4.02002V6.23999C21.1901 6.74002 21.0356 7.26763 20.8277 7.7246C20.6189 8.18335 20.336 8.61516 20.0371 8.92004C20.0285 8.92876 20.0197 8.93717 20.0105 8.94524L18.2505 10.4952C18.1281 10.603 17.9608 10.6444 17.8023 10.6059C17.5136 10.5359 17.2033 10.5 16.8801 10.5C14.5362 10.5 12.6301 12.4061 12.6301 14.75C12.6301 15.5452 12.8532 16.2954 13.2467 16.9393L13.2494 16.9438C13.5803 17.4981 14.034 17.9682 14.5813 18.3037C14.7297 18.3946 14.8201 18.556 14.8201 18.73V19.07C14.8201 19.473 14.6916 19.9068 14.5003 20.2761C14.3125 20.6388 14.0324 21.0004 13.6733 21.2152L12.2631 22.1254C10.6435 23.1268 8.37006 22.019 8.37006 19.98V14.63C8.37006 14.3613 8.28987 14.0223 8.15124 13.678C8.01722 13.3451 7.84328 13.0437 7.68214 12.8382L3.86018 8.8171C3.56102 8.51105 3.30424 8.10433 3.12169 7.69912C2.94086 7.29775 2.81006 6.84723 2.81006 6.45001V4.12Z" fill="#292D32"/>
</svg>
