<svg width="24" height="24" viewBox="0 0 24 24" fill="none" xmlns="http://www.w3.org/2000/svg">
<path fill-rule="evenodd" clip-rule="evenodd" d="M16.8799 10.5C14.536 10.5 12.6299 12.4061 12.6299 14.75C12.6299 15.5452 12.853 16.2954 13.2465 16.9393L13.2493 16.9438L13.2492 16.9438C13.5801 17.4981 14.0338 17.9682 14.5812 18.3037C14.5861 18.3068 14.5911 18.3099 14.5959 18.3131C15.2563 18.7504 16.0407 19 16.8799 19C18.4372 19 19.7876 18.1683 20.5209 16.9432L20.5232 16.9393L20.5232 16.9393C20.9147 16.2987 21.1299 15.5491 21.1299 14.75C21.1299 12.7281 19.7164 11.0284 17.8121 10.6082L17.802 10.606L17.8021 10.6059C17.5134 10.5359 17.2031 10.5 16.8799 10.5ZM11.6299 14.75C11.6299 11.8539 13.9837 9.5 16.8799 9.5C17.2748 9.5 17.6628 9.54365 18.0326 9.63285C20.3858 10.1545 22.1299 12.2537 22.1299 14.75C22.1299 15.7301 21.8655 16.6597 21.3778 17.4587C20.4708 18.9726 18.8017 20 16.8799 20C15.8422 20 14.8693 19.6915 14.0511 19.1517C13.3626 18.728 12.7995 18.1407 12.3919 17.4585C11.9062 16.6629 11.6299 15.7338 11.6299 14.75Z" fill="#292D32"/>
<path fill-rule="evenodd" clip-rule="evenodd" d="M19.0973 13.2406C19.2848 13.4433 19.2725 13.7596 19.0697 13.9471L16.5398 16.2872C16.3426 16.4695 16.0366 16.4636 15.8467 16.2737L14.6767 15.1036C14.4815 14.9084 14.4815 14.5918 14.6767 14.3965C14.872 14.2013 15.1886 14.2013 15.3838 14.3965L16.2138 15.2265L18.3907 13.213C18.5934 13.0255 18.9098 13.0379 19.0973 13.2406Z" fill="#292D32"/>
<path fill-rule="evenodd" clip-rule="evenodd" d="M5.33008 2.5C4.5119 2.5 3.81006 3.1702 3.81006 4.12V6.45001C3.81006 6.65281 3.88426 6.95727 4.03342 7.28839C4.18028 7.61438 4.37745 7.91635 4.57707 8.11997L4.58248 8.12549L8.42247 12.1655C8.43226 12.1758 8.44161 12.1866 8.45049 12.1977C8.68588 12.4919 8.91138 12.8885 9.07887 13.3045C9.24524 13.7177 9.37006 14.1887 9.37006 14.63V19.98C9.37006 21.1794 10.7332 21.8915 11.7333 21.2771L13.1389 20.3699C13.1447 20.3662 13.1506 20.3625 13.1565 20.359C13.3027 20.273 13.4742 20.0829 13.6123 19.8163C13.7486 19.5532 13.8201 19.277 13.8201 19.07V19C13.236 18.5924 12.753 18.0627 12.392 17.4585C11.9064 16.6629 11.6301 15.7338 11.6301 14.75C11.6301 11.8539 13.9839 9.5 16.8801 9.5C17.1852 9.5 17.4861 9.52605 17.7778 9.57903L19.335 8.20764C19.5329 8.00184 19.7496 7.6792 19.9175 7.31039C20.0895 6.93235 20.1901 6.54996 20.1901 6.23999V4.01999C20.1901 3.18614 19.5039 2.5 18.67 2.5H5.33008ZM2.81006 4.12C2.81006 2.64979 3.92826 1.5 5.33008 1.5H18.67C20.0562 1.5 21.1901 2.63384 21.1901 4.01999V6.23999C21.1901 6.74002 21.0356 7.26764 20.8276 7.72461C20.6189 8.18335 20.336 8.61516 20.0371 8.92004C20.0285 8.92876 20.0197 8.93717 20.0105 8.94524L18.2505 10.4952C18.1281 10.603 17.9608 10.6444 17.8022 10.6059C17.5136 10.5359 17.2033 10.5 16.8801 10.5C14.5362 10.5 12.6301 12.4061 12.6301 14.75C12.6301 15.5452 12.8532 16.2954 13.2467 16.9393L13.2494 16.9438C13.5803 17.4981 14.034 17.9682 14.5813 18.3037C14.7297 18.3946 14.8201 18.5561 14.8201 18.73V19.07C14.8201 19.473 14.6916 19.9068 14.5003 20.2762C14.3125 20.6388 14.0324 21.0005 13.6733 21.2152L12.2631 22.1254C10.6435 23.1268 8.37006 22.019 8.37006 19.98V14.63C8.37006 14.3613 8.28987 14.0223 8.15124 13.678C8.01722 13.3451 7.84328 13.0437 7.68214 12.8382L3.86015 8.81713C3.56098 8.51107 3.30422 8.10434 3.12167 7.69913C2.94085 7.29775 2.81006 6.84722 2.81006 6.45001V4.12Z" fill="#292D32"/>
</svg>
