<svg width="24" height="24" viewBox="0 0 24 24" fill="none" xmlns="http://www.w3.org/2000/svg">
<path fill-rule="evenodd" clip-rule="evenodd" d="M12 2.5C6.75329 2.5 2.5 6.75329 2.5 12C2.5 17.2467 6.75329 21.5 12 21.5C17.2467 21.5 21.5 17.2467 21.5 12C21.5 6.75329 17.2467 2.5 12 2.5ZM1.5 12C1.5 6.20101 6.20101 1.5 12 1.5C17.799 1.5 22.5 6.20101 22.5 12C22.5 17.799 17.799 22.5 12 22.5C6.20101 22.5 1.5 17.799 1.5 12Z" fill="#292D32"/>
<path fill-rule="evenodd" clip-rule="evenodd" d="M11.6469 9.38618C11.8421 9.19159 12.1579 9.19159 12.353 9.38618L15.883 12.9062C16.0786 13.1012 16.079 13.4177 15.884 13.6133C15.689 13.8088 15.3725 13.8093 15.1769 13.6143L12 10.4463L8.82302 13.6143C8.62748 13.8093 8.3109 13.8088 8.11592 13.6133C7.92093 13.4177 7.92138 13.1012 8.11692 12.9062L11.6469 9.38618Z" fill="#292D32"/>
</svg>
