<svg width="24" height="24" viewBox="0 0 24 24" fill="none" xmlns="http://www.w3.org/2000/svg">
<path fill-rule="evenodd" clip-rule="evenodd" d="M15.9418 8.85703C15.9655 8.58191 16.2078 8.37808 16.4829 8.40178C18.3575 8.5632 19.7783 9.13516 20.7132 10.2874C21.637 11.4258 22.01 13.0391 22.01 15.1099V15.2399C22.01 17.5244 21.5556 19.2539 20.4098 20.3997C19.2639 21.5456 17.5344 21.9999 15.25 21.9999H8.73998C6.45553 21.9999 4.72601 21.5456 3.58018 20.3997C2.43434 19.2539 1.97998 17.5244 1.97998 15.2399V15.1099C1.97998 13.0543 2.34795 11.4502 3.25705 10.3138C4.1777 9.16301 5.57727 8.5842 7.42357 8.41209C7.69852 8.38646 7.94219 8.58857 7.96782 8.86352C7.99345 9.13847 7.79134 9.38214 7.51639 9.40777C5.82269 9.56566 4.72726 10.0768 4.03791 10.9385C3.33701 11.8147 2.97998 13.1456 2.97998 15.1099V15.2399C2.97998 17.4255 3.42062 18.826 4.28728 19.6926C5.15395 20.5593 6.55443 20.9999 8.73998 20.9999H15.25C17.4355 20.9999 18.836 20.5593 19.7027 19.6926C20.5693 18.826 21.01 17.4255 21.01 15.2399V15.1099C21.01 13.1307 20.648 11.794 19.9367 10.9175C19.2367 10.0547 18.1224 9.54666 16.3971 9.39809C16.122 9.3744 15.9181 9.13216 15.9418 8.85703Z" fill="#292D32"/>
<path fill-rule="evenodd" clip-rule="evenodd" d="M12 1.5C12.2761 1.5 12.5 1.72386 12.5 2V14.88C12.5 15.1561 12.2761 15.38 12 15.38C11.7239 15.38 11.5 15.1561 11.5 14.88V2C11.5 1.72386 11.7239 1.5 12 1.5Z" fill="#292D32"/>
<path fill-rule="evenodd" clip-rule="evenodd" d="M8.29635 12.2963C8.49161 12.1011 8.80819 12.1011 9.00346 12.2963L11.9999 15.2928L14.9963 12.2963C15.1916 12.1011 15.5082 12.1011 15.7035 12.2963C15.8987 12.4916 15.8987 12.8082 15.7035 13.0035L12.3535 16.3535C12.1582 16.5487 11.8416 16.5487 11.6463 16.3535L8.29635 13.0035C8.10109 12.8082 8.10109 12.4916 8.29635 12.2963Z" fill="#292D32"/>
</svg>
