<svg width="24" height="24" viewBox="0 0 24 24" fill="none" xmlns="http://www.w3.org/2000/svg">
<path fill-rule="evenodd" clip-rule="evenodd" d="M2.56982 5.86C2.56982 3.32705 4.63435 1.25 7.17982 1.25H16.8198C19.366 1.25 21.4279 3.32697 21.4398 5.85646L21.4398 5.86L21.4398 19.95C21.4398 21.0187 21.0528 21.9642 20.2279 22.45C19.4029 22.9359 18.389 22.8153 17.4557 22.2957M17.4557 22.2957L12.5691 19.582C12.4555 19.5174 12.2545 19.4625 12.0086 19.4625C11.7634 19.4625 11.5569 19.5171 11.4351 19.585L6.55394 22.2957L6.55158 22.297C5.61731 22.8114 4.60471 22.9272 3.78172 22.4425C2.95815 21.9575 2.56982 21.0157 2.56982 19.95V5.86M7.17982 2.75C5.4653 2.75 4.06982 4.15295 4.06982 5.86V19.95C4.06982 20.6843 4.32649 21.0225 4.54293 21.15C4.75981 21.2777 5.18183 21.3385 5.82688 20.9837C5.82728 20.9834 5.82767 20.9832 5.82807 20.983L10.7045 18.275C10.7044 18.2751 10.7047 18.2749 10.7045 18.275C11.1027 18.0531 11.5765 17.9625 12.0086 17.9625C12.4388 17.9625 12.9112 18.0521 13.3069 18.276L18.1839 20.9843C18.8304 21.3444 19.252 21.284 19.4667 21.1575C19.6819 21.0308 19.9398 20.6913 19.9398 19.95V5.862C19.9309 4.15219 18.5332 2.75 16.8198 2.75H7.17982Z" fill="#292D32"/>
<path fill-rule="evenodd" clip-rule="evenodd" d="M2.56982 5.86C2.56982 3.32705 4.63435 1.25 7.17982 1.25H16.8198C19.366 1.25 21.4279 3.32697 21.4398 5.85646L21.4398 5.86L21.4398 19.95C21.4398 21.0187 21.0528 21.9642 20.2279 22.45C19.4029 22.9359 18.389 22.8153 17.4557 22.2957M17.4557 22.2957L12.5691 19.582C12.4555 19.5174 12.2545 19.4625 12.0086 19.4625C11.7634 19.4625 11.5569 19.5171 11.4351 19.585L6.55394 22.2957L6.55158 22.297C5.61731 22.8114 4.60471 22.9272 3.78172 22.4425C2.95815 21.9575 2.56982 21.0157 2.56982 19.95V5.86M7.17982 2.75C5.4653 2.75 4.06982 4.15295 4.06982 5.86V19.95C4.06982 20.6843 4.32649 21.0225 4.54293 21.15C4.75981 21.2777 5.18183 21.3385 5.82688 20.9837C5.82728 20.9834 5.82767 20.9832 5.82807 20.983L10.7045 18.275C10.7044 18.2751 10.7047 18.2749 10.7045 18.275C11.1027 18.0531 11.5765 17.9625 12.0086 17.9625C12.4388 17.9625 12.9112 18.0521 13.3069 18.276L18.1839 20.9843C18.8304 21.3444 19.252 21.284 19.4667 21.1575C19.6819 21.0308 19.9398 20.6913 19.9398 19.95V5.862C19.9309 4.15219 18.5332 2.75 16.8198 2.75H7.17982Z" fill="#292D32"/>
</svg>
