<svg width="24" height="24" viewBox="0 0 24 24" fill="none" xmlns="http://www.w3.org/2000/svg">
<path fill-rule="evenodd" clip-rule="evenodd" d="M3.09467 3.09467C4.42914 1.7602 6.42603 1.25 9 1.25H15C17.574 1.25 19.5709 1.7602 20.9053 3.09467C22.2398 4.42914 22.75 6.42603 22.75 9V15C22.75 17.574 22.2398 19.5709 20.9053 20.9053C19.5709 22.2398 17.574 22.75 15 22.75H9C6.42603 22.75 4.42914 22.2398 3.09467 20.9053C1.7602 19.5709 1.25 17.574 1.25 15V9C1.25 6.42603 1.7602 4.42914 3.09467 3.09467ZM4.15533 4.15533C3.2398 5.07086 2.75 6.57397 2.75 9V15C2.75 17.426 3.2398 18.9291 4.15533 19.8447C5.07086 20.7602 6.57397 21.25 9 21.25H15C17.426 21.25 18.9291 20.7602 19.8447 19.8447C20.7602 18.9291 21.25 17.426 21.25 15V9C21.25 6.57397 20.7602 5.07086 19.8447 4.15533C18.9291 3.2398 17.426 2.75 15 2.75H9C6.57397 2.75 5.07086 3.2398 4.15533 4.15533Z" fill="#292D32"/>
<path fill-rule="evenodd" clip-rule="evenodd" d="M15.7515 8.2621C14.4131 6.93192 12.2467 6.93426 10.9205 8.26047C9.99638 9.18463 9.71476 10.5121 10.077 11.6896C10.1587 11.9551 10.087 12.244 9.89054 12.4405L7.32503 15.006C7.32255 15.0094 7.31717 15.0171 7.30993 15.0299C7.29741 15.0522 7.28437 15.0809 7.27362 15.1128C7.26282 15.145 7.25683 15.173 7.2543 15.193C7.25347 15.1995 7.25315 15.2041 7.25302 15.2068L7.25363 15.211L7.41203 16.399C7.41608 16.4181 7.43556 16.469 7.48748 16.5218C7.53984 16.575 7.58029 16.5852 7.58309 16.5859C7.58312 16.5859 7.58321 16.5859 7.58309 16.5859L7.58934 16.5867L8.79743 16.7478C8.79979 16.7479 8.80796 16.748 8.82207 16.7464C8.84423 16.7438 8.87163 16.7381 8.90038 16.7287C8.92928 16.7192 8.95219 16.7084 8.9671 16.6998C8.97038 16.6978 8.97286 16.6963 8.9746 16.6951C8.97669 16.693 8.97879 16.6909 8.98091 16.6888L11.5709 14.1088C11.7686 13.9119 12.0592 13.841 12.3253 13.9247C13.4958 14.2931 14.8222 14.0068 15.749 13.0807C17.0793 11.7413 17.0744 9.57678 15.7515 8.2621ZM16.8089 7.19818C14.8873 5.28835 11.7737 5.28602 9.85988 7.19981C8.6416 8.41808 8.20304 10.116 8.52799 11.6817L6.24988 13.9598L6.23575 13.9743C6.05212 14.1682 5.92666 14.4122 5.8518 14.6349C5.77854 14.8529 5.7261 15.1326 5.76758 15.4152L5.92679 16.6093L5.92893 16.6242C5.98643 16.9979 6.17779 17.3293 6.41794 17.5735C6.65752 17.8171 6.99453 18.023 7.39366 18.0739L8.5867 18.233C8.86209 18.2725 9.13946 18.2288 9.36753 18.1541C9.59138 18.0807 9.84638 17.9515 10.0456 17.7454L12.3259 15.474C13.8966 15.8072 15.5948 15.3562 16.8105 14.1405L16.8122 14.1388C18.7211 12.2181 18.7258 9.10324 16.8089 7.19818Z" fill="#292D32"/>
<path fill-rule="evenodd" clip-rule="evenodd" d="M9.07288 14.8865C9.36748 14.5953 9.84235 14.5981 10.1335 14.8927L10.9835 15.7527C11.2747 16.0473 11.2719 16.5222 10.9773 16.8133C10.6827 17.1045 10.2078 17.1017 9.91667 16.8071L9.06668 15.9471C8.7755 15.6525 8.77828 15.1777 9.07288 14.8865Z" fill="#292D32"/>
<path fill-rule="evenodd" clip-rule="evenodd" d="M12.3945 10.7002C12.3945 10.1479 12.8422 9.7002 13.3945 9.7002H13.4035C13.9558 9.7002 14.4035 10.1479 14.4035 10.7002C14.4035 11.2525 13.9558 11.7002 13.4035 11.7002H13.3945C12.8422 11.7002 12.3945 11.2525 12.3945 10.7002Z" fill="#292D32"/>
</svg>
