<svg width="24" height="24" viewBox="0 0 24 24" fill="none" xmlns="http://www.w3.org/2000/svg">
<path fill-rule="evenodd" clip-rule="evenodd" d="M19.2507 4.75105C16.5829 2.09225 12.2671 2.09354 9.61049 4.75015L9.6092 4.75144C7.75641 6.59524 7.19472 9.25189 7.91699 11.5993C7.99869 11.8648 7.92693 12.1537 7.73049 12.3502L3.0355 17.0451C2.96983 17.1142 2.88084 17.257 2.81667 17.4495C2.75139 17.6453 2.73906 17.8108 2.75231 17.9016L2.75318 17.9076L3.05225 20.081C3.08035 20.2569 3.18557 20.465 3.36296 20.6432C3.5417 20.8228 3.74497 20.9233 3.9124 20.9468L6.09839 21.2477C6.19768 21.2621 6.36675 21.2503 6.55644 21.1889C6.74745 21.127 6.88103 21.0402 6.9422 20.9772L6.95033 20.9689L11.6604 16.2689C11.8577 16.072 12.148 16.0008 12.414 16.084C14.7461 16.8134 17.4037 16.246 19.2603 14.399C21.9168 11.742 21.9166 7.40793 19.2507 4.75105ZM8.55047 3.68885C11.7939 0.446106 17.0576 0.447609 20.3096 3.6886C23.5635 6.93155 23.5635 12.2171 20.3205 15.4602L20.3192 15.4614C18.1725 17.5977 15.1453 18.3307 12.4093 17.6407L8.0135 22.0272C7.7352 22.3116 7.36594 22.5033 7.01887 22.6158C6.66963 22.729 6.26512 22.7871 5.88542 22.7325C5.88426 22.7323 5.88309 22.7321 5.88193 22.732L3.70791 22.4328C3.15552 22.3561 2.66328 22.0665 2.29986 21.7014C1.93625 21.3361 1.65175 20.8463 1.56876 20.3031L1.56708 20.2921L1.26801 18.1181C1.26784 18.1169 1.26768 18.1158 1.26752 18.1147C1.21164 17.7265 1.27925 17.3183 1.39365 16.9752C1.50855 16.6305 1.6979 16.2695 1.96197 15.9975L1.96977 15.9894L6.36059 11.5987C5.67939 8.85806 6.4 5.82934 8.55047 3.68885Z" fill="#292D32"/>
<path fill-rule="evenodd" clip-rule="evenodd" d="M6.35981 16.9594C6.6527 16.6665 7.12757 16.6665 7.42047 16.9594L9.72047 19.2594C10.0134 19.5523 10.0134 20.0272 9.72047 20.3201C9.42757 20.613 8.9527 20.613 8.65981 20.3201L6.35981 18.0201C6.06691 17.7272 6.06691 17.2523 6.35981 16.9594Z" fill="#292D32"/>
<path fill-rule="evenodd" clip-rule="evenodd" d="M14.5 8.75C14.0858 8.75 13.75 9.08579 13.75 9.5C13.75 9.91421 14.0858 10.25 14.5 10.25C14.9142 10.25 15.25 9.91421 15.25 9.5C15.25 9.08579 14.9142 8.75 14.5 8.75ZM12.25 9.5C12.25 8.25736 13.2574 7.25 14.5 7.25C15.7426 7.25 16.75 8.25736 16.75 9.5C16.75 10.7426 15.7426 11.75 14.5 11.75C13.2574 11.75 12.25 10.7426 12.25 9.5Z" fill="#292D32"/>
</svg>
