<svg width="24" height="24" viewBox="0 0 24 24" fill="none" xmlns="http://www.w3.org/2000/svg">
<path fill-rule="evenodd" clip-rule="evenodd" d="M14.0301 2.04286C15.2529 2.45793 16.0893 3.79754 15.8176 5.08714L15.3218 8.25994C15.3029 8.39882 15.3437 8.4754 15.3798 8.51628C15.4216 8.56368 15.49 8.59999 15.5799 8.59999H19.5799C20.5328 8.59999 21.3726 8.98643 21.8837 9.68009C22.3965 10.3761 22.5094 11.2886 22.1896 12.1927L19.8003 19.4602C19.5944 20.2505 19.0769 20.9041 18.4603 21.3553C17.8369 21.8114 17.0597 22.1 16.2799 22.1H12.4799C12.1075 22.1 11.6632 22.0395 11.2488 21.9211C10.8681 21.8123 10.4188 21.6285 10.0885 21.318L7.02076 18.943L7.93902 17.757L11.0766 20.1861L11.1102 20.2197C11.1769 20.2863 11.3569 20.392 11.6609 20.4788C11.9466 20.5605 12.2523 20.6 12.4799 20.6H16.2799C16.7001 20.6 17.1729 20.4386 17.5745 20.1447C17.9756 19.8513 18.253 19.4651 18.3523 19.0681L18.3589 19.0416L20.7704 11.7067L20.7736 11.6977C20.9496 11.205 20.8614 10.8214 20.6761 10.5699C20.4872 10.3136 20.127 10.1 19.5799 10.1H15.5799C14.5365 10.1 13.671 9.20859 13.8374 8.04393L13.8388 8.0342L14.3426 4.81061L14.3477 4.78729C14.4584 4.28927 14.1047 3.64885 13.5427 3.46151L13.5295 3.45711L13.5165 3.45224C13.3136 3.37612 13.0468 3.37787 12.7737 3.47176C12.4955 3.56738 12.2948 3.72969 12.2039 3.86602L12.2024 3.86837L8.10235 9.96837L6.85742 9.13162L10.9558 3.03397C10.9561 3.03353 10.9564 3.03308 10.9567 3.03264C11.2659 2.56965 11.7647 2.23243 12.2861 2.05323C12.8091 1.87344 13.4369 1.82458 14.0301 2.04286Z" fill="#292D32"/>
<path fill-rule="evenodd" clip-rule="evenodd" d="M3.36359 7.626C3.26488 7.71713 3.12988 7.93441 3.12988 8.5499V18.3499C3.12988 18.9654 3.26488 19.1827 3.36359 19.2738C3.47705 19.3785 3.73737 19.4999 4.37988 19.4999H5.37988C6.0224 19.4999 6.28272 19.3785 6.39617 19.2738C6.49489 19.1827 6.62988 18.9654 6.62988 18.3499V8.5499C6.62988 7.93441 6.49489 7.71713 6.39617 7.626C6.28272 7.52128 6.0224 7.3999 5.37988 7.3999H4.37988C3.73737 7.3999 3.47705 7.52128 3.36359 7.626ZM2.34617 6.5238C2.88272 6.02853 3.6224 5.8999 4.37988 5.8999H5.37988C6.13737 5.8999 6.87705 6.02853 7.41359 6.5238C7.96488 7.03268 8.12988 7.76539 8.12988 8.5499V18.3499C8.12988 19.1344 7.96488 19.8671 7.41359 20.376C6.87705 20.8713 6.13737 20.9999 5.37988 20.9999H4.37988C3.6224 20.9999 2.88272 20.8713 2.34617 20.376C1.79489 19.8671 1.62988 19.1344 1.62988 18.3499V8.5499C1.62988 7.76539 1.79489 7.03268 2.34617 6.5238Z" fill="#292D32"/>
</svg>
