<svg width="24" height="24" viewBox="0 0 24 24" fill="none" xmlns="http://www.w3.org/2000/svg">
<path d="M12 9.0252C12.1333 9.0252 12.2623 9.0502 12.387 9.1002C12.5123 9.1502 12.6166 9.21686 12.7 9.3002L17.3 13.9002C17.4833 14.0835 17.575 14.3169 17.575 14.6002C17.575 14.8835 17.4833 15.1169 17.3 15.3002C17.1166 15.4835 16.8833 15.5752 16.6 15.5752C16.3166 15.5752 16.0833 15.4835 15.9 15.3002L12 11.4002L8.09995 15.3002C7.91662 15.4835 7.68328 15.5752 7.39995 15.5752C7.11662 15.5752 6.88329 15.4835 6.69995 15.3002C6.51662 15.1169 6.42495 14.8835 6.42495 14.6002C6.42495 14.3169 6.51662 14.0835 6.69995 13.9002L11.3 9.3002C11.4 9.2002 11.5083 9.12953 11.625 9.0882C11.7416 9.0462 11.8666 9.0252 12 9.0252Z" fill="black"/>
</svg>
