<svg width="24" height="24" viewBox="0 0 24 24" fill="none" xmlns="http://www.w3.org/2000/svg">
<path d="M9.02495 11.9998C9.02495 11.8665 9.04995 11.7375 9.09995 11.6128C9.14995 11.4875 9.21662 11.3831 9.29995 11.2998L13.9 6.6998C14.0833 6.51647 14.3166 6.4248 14.6 6.4248C14.8833 6.4248 15.1166 6.51647 15.3 6.6998C15.4833 6.88314 15.575 7.11647 15.575 7.3998C15.575 7.68314 15.4833 7.91647 15.3 8.0998L11.4 11.9998L15.3 15.8998C15.4833 16.0831 15.575 16.3165 15.575 16.5998C15.575 16.8831 15.4833 17.1165 15.3 17.2998C15.1166 17.4831 14.8833 17.5748 14.6 17.5748C14.3166 17.5748 14.0833 17.4831 13.9 17.2998L9.29995 12.6998C9.19995 12.5998 9.12928 12.4915 9.08795 12.3748C9.04595 12.2581 9.02495 12.1331 9.02495 11.9998Z" fill="black"/>
</svg>
