<svg width="24" height="24" viewBox="0 0 24 24" fill="none" xmlns="http://www.w3.org/2000/svg">
<path fill-rule="evenodd" clip-rule="evenodd" d="M12.0032 2.75C8.58646 2.74769 5.2446 4.73032 4.35138 8.65591C3.29432 13.3261 6.18804 17.3762 8.91015 19.9997C10.6407 21.661 13.3606 21.659 15.0791 20.0004L15.0805 19.999C17.8124 17.3756 20.7056 13.3354 19.6485 8.6656L19.6485 8.66556C18.7599 4.73971 15.4201 2.75231 12.0032 2.75ZM21.1115 8.33441C20.04 3.60029 15.9848 1.25269 12.0042 1.25C8.02358 1.24731 3.96557 3.58953 2.88864 8.32364L2.88847 8.32441C1.64576 13.8139 5.07175 18.3836 7.8695 21.08L7.87045 21.0809C10.1798 23.2989 13.8191 23.3008 16.1204 21.08C18.9283 18.3834 22.3542 13.8239 21.1115 8.33441Z" fill="#292D32"/>
<path fill-rule="evenodd" clip-rule="evenodd" d="M9.50971 8.46967C9.8026 8.17678 10.2775 8.17678 10.5704 8.46967L14.5304 12.4297C14.8233 12.7226 14.8233 13.1974 14.5304 13.4903C14.2375 13.7832 13.7626 13.7832 13.4697 13.4903L9.50971 9.53033C9.21682 9.23744 9.21682 8.76256 9.50971 8.46967Z" fill="#292D32"/>
<path fill-rule="evenodd" clip-rule="evenodd" d="M14.4903 8.50971C14.7832 8.8026 14.7832 9.27748 14.4903 9.57037L10.5303 13.5304C10.2374 13.8233 9.76256 13.8233 9.46967 13.5304C9.17678 13.2375 9.17678 12.7626 9.46967 12.4697L13.4297 8.50971C13.7226 8.21682 14.1974 8.21682 14.4903 8.50971Z" fill="#292D32"/>
</svg>
