<svg width="24" height="24" viewBox="0 0 24 24" fill="none" xmlns="http://www.w3.org/2000/svg">
<path fill-rule="evenodd" clip-rule="evenodd" d="M12.0032 2.75C8.58646 2.74769 5.2446 4.73032 4.35138 8.65591C3.29432 13.3261 6.18804 17.3762 8.91015 19.9997C10.6407 21.661 13.3606 21.659 15.0791 20.0004L15.0805 19.999C17.8124 17.3756 20.7056 13.3354 19.6485 8.6656L19.6485 8.66556C18.7599 4.73971 15.4201 2.75231 12.0032 2.75ZM21.1115 8.33441C20.04 3.60029 15.9848 1.25269 12.0042 1.25C8.02358 1.24731 3.96557 3.58953 2.88864 8.32364L2.88847 8.32441C1.64576 13.8139 5.07175 18.3836 7.8695 21.08L7.87045 21.0809C10.1798 23.2989 13.8191 23.3008 16.1204 21.08C18.9283 18.3834 22.3542 13.8239 21.1115 8.33441Z" fill="#292D32"/>
<path fill-rule="evenodd" clip-rule="evenodd" d="M15.2803 8.46967C15.5732 8.76256 15.5732 9.23744 15.2803 9.53033L11.2803 13.5303C10.9874 13.8232 10.5126 13.8232 10.2197 13.5303L8.71967 12.0303C8.42678 11.7374 8.42678 11.2626 8.71967 10.9697C9.01256 10.6768 9.48744 10.6768 9.78033 10.9697L10.75 11.9393L14.2197 8.46967C14.5126 8.17678 14.9874 8.17678 15.2803 8.46967Z" fill="#292D32"/>
</svg>
