<svg width="24" height="24" viewBox="0 0 24 24" fill="none" xmlns="http://www.w3.org/2000/svg">
<path fill-rule="evenodd" clip-rule="evenodd" d="M11.9999 7.93994C10.6857 7.93994 9.62988 9.00259 9.62988 10.3099C9.62988 11.183 10.0994 11.9422 10.7995 12.3531C11.1568 12.5628 11.2764 13.0224 11.0667 13.3796C10.857 13.7368 10.3975 13.8564 10.0402 13.6468C8.9004 12.9777 8.12988 11.7369 8.12988 10.3099C8.12988 8.1773 9.8541 6.43994 11.9999 6.43994C13.4277 6.43994 14.6697 7.21149 15.3385 8.36334C15.5465 8.72155 15.4247 9.18054 15.0665 9.38853C14.7083 9.59652 14.2493 9.47475 14.0413 9.11654C13.6301 8.4084 12.872 7.93994 11.9999 7.93994Z" fill="#292D32"/>
<path fill-rule="evenodd" clip-rule="evenodd" d="M10.3741 2.90377C7.58272 3.44049 5.11156 5.35513 4.36137 8.65597L4.36129 8.65632C3.60795 11.9637 4.82482 14.9517 6.5949 17.3663C6.83979 17.7004 6.7675 18.1697 6.43343 18.4146C6.09937 18.6595 5.63003 18.5872 5.38514 18.2532C3.47527 15.6479 2.01217 12.2161 2.89867 8.32354M10.3741 2.90377C13.1895 2.36243 16.2493 3.23983 18.1044 5.46059L10.3741 2.90377ZM10.0909 1.43075C13.3605 0.802087 17.0007 1.79968 19.2556 4.49893C19.5212 4.81682 19.4787 5.28979 19.1608 5.55535C18.843 5.8209 18.37 5.77848 18.1044 5.46059M10.0909 1.43075C6.79741 2.06401 3.79865 4.36425 2.89875 8.32319L10.0909 1.43075Z" fill="#292D32"/>
<path fill-rule="evenodd" clip-rule="evenodd" d="M20.2143 7.76818C20.6183 7.67673 21.0199 7.93009 21.1114 8.33408C22.3541 13.8238 18.928 18.3834 16.12 21.08C13.8187 23.3005 10.1797 23.2984 7.87038 21.0806C7.57163 20.7937 7.56204 20.3189 7.84896 20.0202C8.13588 19.7214 8.61065 19.7118 8.9094 19.9987C10.6399 21.6607 13.3604 21.6589 15.079 20L15.0804 19.9987C17.8124 17.3753 20.7055 13.3351 19.6484 8.66527C19.5569 8.26128 19.8103 7.85964 20.2143 7.76818Z" fill="#292D32"/>
<path fill-rule="evenodd" clip-rule="evenodd" d="M22.5303 1.46967C22.8232 1.76256 22.8232 2.23744 22.5303 2.53033L2.53033 22.5303C2.23744 22.8232 1.76256 22.8232 1.46967 22.5303C1.17678 22.2374 1.17678 21.7626 1.46967 21.4697L21.4697 1.46967C21.7626 1.17678 22.2374 1.17678 22.5303 1.46967Z" fill="#292D32"/>
</svg>
