<svg width="24" height="24" viewBox="0 0 24 24" fill="none" xmlns="http://www.w3.org/2000/svg">
<path fill-rule="evenodd" clip-rule="evenodd" d="M13.5355 13.8834C13.865 13.6324 14.3356 13.696 14.5866 14.0255C15.0039 14.5732 15.2501 15.2621 15.2501 16C15.2501 17.7942 13.7943 19.25 12.0001 19.25C10.9522 19.25 10.0201 18.7398 9.42858 17.9812C9.17389 17.6545 9.23224 17.1832 9.5589 16.9285C9.88557 16.6739 10.3568 16.7322 10.6115 17.0589C10.94 17.4802 11.4479 17.75 12.0001 17.75C12.9658 17.75 13.7501 16.9658 13.7501 16C13.7501 15.5979 13.6162 15.2269 13.3935 14.9346C13.1424 14.6051 13.206 14.1345 13.5355 13.8834Z" fill="#292D32"/>
<path fill-rule="evenodd" clip-rule="evenodd" d="M3.53033 11.5303C3.01884 12.0418 2.75 12.9946 2.75 15V17C2.75 18.83 2.97406 19.7938 3.4049 20.3305C3.66418 20.6536 3.61249 21.1256 3.28946 21.3849C2.96643 21.6442 2.49438 21.5925 2.2351 21.2695C1.44594 20.2862 1.25 18.83 1.25 17V15C1.25 13.0054 1.48116 11.4582 2.46967 10.4697C3.45818 9.48116 5.00536 9.25 7 9.25H17C17.3728 9.25 17.7181 9.26032 18.0454 9.28137C19.6787 9.37443 20.9651 9.72351 21.7775 10.7529C22.5557 11.7389 22.75 13.1777 22.75 15V17C22.75 18.9946 22.5188 20.5418 21.5303 21.5303C20.5418 22.5188 18.9946 22.75 17 22.75H7C6.62611 22.75 6.27986 22.7396 5.95171 22.7184C5.53836 22.6918 5.22489 22.3351 5.25156 21.9217C5.27822 21.5084 5.63493 21.1949 6.04829 21.2216C6.34014 21.2404 6.65389 21.25 7 21.25H17C19.0054 21.25 19.9582 20.9812 20.4697 20.4697C20.9812 19.9582 21.25 19.0054 21.25 17V15C21.25 13.1823 21.0293 12.2261 20.6 11.6821C20.2054 11.1821 19.4928 10.866 17.9575 10.7788L17.9517 10.7785L17.9517 10.7784C17.6599 10.7596 17.3461 10.75 17 10.75H7C4.99464 10.75 4.04182 11.0188 3.53033 11.5303Z" fill="#292D32"/>
<path fill-rule="evenodd" clip-rule="evenodd" d="M7.70907 4.22924C7.00031 5.10912 6.75 6.38987 6.75 8V10C6.75 10.4142 6.41421 10.75 6 10.75C5.58579 10.75 5.25 10.4142 5.25 10V8C5.25 6.30013 5.49969 4.58088 6.54093 3.28826C7.61038 1.96061 9.37164 1.25 12 1.25C14.1378 1.25 15.7 1.60164 16.792 2.34162C17.9207 3.10651 18.437 4.20894 18.64 5.4378C18.7075 5.84648 18.4309 6.23249 18.0222 6.29998C17.6135 6.36747 17.2275 6.09088 17.16 5.6822C17.003 4.73106 16.6443 4.05349 15.9505 3.58338C15.22 3.08836 14.0122 2.75 12 2.75C9.62836 2.75 8.38962 3.38439 7.70907 4.22924Z" fill="#292D32"/>
<path fill-rule="evenodd" clip-rule="evenodd" d="M22.5303 1.46967C22.8232 1.76256 22.8232 2.23744 22.5303 2.53033L2.53033 22.5303C2.23744 22.8232 1.76256 22.8232 1.46967 22.5303C1.17678 22.2374 1.17678 21.7626 1.46967 21.4697L21.4697 1.46967C21.7626 1.17678 22.2374 1.17678 22.5303 1.46967Z" fill="#292D32"/>
</svg>
