<svg width="24" height="24" viewBox="0 0 24 24" fill="none" xmlns="http://www.w3.org/2000/svg">
<path fill-rule="evenodd" clip-rule="evenodd" d="M10.9175 4.0635C10.0547 4.76357 9.54666 5.87777 9.39809 7.60313C9.3744 7.87825 9.13216 8.08208 8.85703 8.05839C8.58191 8.0347 8.37808 7.79246 8.40178 7.51734C8.5632 5.6427 9.13516 4.2219 10.2874 3.28697C11.4258 2.36324 13.0391 1.99023 15.1099 1.99023H15.2399C17.5244 1.99023 19.2539 2.44459 20.3997 3.59043C21.5456 4.73627 21.9999 6.46578 21.9999 8.75023V15.2702C21.9999 17.5547 21.5456 19.2842 20.3997 20.43C19.2539 21.5759 17.5244 22.0302 15.2399 22.0302H15.1099C13.0543 22.0302 11.4502 21.6623 10.3138 20.7532C9.16301 19.8325 8.5842 18.4329 8.41209 16.5866C8.38646 16.3117 8.58857 16.068 8.86352 16.0424C9.13847 16.0168 9.38214 16.2189 9.40777 16.4938C9.56566 18.1875 10.0768 19.283 10.9385 19.9723C11.8147 20.6732 13.1456 21.0302 15.1099 21.0302H15.2399C17.4255 21.0302 18.826 20.5896 19.6926 19.7229C20.5593 18.8563 20.9999 17.4558 20.9999 15.2702V8.75023C20.9999 6.56469 20.5593 5.1642 19.6926 4.29754C18.826 3.43088 17.4255 2.99023 15.2399 2.99023H15.1099C13.1307 2.99023 11.794 3.35223 10.9175 4.0635Z" fill="#292D32"/>
<path fill-rule="evenodd" clip-rule="evenodd" d="M1.5 12C1.5 11.7239 1.72386 11.5 2 11.5H14.88C15.1561 11.5 15.38 11.7239 15.38 12C15.38 12.2761 15.1561 12.5 14.88 12.5H2C1.72386 12.5 1.5 12.2761 1.5 12Z" fill="#292D32"/>
<path fill-rule="evenodd" clip-rule="evenodd" d="M12.2963 8.29684C12.4916 8.10158 12.8082 8.10158 13.0035 8.29684L16.3535 11.6468C16.5487 11.8421 16.5487 12.1587 16.3535 12.3539L13.0035 15.7039C12.8082 15.8992 12.4916 15.8992 12.2963 15.7039C12.1011 15.5087 12.1011 15.1921 12.2963 14.9968L15.2928 12.0004L12.2963 9.00394C12.1011 8.80868 12.1011 8.4921 12.2963 8.29684Z" fill="#292D32"/>
</svg>
