<svg width="24" height="24" viewBox="0 0 24 24" fill="none" xmlns="http://www.w3.org/2000/svg">
<path fill-rule="evenodd" clip-rule="evenodd" d="M10.9175 4.0635C10.0547 4.76357 9.54666 5.87777 9.39809 7.60313C9.3744 7.87825 9.13216 8.08208 8.85703 8.05839C8.58191 8.0347 8.37808 7.79246 8.40178 7.51734C8.5632 5.6427 9.13516 4.2219 10.2874 3.28697C11.4258 2.36324 13.0391 1.99023 15.1099 1.99023H15.2399C17.5244 1.99023 19.2539 2.44459 20.3997 3.59043C21.5456 4.73627 21.9999 6.46578 21.9999 8.75023V15.2702C21.9999 17.5547 21.5456 19.2842 20.3997 20.43C19.2539 21.5759 17.5244 22.0302 15.2399 22.0302H15.1099C13.0543 22.0302 11.4502 21.6623 10.3138 20.7532C9.16301 19.8325 8.5842 18.4329 8.41209 16.5866C8.38646 16.3117 8.58857 16.068 8.86352 16.0424C9.13847 16.0168 9.38214 16.2189 9.40777 16.4938C9.56566 18.1875 10.0768 19.283 10.9385 19.9723C11.8147 20.6732 13.1456 21.0302 15.1099 21.0302H15.2399C17.4255 21.0302 18.826 20.5896 19.6926 19.7229C20.5593 18.8563 20.9999 17.4558 20.9999 15.2702V8.75023C20.9999 6.56469 20.5593 5.1642 19.6926 4.29754C18.826 3.43088 17.4255 2.99023 15.2399 2.99023H15.1099C13.1307 2.99023 11.794 3.35223 10.9175 4.0635Z" fill="#292D32"/>
<path fill-rule="evenodd" clip-rule="evenodd" d="M3.12012 12C3.12012 11.7239 3.34397 11.5 3.62012 11.5H15.0001C15.2763 11.5 15.5001 11.7239 15.5001 12C15.5001 12.2761 15.2763 12.5 15.0001 12.5H3.62012C3.34397 12.5 3.12012 12.2761 3.12012 12Z" fill="#292D32"/>
<path fill-rule="evenodd" clip-rule="evenodd" d="M6.20355 8.29684C6.39882 8.4921 6.39882 8.80868 6.20355 9.00394L3.20711 12.0004L6.20355 14.9968C6.39882 15.1921 6.39882 15.5087 6.20355 15.7039C6.00829 15.8992 5.69171 15.8992 5.49645 15.7039L2.14645 12.3539C1.95118 12.1587 1.95118 11.8421 2.14645 11.6468L5.49645 8.29684C5.69171 8.10158 6.00829 8.10158 6.20355 8.29684Z" fill="#292D32"/>
</svg>
