<svg width="24" height="24" viewBox="0 0 24 24" fill="none" xmlns="http://www.w3.org/2000/svg">
<path fill-rule="evenodd" clip-rule="evenodd" d="M2.5 7C2.5 6.72386 2.72386 6.5 3 6.5H21C21.2761 6.5 21.5 6.72386 21.5 7C21.5 7.27614 21.2761 7.5 21 7.5H3C2.72386 7.5 2.5 7.27614 2.5 7Z" fill="#292D32"/>
<path fill-rule="evenodd" clip-rule="evenodd" d="M2.5 12C2.5 11.7239 2.72386 11.5 3 11.5H21C21.2761 11.5 21.5 11.7239 21.5 12C21.5 12.2761 21.2761 12.5 21 12.5H3C2.72386 12.5 2.5 12.2761 2.5 12Z" fill="#292D32"/>
<path fill-rule="evenodd" clip-rule="evenodd" d="M2.5 17C2.5 16.7239 2.72386 16.5 3 16.5H21C21.2761 16.5 21.5 16.7239 21.5 17C21.5 17.2761 21.2761 17.5 21 17.5H3C2.72386 17.5 2.5 17.2761 2.5 17Z" fill="#292D32"/>
</svg>
