<svg width="24" height="24" viewBox="0 0 24 24" fill="none" xmlns="http://www.w3.org/2000/svg">
<path fill-rule="evenodd" clip-rule="evenodd" d="M3.14645 3.14645C4.27329 2.01961 5.92293 1.5 8 1.5H16C18.0771 1.5 19.7267 2.01961 20.8536 3.14645C21.9804 4.27329 22.5 5.92293 22.5 8V16C22.5 18.0771 21.9804 19.7267 20.8536 20.8536C19.7267 21.9804 18.0771 22.5 16 22.5H3C2.17386 22.5 1.5 21.8261 1.5 21V8C1.5 5.92293 2.01961 4.27329 3.14645 3.14645ZM3.85355 3.85355C2.98039 4.72671 2.5 6.07707 2.5 8V21C2.5 21.2739 2.72614 21.5 3 21.5H16C17.9229 21.5 19.2733 21.0196 20.1464 20.1464C21.0196 19.2733 21.5 17.9229 21.5 16V8C21.5 6.07707 21.0196 4.72671 20.1464 3.85355C19.2733 2.98039 17.9229 2.5 16 2.5H8C6.07707 2.5 4.72671 2.98039 3.85355 3.85355Z" fill="#292D32"/>
<path fill-rule="evenodd" clip-rule="evenodd" d="M6.5 9.5C6.5 9.22386 6.72386 9 7 9H17C17.2761 9 17.5 9.22386 17.5 9.5C17.5 9.77614 17.2761 10 17 10H7C6.72386 10 6.5 9.77614 6.5 9.5Z" fill="#292D32"/>
<path fill-rule="evenodd" clip-rule="evenodd" d="M6.5 14.5C6.5 14.2239 6.72386 14 7 14H14C14.2761 14 14.5 14.2239 14.5 14.5C14.5 14.7761 14.2761 15 14 15H7C6.72386 15 6.5 14.7761 6.5 14.5Z" fill="#292D32"/>
</svg>
