<svg width="24" height="24" viewBox="0 0 24 24" fill="none" xmlns="http://www.w3.org/2000/svg">
<path fill-rule="evenodd" clip-rule="evenodd" d="M5.10471 9.78744C5.84474 9.49677 6.65305 9.34003 7.50009 9.34003C10.9058 9.34003 13.7501 11.9288 13.7501 15.23C13.7501 16.1243 13.5353 16.9724 13.1534 17.73C13.1589 17.73 13.1645 17.73 13.1701 17.73C13.3049 17.73 13.4373 17.7663 13.5532 17.8352L17.7486 20.3284C17.9135 20.4283 18.1416 20.301 18.1156 20.0804C18.1155 20.0802 18.1156 20.0806 18.1156 20.0804L17.7257 16.9219C17.6918 16.6466 17.8125 16.3751 18.0396 16.2159C19.9996 14.842 21.2501 12.6717 21.2501 10.24C21.2501 6.15199 17.6853 2.75 13.1701 2.75C8.82256 2.75 5.35622 5.90396 5.10471 9.78744ZM3.59009 10.24C3.59009 5.22799 7.92533 1.25 13.1701 1.25C18.4148 1.25 22.7501 5.22799 22.7501 10.24C22.7501 13.0485 21.3808 15.5361 19.2681 17.1732L19.6047 19.9003C19.7779 21.3381 18.2292 22.3698 16.9747 21.6134C16.9737 21.6128 16.9726 21.6121 16.9716 21.6115L12.9608 19.228C12.5402 19.2202 12.1262 19.1887 11.7188 19.1331C11.4472 19.0961 11.2175 18.9139 11.1196 18.6579C11.0217 18.4019 11.0712 18.1129 11.2488 17.9041C11.8811 17.1607 12.2501 16.2304 12.2501 15.23C12.2501 12.8511 10.1744 10.84 7.50009 10.84C6.48439 10.84 5.55684 11.1283 4.78958 11.6283C4.57243 11.7699 4.29759 11.7892 4.06274 11.6795C3.82789 11.5699 3.66632 11.3467 3.63544 11.0894C3.60076 10.8004 3.59009 10.5187 3.59009 10.24Z" fill="#292D32"/>
<path fill-rule="evenodd" clip-rule="evenodd" d="M7.5 10.8398C6.48429 10.8398 5.55675 11.1282 4.78949 11.6282L4.78381 11.6319L4.7838 11.6318C3.53967 12.4267 2.75 13.7484 2.75 15.2298C2.75 16.6432 3.47181 17.9115 4.62762 18.7137C4.85727 18.8731 4.97922 19.1469 4.94403 19.4243L4.72702 21.1343L7.11704 19.7149C7.23293 19.6461 7.36522 19.6098 7.5 19.6098C9.04178 19.6098 10.3975 18.9355 11.2415 17.9125L11.2487 17.9038L11.2487 17.9039C11.881 17.1605 12.25 16.2302 12.25 15.2298C12.25 12.8509 10.1743 10.8398 7.5 10.8398ZM3.97335 10.3696C4.98552 9.71079 6.19692 9.33984 7.5 9.33984C10.9057 9.33984 13.75 11.9287 13.75 15.2298C13.75 16.6074 13.2404 17.8755 12.395 18.8715C11.2994 20.1967 9.60295 21.0473 7.71148 21.1065L5.27686 22.5523C4.28464 23.1555 3.07485 22.3196 3.20513 21.2122L3.20593 21.2054L3.20596 21.2054L3.40119 19.667C2.08817 18.6001 1.25 17.0136 1.25 15.2298C1.25 13.1924 2.33907 11.415 3.97335 10.3696Z" fill="#292D32"/>
</svg>
