<svg width="24" height="24" viewBox="0 0 24 24" fill="none" xmlns="http://www.w3.org/2000/svg">
<path fill-rule="evenodd" clip-rule="evenodd" d="M2.96967 2.96967C4.15993 1.77941 5.88439 1.25 8 1.25H16C18.1156 1.25 19.8401 1.77941 21.0303 2.96967C22.2206 4.15993 22.75 5.88439 22.75 8V16C22.75 18.1156 22.2206 19.8401 21.0303 21.0303C19.8401 22.2206 18.1156 22.75 16 22.75H3C2.03579 22.75 1.25 21.9642 1.25 21V8C1.25 5.88439 1.77941 4.15993 2.96967 2.96967ZM4.03033 4.03033C3.22059 4.84007 2.75 6.11561 2.75 8V21C2.75 21.1358 2.86421 21.25 3 21.25H16C17.8844 21.25 19.1599 20.7794 19.9697 19.9697C20.7794 19.1599 21.25 17.8844 21.25 16V8C21.25 6.11561 20.7794 4.84007 19.9697 4.03033C19.1599 3.22059 17.8844 2.75 16 2.75H8C6.11561 2.75 4.84007 3.22059 4.03033 4.03033Z" fill="#292D32"/>
<path fill-rule="evenodd" clip-rule="evenodd" d="M14.3114 6.26195C15.1487 6.18212 15.9469 6.56054 16.7015 7.32055C17.4577 8.07718 17.8288 8.87628 17.7451 9.71086C17.6655 10.5057 17.1877 11.1429 16.7004 11.6301L11.5104 16.8201C11.3339 16.9967 11.1097 17.1376 10.9062 17.2378C10.7018 17.3383 10.4571 17.4279 10.2162 17.4623L8.23329 17.7427C7.67661 17.82 7.12518 17.6705 6.73228 17.2776C6.33938 16.8847 6.18993 16.3333 6.26725 15.7766L6.26751 15.7748L6.54765 13.7937C6.58207 13.5528 6.6716 13.3081 6.77216 13.1037C6.8723 12.9002 7.01319 12.6761 7.18978 12.4995L12.3798 7.30948C12.8722 6.81711 13.5132 6.33806 14.3114 6.26195ZM14.4538 7.75517C14.1771 7.78156 13.8481 7.96251 13.4404 8.37014L8.25044 13.5601C8.22702 13.5836 8.17292 13.6544 8.11806 13.7659C8.06378 13.8762 8.0383 13.9663 8.03262 14.0056C8.03261 14.0057 8.03264 14.0054 8.03262 14.0056L7.75299 15.983C7.75295 15.9832 7.75302 15.9827 7.75299 15.983C7.73057 16.1457 7.78087 16.2049 7.79295 16.217C7.80503 16.2291 7.86347 16.2795 8.02634 16.257C8.02614 16.2571 8.02654 16.257 8.02634 16.257L10.004 15.9774C10.004 15.9774 10.0041 15.9773 10.004 15.9774C10.0432 15.9717 10.1335 15.9462 10.244 15.8919C10.3555 15.837 10.4264 15.7829 10.4498 15.7595L15.6398 10.5695C16.0425 10.1668 16.2248 9.83893 16.2526 9.56126C16.2764 9.32373 16.2028 8.94319 15.6398 8.38014L15.6378 8.37813C15.0727 7.80877 14.6912 7.73254 14.4538 7.75517Z" fill="#292D32"/>
<path fill-rule="evenodd" clip-rule="evenodd" d="M11.9677 7.85761C12.3666 7.74583 12.7805 7.97854 12.8923 8.37739C13.2621 9.697 14.2961 10.7382 15.6213 11.1073C16.0203 11.2184 16.2537 11.632 16.1426 12.031C16.0315 12.43 15.6179 12.6634 15.2189 12.5523C13.3841 12.0413 11.9581 10.6026 11.4479 8.78217C11.3362 8.38333 11.5689 7.96938 11.9677 7.85761Z" fill="#292D32"/>
</svg>
