<svg width="24" height="24" viewBox="0 0 24 24" fill="none" xmlns="http://www.w3.org/2000/svg">
<path fill-rule="evenodd" clip-rule="evenodd" d="M1.41992 12C1.41992 6.22386 6.14378 1.5 11.9199 1.5C17.6961 1.5 22.4199 6.22386 22.4199 12C22.4199 17.7761 17.6961 22.5 11.9199 22.5C6.14378 22.5 1.41992 17.7761 1.41992 12ZM11.9199 2.5C6.69606 2.5 2.41992 6.77614 2.41992 12C2.41992 17.2239 6.69606 21.5 11.9199 21.5C17.1438 21.5 21.4199 17.2239 21.4199 12C21.4199 6.77614 17.1438 2.5 11.9199 2.5Z" fill="#292D32"/>
<path fill-rule="evenodd" clip-rule="evenodd" d="M7.41992 12C7.41992 11.7239 7.64378 11.5 7.91992 11.5H15.9199C16.1961 11.5 16.4199 11.7239 16.4199 12C16.4199 12.2761 16.1961 12.5 15.9199 12.5H7.91992C7.64378 12.5 7.41992 12.2761 7.41992 12Z" fill="#292D32"/>
</svg>
