<svg width="24" height="24" viewBox="0 0 24 24" fill="none" xmlns="http://www.w3.org/2000/svg">
<path fill-rule="evenodd" clip-rule="evenodd" d="M1.5 12C1.5 6.22386 6.22386 1.5 12 1.5C17.7761 1.5 22.5 6.22386 22.5 12C22.5 17.7761 17.7761 22.5 12 22.5C6.22386 22.5 1.5 17.7761 1.5 12ZM12 2.5C6.77614 2.5 2.5 6.77614 2.5 12C2.5 17.2239 6.77614 21.5 12 21.5C17.2239 21.5 21.5 17.2239 21.5 12C21.5 6.77614 17.2239 2.5 12 2.5Z" fill="#292D32"/>
<path fill-rule="evenodd" clip-rule="evenodd" d="M15.4966 12C15.4966 11.7239 15.7204 11.5 15.9966 11.5H16.0056C16.2817 11.5 16.5056 11.7239 16.5056 12C16.5056 12.2761 16.2817 12.5 16.0056 12.5H15.9966C15.7204 12.5 15.4966 12.2761 15.4966 12Z" fill="#292D32"/>
<path fill-rule="evenodd" clip-rule="evenodd" d="M11.4956 12C11.4956 11.7239 11.7195 11.5 11.9956 11.5H12.0046C12.2807 11.5 12.5046 11.7239 12.5046 12C12.5046 12.2761 12.2807 12.5 12.0046 12.5H11.9956C11.7195 12.5 11.4956 12.2761 11.4956 12Z" fill="#292D32"/>
<path fill-rule="evenodd" clip-rule="evenodd" d="M7.49463 12C7.49463 11.7239 7.71849 11.5 7.99463 11.5H8.00361C8.27975 11.5 8.50361 11.7239 8.50361 12C8.50361 12.2761 8.27975 12.5 8.00361 12.5H7.99463C7.71849 12.5 7.49463 12.2761 7.49463 12Z" fill="#292D32"/>
</svg>
