<svg width="24" height="24" viewBox="0 0 24 24" fill="none" xmlns="http://www.w3.org/2000/svg">
<path fill-rule="evenodd" clip-rule="evenodd" d="M3.27145 3.27145C4.53609 2.0068 6.45069 1.5 9 1.5H15C17.5493 1.5 19.4639 2.0068 20.7286 3.27145C21.9932 4.53609 22.5 6.45069 22.5 9V15C22.5 17.5493 21.9932 19.4639 20.7286 20.7286C19.4639 21.9932 17.5493 22.5 15 22.5H9C6.45069 22.5 4.53609 21.9932 3.27145 20.7286C2.0068 19.4639 1.5 17.5493 1.5 15V9C1.5 6.45069 2.0068 4.53609 3.27145 3.27145ZM3.97855 3.97855C2.9932 4.96391 2.5 6.54931 2.5 9V15C2.5 17.4507 2.9932 19.0361 3.97855 20.0214C4.96391 21.0068 6.54931 21.5 9 21.5H15C17.4507 21.5 19.0361 21.0068 20.0214 20.0214C21.0068 19.0361 21.5 17.4507 21.5 15V9C21.5 6.54931 21.0068 4.96391 20.0214 3.97855C19.0361 2.9932 17.4507 2.5 15 2.5H9C6.54931 2.5 4.96391 2.9932 3.97855 3.97855Z" fill="#292D32"/>
<path fill-rule="evenodd" clip-rule="evenodd" d="M15.4966 12C15.4966 11.7239 15.7204 11.5 15.9966 11.5H16.0056C16.2817 11.5 16.5056 11.7239 16.5056 12C16.5056 12.2761 16.2817 12.5 16.0056 12.5H15.9966C15.7204 12.5 15.4966 12.2761 15.4966 12Z" fill="#292D32" stroke="black" stroke-linecap="round" stroke-linejoin="round"/>
<path fill-rule="evenodd" clip-rule="evenodd" d="M11.4956 12C11.4956 11.7239 11.7195 11.5 11.9956 11.5H12.0046C12.2807 11.5 12.5046 11.7239 12.5046 12C12.5046 12.2761 12.2807 12.5 12.0046 12.5H11.9956C11.7195 12.5 11.4956 12.2761 11.4956 12Z" fill="#292D32" stroke="black" stroke-linecap="round" stroke-linejoin="round"/>
<path fill-rule="evenodd" clip-rule="evenodd" d="M7.49463 12C7.49463 11.7239 7.71849 11.5 7.99463 11.5H8.00361C8.27975 11.5 8.50361 11.7239 8.50361 12C8.50361 12.2761 8.27975 12.5 8.00361 12.5H7.99463C7.71849 12.5 7.49463 12.2761 7.49463 12Z" fill="#292D32" stroke="black" stroke-linecap="round" stroke-linejoin="round"/>
</svg>
