<svg width="24" height="24" viewBox="0 0 24 24" fill="none" xmlns="http://www.w3.org/2000/svg">
<path fill-rule="evenodd" clip-rule="evenodd" d="M5.27021 8.91016C5.27021 5.18594 8.29599 2.16016 12.0202 2.16016C15.7344 2.16016 18.7702 5.19594 18.7702 8.91016V11.8002C18.7702 12.015 18.8188 12.3295 18.911 12.6655C19.002 12.9975 19.1196 13.2925 19.2267 13.4799L20.3733 15.3843C21.2789 16.8935 20.555 18.8596 18.8867 19.4119C14.4228 20.903 9.60642 20.9029 5.14254 19.4115L5.13976 19.4106C4.29735 19.1254 3.66559 18.5359 3.38312 17.7731C3.10033 17.0094 3.19653 16.1497 3.65757 15.3835L4.806 13.4761C4.80625 13.4757 4.8065 13.4753 4.80676 13.4748C4.91626 13.2907 5.03621 12.9968 5.12878 12.6633C5.22163 12.3288 5.27021 12.0148 5.27021 11.8002V8.91016ZM12.0202 3.66016C9.12442 3.66016 6.77021 6.01437 6.77021 8.91016V11.8002C6.77021 12.1955 6.68878 12.6515 6.57413 13.0645C6.45941 13.4778 6.29471 13.9082 6.09442 14.2442L6.09274 14.247L4.94284 16.1568C4.94281 16.1569 4.94288 16.1568 4.94284 16.1568C4.69399 16.5705 4.6801 16.956 4.78979 17.2522C4.89971 17.5491 5.16255 17.8343 5.61932 17.9893C9.77466 19.3773 14.2573 19.3771 18.4125 17.9888L18.4148 17.9881C19.1656 17.7399 19.5012 16.8469 19.0874 16.1566C19.0873 16.1564 19.0875 16.1567 19.0874 16.1566L17.9305 14.235C17.7384 13.902 17.5775 13.4745 17.4644 13.0623C17.3516 12.6508 17.2702 12.1953 17.2702 11.8002V8.91016C17.2702 6.02437 14.906 3.66016 12.0202 3.66016Z" fill="#292D32"/>
<path fill-rule="evenodd" clip-rule="evenodd" d="M9.47213 2.92629C9.87158 1.90701 10.8633 1.18994 12.0204 1.18994C13.1776 1.18994 14.1693 1.90701 14.5687 2.92629C14.673 3.19236 14.617 3.49457 14.4243 3.70562C14.2316 3.91667 13.9358 3.99988 13.6613 3.9202C13.3839 3.83966 13.1039 3.77889 12.8202 3.74449L12.8174 3.74415C11.953 3.6361 11.1362 3.70023 10.3798 3.92013C10.1053 3.99991 9.80937 3.91676 9.61662 3.70571C9.42388 3.49466 9.36784 3.1924 9.47213 2.92629Z" fill="#292D32"/>
<path fill-rule="evenodd" clip-rule="evenodd" d="M9.77002 19.0601C9.77002 19.6726 10.0248 20.2442 10.4303 20.6497C10.8359 21.0553 11.4075 21.3101 12.02 21.3101C13.2558 21.3101 14.27 20.2958 14.27 19.0601H15.77C15.77 21.1243 14.0842 22.8101 12.02 22.8101C10.9925 22.8101 10.0442 22.3849 9.36969 21.7104C8.69521 21.0359 8.27002 20.0875 8.27002 19.0601H9.77002Z" fill="#292D32"/>
</svg>
