<svg width="24" height="24" viewBox="0 0 24 24" fill="none" xmlns="http://www.w3.org/2000/svg">
<path fill-rule="evenodd" clip-rule="evenodd" d="M4.15533 4.15533C3.2398 5.07086 2.75 6.57397 2.75 9V15C2.75 17.426 3.2398 18.9291 4.15533 19.8447C5.07086 20.7602 6.57397 21.25 9 21.25H15C17.426 21.25 18.9291 20.7602 19.8447 19.8447C20.7602 18.9291 21.25 17.426 21.25 15V9C21.25 6.57397 20.7602 5.07086 19.8447 4.15533C18.9291 3.2398 17.426 2.75 15 2.75H9C6.57397 2.75 5.07086 3.2398 4.15533 4.15533ZM3.09467 3.09467C4.42914 1.7602 6.42603 1.25 9 1.25H15C17.574 1.25 19.5709 1.7602 20.9053 3.09467C22.2398 4.42914 22.75 6.42603 22.75 9V15C22.75 17.574 22.2398 19.5709 20.9053 20.9053C19.5709 22.2398 17.574 22.75 15 22.75H9C6.42603 22.75 4.42914 22.2398 3.09467 20.9053C1.7602 19.5709 1.25 17.574 1.25 15V9C1.25 6.42603 1.7602 4.42914 3.09467 3.09467Z" fill="#292D32"/>
<path fill-rule="evenodd" clip-rule="evenodd" d="M15.6404 8.19965C15.9333 8.49254 15.9333 8.96742 15.6404 9.26031L9.1004 15.8003C8.80751 16.0932 8.33263 16.0932 8.03974 15.8003C7.74685 15.5074 7.74685 15.0325 8.03974 14.7396L14.5797 8.19965C14.8726 7.90676 15.3475 7.90676 15.6404 8.19965Z" fill="#292D32"/>
<path fill-rule="evenodd" clip-rule="evenodd" d="M8.98001 8.66016C8.71491 8.66016 8.5 8.87507 8.5 9.14017C8.5 9.40524 8.71489 9.62015 8.98001 9.62015C9.24511 9.62015 9.45999 9.40526 9.45999 9.14017C9.45999 8.87505 9.24508 8.66016 8.98001 8.66016ZM7 9.14017C7 8.04664 7.88649 7.16016 8.98001 7.16016C10.0736 7.16016 10.96 8.04667 10.96 9.14017C10.96 10.2337 10.0735 11.1201 8.98001 11.1201C7.88651 11.1201 7 10.2337 7 9.14017Z" fill="#292D32"/>
<path fill-rule="evenodd" clip-rule="evenodd" d="M15.52 14.3799C15.2549 14.3799 15.04 14.5948 15.04 14.8599C15.04 15.125 15.2549 15.3399 15.52 15.3399C15.7851 15.3399 16 15.125 16 14.8599C16 14.5948 15.7851 14.3799 15.52 14.3799ZM13.54 14.8599C13.54 13.7663 14.4265 12.8799 15.52 12.8799C16.6135 12.8799 17.5 13.7663 17.5 14.8599C17.5 15.9534 16.6135 16.8399 15.52 16.8399C14.4265 16.8399 13.54 15.9534 13.54 14.8599Z" fill="#292D32"/>
</svg>
