<svg width="24" height="24" viewBox="0 0 24 24" fill="none" xmlns="http://www.w3.org/2000/svg">
<path fill-rule="evenodd" clip-rule="evenodd" d="M8.87012 8.81006C6.38626 8.81006 4.37012 10.8262 4.37012 13.3101C4.37012 15.7939 6.38626 17.8101 8.87012 17.8101H16.8701C17.1463 17.8101 17.3701 18.0339 17.3701 18.3101C17.3701 18.5862 17.1463 18.8101 16.8701 18.8101H8.87012C5.83397 18.8101 3.37012 16.3462 3.37012 13.3101C3.37012 10.2739 5.83397 7.81006 8.87012 7.81006H19.8701C20.1463 7.81006 20.3701 8.03392 20.3701 8.31006C20.3701 8.5862 20.1463 8.81006 19.8701 8.81006H8.87012Z" fill="#292D32"/>
<path fill-rule="evenodd" clip-rule="evenodd" d="M17.0397 5.15961C17.3326 4.86672 17.8075 4.86672 18.1004 5.15961L20.6604 7.71961C20.9533 8.0125 20.9533 8.48738 20.6604 8.78027L18.1004 11.3403C17.8075 11.6332 17.3326 11.6332 17.0397 11.3403C16.7468 11.0474 16.7468 10.5725 17.0397 10.2796L19.0694 8.24994L17.0397 6.22027C16.7468 5.92738 16.7468 5.4525 17.0397 5.15961Z" fill="#292D32"/>
</svg>
