<svg width="24" height="24" viewBox="0 0 24 24" fill="none" xmlns="http://www.w3.org/2000/svg">
<path fill-rule="evenodd" clip-rule="evenodd" d="M2.83008 13.3199C2.83008 8.25376 6.93394 4.1499 12.0001 4.1499C13.1147 4.1499 14.1231 4.32883 15.0332 4.60084C15.2978 4.67991 15.4482 4.95849 15.3691 5.22307C15.2901 5.48765 15.0115 5.63804 14.7469 5.55897C13.9171 5.31098 13.0055 5.1499 12.0001 5.1499C7.48622 5.1499 3.83008 8.80605 3.83008 13.3199C3.83008 17.8441 7.4866 21.4999 12.0001 21.4999C16.5139 21.4999 20.1701 17.8438 20.1701 13.3299C20.1701 11.6523 19.6614 10.0883 18.7941 8.78725C18.6409 8.55749 18.703 8.24705 18.9327 8.09388C19.1625 7.9407 19.4729 8.00279 19.6261 8.23255C20.5988 9.69155 21.1701 11.4475 21.1701 13.3299C21.1701 18.396 17.0662 22.4999 12.0001 22.4999C6.93356 22.4999 2.83008 18.3957 2.83008 13.3199Z" fill="#292D32"/>
<path fill-rule="evenodd" clip-rule="evenodd" d="M12.7476 1.43431C13.06 1.16235 13.5337 1.19516 13.8057 1.50758L16.6957 4.82758C16.9677 5.14001 16.9349 5.61375 16.6224 5.88571C16.31 6.15767 15.8363 6.12487 15.5643 5.81244L12.6743 2.49244C12.4023 2.18001 12.4351 1.70627 12.7476 1.43431Z" fill="#292D32"/>
<path fill-rule="evenodd" clip-rule="evenodd" d="M16.7358 4.87768C16.9801 5.21224 16.9068 5.68143 16.5723 5.92565L13.2023 8.38565C12.8677 8.62987 12.3985 8.55663 12.1543 8.22207C11.9101 7.88751 11.9833 7.41832 12.3179 7.1741L15.6879 4.7141C16.0224 4.46988 16.4916 4.54312 16.7358 4.87768Z" fill="#292D32"/>
</svg>
