<svg width="24" height="24" viewBox="0 0 24 24" fill="none" xmlns="http://www.w3.org/2000/svg">
<path fill-rule="evenodd" clip-rule="evenodd" d="M12.0001 5.1499C10.9947 5.1499 10.0831 5.31098 9.25325 5.55897C8.98867 5.63804 8.71008 5.48765 8.63101 5.22307C8.55194 4.95849 8.70233 4.67991 8.96691 4.60084C9.8771 4.32883 10.8855 4.1499 12.0001 4.1499C17.0662 4.1499 21.1701 8.25376 21.1701 13.3199C21.1701 18.386 17.0662 22.4899 12.0001 22.4899C6.93394 22.4899 2.83008 18.386 2.83008 13.3199C2.83008 11.4375 3.40139 9.68155 4.37405 8.22255C4.52723 7.99279 4.83766 7.9307 5.06743 8.08388C5.29719 8.23705 5.35928 8.54749 5.2061 8.77725C4.33877 10.0783 3.83008 11.6423 3.83008 13.3199C3.83008 17.8338 7.48622 21.4899 12.0001 21.4899C16.5139 21.4899 20.1701 17.8338 20.1701 13.3199C20.1701 8.80605 16.5139 5.1499 12.0001 5.1499Z" fill="#292D32"/>
<path fill-rule="evenodd" clip-rule="evenodd" d="M11.2526 1.43431C11.565 1.70627 11.5978 2.18001 11.3258 2.49244L8.43583 5.81244C8.16386 6.12487 7.69012 6.15767 7.3777 5.88571C7.06527 5.61375 7.03247 5.14001 7.30443 4.82758L10.1944 1.50758C10.4664 1.19516 10.9401 1.16235 11.2526 1.43431Z" fill="#292D32"/>
<path fill-rule="evenodd" clip-rule="evenodd" d="M7.2644 4.87768C7.50861 4.54312 7.97781 4.46988 8.31237 4.7141L11.6824 7.1741C12.0169 7.41832 12.0902 7.88751 11.8459 8.22207C11.6017 8.55663 11.1325 8.62987 10.798 8.38565L7.42797 5.92565C7.09341 5.68143 7.02018 5.21224 7.2644 4.87768Z" fill="#292D32"/>
</svg>
