<svg width="24" height="24" viewBox="0 0 24 24" fill="none" xmlns="http://www.w3.org/2000/svg">
<path fill-rule="evenodd" clip-rule="evenodd" d="M5.10999 6.62988C3.8142 6.62988 2.75 7.69408 2.75 8.98987V20.3499C2.75 20.9089 2.94396 21.122 3.05893 21.1896C3.17463 21.2577 3.45676 21.3233 3.94654 21.0538C3.94702 21.0536 3.94749 21.0533 3.94796 21.053L7.87974 18.862C8.22721 18.6717 8.63399 18.5974 9 18.5974C9.36601 18.5974 9.77278 18.6718 10.1202 18.862L10.1251 18.8647L14.052 21.053C14.0525 21.0533 14.053 21.0535 14.0534 21.0538C14.5432 21.3234 14.8254 21.2577 14.9411 21.1896C15.056 21.122 15.25 20.9089 15.25 20.3499V8.98987C15.25 7.69408 14.1858 6.62988 12.89 6.62988H5.10999ZM1.25 8.98987C1.25 6.86565 2.98577 5.12988 5.10999 5.12988H12.89C15.0142 5.12988 16.75 6.86565 16.75 8.98987V20.3499C16.75 21.2409 16.424 22.0577 15.7014 22.4826C14.9797 22.907 14.1073 22.7963 13.328 22.3667L13.3249 22.365L9.39977 20.1777C9.39923 20.1774 9.39868 20.1771 9.39812 20.1768C9.32508 20.1374 9.18261 20.0974 9 20.0974C8.81739 20.0974 8.67492 20.1374 8.60188 20.1768C8.60132 20.1771 8.60077 20.1774 8.60023 20.1777L4.67508 22.365L4.67203 22.3667C3.89269 22.7963 3.02025 22.907 2.29857 22.4826C1.57604 22.0577 1.25 21.2409 1.25 20.3499V8.98987Z" fill="#292D32"/>
<path fill-rule="evenodd" clip-rule="evenodd" d="M11.11 2.75C9.8142 2.75 8.75 3.8142 8.75 5.10999V5.13H12.89C15.0142 5.13 16.75 6.86578 16.75 8.98999V15.3297L20.052 17.1732C20.0526 17.1735 20.0532 17.1738 20.0537 17.1741C20.5433 17.4434 20.8254 17.3778 20.9411 17.3097C21.056 17.2421 21.25 17.029 21.25 16.47V5.10999C21.25 3.8142 20.1858 2.75 18.89 2.75H11.11ZM7.25 5.10999C7.25 2.98577 8.98577 1.25 11.11 1.25H18.89C21.0142 1.25 22.75 2.98577 22.75 5.10999V16.47C22.75 17.361 22.424 18.1779 21.7014 18.6027C20.9797 19.0271 20.1073 18.9164 19.328 18.4868L19.3244 18.4848L15.6344 16.4249C15.3971 16.2924 15.25 16.0418 15.25 15.77V8.98999C15.25 7.6942 14.1858 6.63 12.89 6.63H8C7.58579 6.63 7.25 6.29422 7.25 5.88V5.10999Z" fill="#292D32"/>
</svg>
