<svg width="24" height="24" viewBox="0 0 24 24" fill="none" xmlns="http://www.w3.org/2000/svg">
<path fill-rule="evenodd" clip-rule="evenodd" d="M11 2.75C6.44365 2.75 2.75 6.44365 2.75 11C2.75 15.5563 6.44365 19.25 11 19.25C15.5563 19.25 19.25 15.5563 19.25 11C19.25 6.44365 15.5563 2.75 11 2.75ZM1.25 11C1.25 5.61522 5.61522 1.25 11 1.25C16.3848 1.25 20.75 5.61522 20.75 11C20.75 16.3848 16.3848 20.75 11 20.75C5.61522 20.75 1.25 16.3848 1.25 11Z" fill="#292D32"/>
<path fill-rule="evenodd" clip-rule="evenodd" d="M20.3531 17.9698C19.5837 17.964 18.8913 18.2675 18.4689 18.854C18.0468 19.4399 17.9764 20.1941 18.2178 20.925L18.218 20.9256C18.5199 21.8372 19.1097 22.6168 20.0153 22.7382C20.9207 22.8595 21.6945 22.2628 22.2246 21.4648L22.2247 21.4647C22.7284 20.7063 22.9419 19.8156 22.5323 19.0508C22.123 18.2863 21.2643 17.9706 20.3531 17.9698ZM19.642 20.4543C19.87 21.1425 20.1501 21.2428 20.2145 21.2515C20.2791 21.2601 20.5753 21.2368 20.9751 20.6349M19.642 20.4543C19.5235 20.0954 19.5931 19.8597 19.686 19.7306C19.778 19.603 19.9742 19.4665 20.3433 19.4698L20.3433 19.4698H20.3499C20.9775 19.4698 21.1673 19.6792 21.21 19.7589C21.2529 19.839 21.3215 20.1133 20.9752 20.6348" fill="#292D32"/>
</svg>
