<svg width="24" height="24" viewBox="0 0 24 24" fill="none" xmlns="http://www.w3.org/2000/svg">
<path fill-rule="evenodd" clip-rule="evenodd" d="M3.27145 3.27145C4.53609 2.0068 6.45069 1.5 9 1.5H15C17.5493 1.5 19.4639 2.0068 20.7286 3.27145C21.9932 4.53609 22.5 6.45069 22.5 9V15C22.5 17.5493 21.9932 19.4639 20.7286 20.7286C19.4639 21.9932 17.5493 22.5 15 22.5H9C6.45069 22.5 4.53609 21.9932 3.27145 20.7286C2.0068 19.4639 1.5 17.5493 1.5 15V9C1.5 6.45069 2.0068 4.53609 3.27145 3.27145ZM3.97855 3.97855C2.9932 4.96391 2.5 6.54931 2.5 9V15C2.5 17.4507 2.9932 19.0361 3.97855 20.0214C4.96391 21.0068 6.54931 21.5 9 21.5H15C17.4507 21.5 19.0361 21.0068 20.0214 20.0214C21.0068 19.0361 21.5 17.4507 21.5 15V9C21.5 6.54931 21.0068 4.96391 20.0214 3.97855C19.0361 2.9932 17.4507 2.5 15 2.5H9C6.54931 2.5 4.96391 2.9932 3.97855 3.97855Z" fill="#292D32"/>
<path fill-rule="evenodd" clip-rule="evenodd" d="M11.6464 6.15621C11.8417 5.96095 12.1583 5.96095 12.3536 6.15621L15.3536 9.15621C15.5488 9.35147 15.5488 9.66806 15.3536 9.86332C15.1583 10.0586 14.8417 10.0586 14.6464 9.86332L12 7.21687L9.35355 9.86332C9.15829 10.0586 8.84171 10.0586 8.64645 9.86332C8.45118 9.66806 8.45118 9.35147 8.64645 9.15621L11.6464 6.15621Z" fill="#292D32"/>
<path fill-rule="evenodd" clip-rule="evenodd" d="M12 6.00977C12.2761 6.00977 12.5 6.23362 12.5 6.50977V14.5098C12.5 14.7859 12.2761 15.0098 12 15.0098C11.7239 15.0098 11.5 14.7859 11.5 14.5098V6.50977C11.5 6.23362 11.7239 6.00977 12 6.00977Z" fill="#292D32"/>
<path fill-rule="evenodd" clip-rule="evenodd" d="M5.52567 16.3514C5.6132 16.0895 5.89647 15.9482 6.15837 16.0357C9.94551 17.3013 14.0543 17.3013 17.8414 16.0357C18.1033 15.9482 18.3866 16.0895 18.4741 16.3514C18.5616 16.6133 18.4203 16.8966 18.1584 16.9841C14.1655 18.3185 9.83427 18.3185 5.84141 16.9841C5.57951 16.8966 5.43815 16.6133 5.52567 16.3514Z" fill="#292D32"/>
</svg>
