<svg width="24" height="24" viewBox="0 0 24 24" fill="none" xmlns="http://www.w3.org/2000/svg">
<path fill-rule="evenodd" clip-rule="evenodd" d="M3.09467 3.09467C4.42914 1.7602 6.42603 1.25 9 1.25H15C17.574 1.25 19.5709 1.7602 20.9053 3.09467C22.2398 4.42914 22.75 6.42603 22.75 9V15C22.75 17.574 22.2398 19.5709 20.9053 20.9053C19.5709 22.2398 17.574 22.75 15 22.75H9C6.42603 22.75 4.42914 22.2398 3.09467 20.9053C1.7602 19.5709 1.25 17.574 1.25 15V9C1.25 6.42603 1.7602 4.42914 3.09467 3.09467ZM4.15533 4.15533C3.2398 5.07086 2.75 6.57397 2.75 9V15C2.75 17.426 3.2398 18.9291 4.15533 19.8447C5.07086 20.7602 6.57397 21.25 9 21.25H15C17.426 21.25 18.9291 20.7602 19.8447 19.8447C20.7602 18.9291 21.25 17.426 21.25 15V9C21.25 6.57397 20.7602 5.07086 19.8447 4.15533C18.9291 3.2398 17.426 2.75 15 2.75H9C6.57397 2.75 5.07086 3.2398 4.15533 4.15533Z" fill="#292D32"/>
<path fill-rule="evenodd" clip-rule="evenodd" d="M15.5698 13.8501C15.984 13.8501 16.3198 14.1859 16.3198 14.6001V18.5001C16.3198 18.9143 15.984 19.2501 15.5698 19.2501C15.1556 19.2501 14.8198 18.9143 14.8198 18.5001V14.6001C14.8198 14.1859 15.1556 13.8501 15.5698 13.8501Z" fill="#292D32"/>
<path fill-rule="evenodd" clip-rule="evenodd" d="M15.5698 4.75C15.984 4.75 16.3198 5.08579 16.3198 5.5V7.45C16.3198 7.86421 15.984 8.2 15.5698 8.2C15.1556 8.2 14.8198 7.86421 14.8198 7.45V5.5C14.8198 5.08579 15.1556 4.75 15.5698 4.75Z" fill="#292D32"/>
<path fill-rule="evenodd" clip-rule="evenodd" d="M15.5702 8.2002C14.5485 8.2002 13.7202 9.02847 13.7202 10.0502C13.7202 11.0719 14.5485 11.9002 15.5702 11.9002C16.5919 11.9002 17.4202 11.0719 17.4202 10.0502C17.4202 9.02847 16.5919 8.2002 15.5702 8.2002ZM12.2202 10.0502C12.2202 8.20004 13.7201 6.7002 15.5702 6.7002C17.4204 6.7002 18.9202 8.20004 18.9202 10.0502C18.9202 11.9004 17.4204 13.4002 15.5702 13.4002C13.7201 13.4002 12.2202 11.9003 12.2202 10.0502Z" fill="#292D32"/>
<path fill-rule="evenodd" clip-rule="evenodd" d="M8.43018 15.7998C8.84439 15.7998 9.18018 16.1356 9.18018 16.5498V18.4998C9.18018 18.914 8.84439 19.2498 8.43018 19.2498C8.01596 19.2498 7.68018 18.914 7.68018 18.4998V16.5498C7.68018 16.1356 8.01596 15.7998 8.43018 15.7998Z" fill="#292D32"/>
<path fill-rule="evenodd" clip-rule="evenodd" d="M8.43018 4.75C8.84439 4.75 9.18018 5.08579 9.18018 5.5V9.4C9.18018 9.81421 8.84439 10.15 8.43018 10.15C8.01596 10.15 7.68018 9.81421 7.68018 9.4V5.5C7.68018 5.08579 8.01596 4.75 8.43018 4.75Z" fill="#292D32"/>
<path fill-rule="evenodd" clip-rule="evenodd" d="M8.43008 12.1001C7.40835 12.1001 6.58008 12.9284 6.58008 13.9501C6.58008 14.9718 7.40835 15.8001 8.43008 15.8001C9.45181 15.8001 10.2801 14.9718 10.2801 13.9501C10.2801 12.9284 9.45181 12.1001 8.43008 12.1001ZM5.08008 13.9501C5.08008 12.0999 6.57992 10.6001 8.43008 10.6001C10.2802 10.6001 11.7801 12.0999 11.7801 13.9501C11.7801 15.8003 10.2802 17.3001 8.43008 17.3001C6.57992 17.3001 5.08008 15.8003 5.08008 13.9501Z" fill="#292D32"/>
</svg>
