<svg width="24" height="24" viewBox="0 0 24 24" fill="none" xmlns="http://www.w3.org/2000/svg">
<path fill-rule="evenodd" clip-rule="evenodd" d="M12.0027 1.24756C12.6109 1.24756 13.2561 1.33178 13.7871 1.52546L13.7934 1.52773L18.7828 3.39756C18.7828 3.39754 18.7829 3.39758 18.7828 3.39756C19.5298 3.6769 20.1665 4.23765 20.6132 4.88337C21.06 5.52922 21.3602 6.32273 21.3602 7.12006V14.5501C21.3602 15.289 21.1213 16.0878 20.7714 16.7833C20.4214 17.4791 19.9221 18.1476 19.3291 18.5908L15.0308 21.7995C15.0304 21.7999 15.03 21.8002 15.0296 21.8005C14.1719 22.4448 13.0734 22.7451 12.0102 22.7451C10.9469 22.7451 9.84852 22.4448 8.99083 21.8006C8.99038 21.8002 8.98993 21.7999 8.98948 21.7995L4.6915 18.5911C4.09851 18.1479 3.59887 17.4791 3.24889 16.7833C2.89905 16.0878 2.66016 15.289 2.66016 14.5501V7.12006C2.66016 6.32661 2.9611 5.53537 3.40757 4.89146C3.85394 4.24768 4.49005 3.68731 5.23654 3.40792C5.23685 3.4078 5.23717 3.40768 5.23748 3.40756L10.2257 1.52822L10.2277 1.52746C10.7524 1.33153 11.3953 1.24756 12.0027 1.24756ZM10.7535 2.93229C10.7532 2.93241 10.7529 2.93253 10.7526 2.93265L5.76283 4.81256C5.35973 4.96328 4.95118 5.29771 4.64025 5.74616C4.32921 6.19474 4.16016 6.6935 4.16016 7.12006V14.5501C4.16016 14.9911 4.31126 15.5573 4.58892 16.1093C4.86636 16.6609 5.23191 17.1222 5.58881 17.3891M5.58881 17.3891L9.89084 20.6006C10.4429 21.0156 11.209 21.2451 12.0102 21.2451C12.8113 21.2451 13.5774 21.0156 14.1295 20.6006L14.1315 20.5991L18.4312 17.3893C18.7882 17.1225 19.1539 16.661 19.4314 16.1093C19.7091 15.5573 19.8602 14.9911 19.8602 14.5501V7.12006C19.8602 6.68739 19.6903 6.1859 19.3796 5.73675C19.0688 5.2875 18.6605 4.95324 18.2575 4.80256L13.2703 2.93362C12.9515 2.81792 12.4929 2.74756 12.0027 2.74756C11.5105 2.74756 11.0589 2.81844 10.7535 2.93229" fill="#292D32"/>
<path fill-rule="evenodd" clip-rule="evenodd" d="M9.37006 8.65961C9.66295 8.36672 10.1378 8.36672 10.4307 8.65961L14.6807 12.9096C14.9736 13.2025 14.9736 13.6774 14.6807 13.9703C14.3878 14.2632 13.913 14.2632 13.6201 13.9703L9.37006 9.72027C9.07717 9.42738 9.07717 8.9525 9.37006 8.65961Z" fill="#292D32"/>
<path fill-rule="evenodd" clip-rule="evenodd" d="M14.6304 8.7099C14.9233 9.0028 14.9233 9.47767 14.6304 9.77056L10.3804 14.0206C10.0875 14.3135 9.61266 14.3135 9.31977 14.0206C9.02687 13.7277 9.02687 13.2528 9.31977 12.9599L13.5698 8.7099C13.8627 8.41701 14.3375 8.41701 14.6304 8.7099Z" fill="#292D32"/>
</svg>
