<svg width="24" height="24" viewBox="0 0 24 24" fill="none" xmlns="http://www.w3.org/2000/svg">
<path fill-rule="evenodd" clip-rule="evenodd" d="M3.01001 10.4702C3.42422 10.4702 3.76001 10.806 3.76001 11.2202V15.7102C3.76001 17.8808 4.19964 19.2067 5.00159 20.0086C5.80354 20.8106 7.12939 21.2502 9.30001 21.2502H14.69C16.8606 21.2502 18.1865 20.8106 18.9884 20.0086C19.7904 19.2067 20.23 17.8808 20.23 15.7102V11.2202C20.23 10.806 20.5658 10.4702 20.98 10.4702C21.3942 10.4702 21.73 10.806 21.73 11.2202V15.7102C21.73 18.0296 21.2696 19.8487 20.0491 21.0693C18.8285 22.2898 17.0094 22.7502 14.69 22.7502H9.30001C6.98063 22.7502 5.16148 22.2898 3.94093 21.0693C2.72038 19.8487 2.26001 18.0296 2.26001 15.7102V11.2202C2.26001 10.806 2.5958 10.4702 3.01001 10.4702Z" fill="#292D32"/>
<path fill-rule="evenodd" clip-rule="evenodd" d="M8.92379 1.92515C8.96223 1.54185 9.28481 1.25 9.67004 1.25H14.34C14.7257 1.25 15.0485 1.54247 15.0864 1.92626L15.7464 8.60626C15.9696 10.8757 14.275 12.75 12 12.75C9.72509 12.75 8.03042 10.876 8.25364 8.60658L8.92379 1.92515ZM10.3486 2.75L9.74644 8.75342C9.74642 8.75364 9.74646 8.75319 9.74644 8.75342C9.61005 10.1437 10.6152 11.25 12 11.25C13.385 11.25 14.3903 10.1442 14.2537 8.75374C14.2537 8.75363 14.2537 8.75385 14.2537 8.75374L13.6605 2.75H10.3486Z" fill="#292D32"/>
<path fill-rule="evenodd" clip-rule="evenodd" d="M13.744 1.49671C13.8862 1.33962 14.0882 1.25 14.3001 1.25H17.3501C18.7369 1.25 19.8707 1.51137 20.6964 2.27407C21.5123 3.02763 21.8853 4.14208 22.073 5.49714C22.0742 5.50608 22.0753 5.51505 22.0762 5.52403L22.3564 8.27574C22.6001 10.7256 20.7751 12.75 18.3101 12.75C16.2757 12.75 14.4634 11.1194 14.254 9.08687L14.2538 9.08452L13.5538 2.07452C13.5327 1.86369 13.6018 1.65379 13.744 1.49671ZM15.1287 2.75L15.7461 8.93313C15.7461 8.9335 15.7462 8.93386 15.7462 8.93422C15.8774 10.2012 17.0447 11.25 18.3101 11.25C19.8847 11.25 21.0196 9.99482 20.8638 8.4251C20.8638 8.42482 20.8638 8.42538 20.8638 8.4251L20.5853 5.68966C20.4126 4.45307 20.1063 3.77096 19.6787 3.37593C19.2594 2.98863 18.5832 2.75 17.3501 2.75H15.1287Z" fill="#292D32"/>
<path fill-rule="evenodd" clip-rule="evenodd" d="M3.24354 2.27407C4.06924 1.51137 5.20311 1.25 6.58994 1.25H9.63994C9.85183 1.25 10.0538 1.33963 10.196 1.49675C10.3382 1.65386 10.4073 1.86378 10.3862 2.07463L9.68643 9.08239C9.6864 9.08271 9.68647 9.08207 9.68643 9.08239C9.48842 11.1191 7.67301 12.75 5.63994 12.75C3.17503 12.75 1.35011 10.7259 1.59357 8.27627C1.59355 8.27644 1.59359 8.27609 1.59357 8.27627L1.86353 5.52672C1.8645 5.51683 1.86566 5.50697 1.86702 5.49714C2.05465 4.14208 2.42772 3.02763 3.24354 2.27407ZM3.35487 5.68835L3.08635 8.42328C2.93012 9.9934 4.06502 11.25 5.63994 11.25C6.90655 11.25 8.07098 10.2005 8.19344 8.93761L8.19362 8.93571L8.8112 2.75H6.58994C5.35677 2.75 4.68063 2.98863 4.26133 3.37593C3.83382 3.77082 3.52762 4.45258 3.35487 5.68835Z" fill="#292D32"/>
<path fill-rule="evenodd" clip-rule="evenodd" d="M9.59342 17.0934C10.2005 16.4863 11.0505 16.25 12 16.25C12.9495 16.25 13.7995 16.4863 14.4066 17.0934C15.0137 17.7005 15.25 18.5505 15.25 19.5V22C15.25 22.4142 14.9142 22.75 14.5 22.75H9.5C9.08579 22.75 8.75 22.4142 8.75 22V19.5C8.75 18.5505 8.98634 17.7005 9.59342 17.0934ZM10.6541 18.1541C10.4287 18.3795 10.25 18.7795 10.25 19.5V21.25H13.75V19.5C13.75 18.7795 13.5713 18.3795 13.3459 18.1541C13.1205 17.9287 12.7205 17.75 12 17.75C11.2795 17.75 10.8795 17.9287 10.6541 18.1541Z" fill="#292D32"/>
</svg>
