<svg width="24" height="24" viewBox="0 0 24 24" fill="none" xmlns="http://www.w3.org/2000/svg">
<path fill-rule="evenodd" clip-rule="evenodd" d="M21.0101 10.4697C21.4243 10.4697 21.7601 10.8055 21.7601 11.2197V15.7097C21.7601 18.0282 21.3026 19.8476 20.0832 21.0685C18.8637 22.2896 17.044 22.7498 14.7201 22.7498H9.33011C8.72537 22.7498 8.15838 22.7186 7.62401 22.6422C7.21396 22.5837 6.92904 22.2038 6.98761 21.7937C7.04619 21.3837 7.42609 21.0987 7.83614 21.1573C8.28177 21.221 8.77485 21.2498 9.33011 21.2498H14.7201C16.8962 21.2498 18.2215 20.8099 19.0219 20.0085C19.8226 19.2069 20.2601 17.8813 20.2601 15.7097V11.2197C20.2601 10.8055 20.5959 10.4697 21.0101 10.4697Z" fill="#292D32"/>
<path fill-rule="evenodd" clip-rule="evenodd" d="M3.04004 10.4697C3.45425 10.4697 3.79004 10.8055 3.79004 11.2197V15.5198C3.79004 15.934 3.45425 16.2698 3.04004 16.2698C2.62583 16.2698 2.29004 15.934 2.29004 15.5198V11.2197C2.29004 10.8055 2.62583 10.4697 3.04004 10.4697Z" fill="#292D32"/>
<path fill-rule="evenodd" clip-rule="evenodd" d="M8.94371 1.92515C8.98215 1.54185 9.30473 1.25 9.68996 1.25H14.3599C14.7452 1.25 15.0678 1.54184 15.1062 1.92515L15.7764 8.60664C15.9996 10.876 14.3049 12.75 12.03 12.75C9.75846 12.75 8.05003 10.8794 8.27358 8.60664L8.94371 1.92515ZM10.3685 2.75L9.76638 8.75347C9.76635 8.7537 9.7664 8.75324 9.76638 8.75347C9.63034 10.1404 10.6417 11.25 12.03 11.25C13.4148 11.25 14.42 10.1445 14.2837 8.75423C14.2836 8.75397 14.2837 8.75448 14.2837 8.75423L13.6814 2.75H10.3685Z" fill="#292D32"/>
<path fill-rule="evenodd" clip-rule="evenodd" d="M13.764 1.49671C13.9062 1.33962 14.1082 1.25 14.3201 1.25H17.3701C18.7569 1.25 19.8907 1.51137 20.7164 2.27405C21.5323 3.02762 21.9053 4.14206 22.093 5.49711C22.0942 5.50605 22.0953 5.51502 22.0962 5.524L22.3764 8.27572C22.6202 10.7256 20.7952 12.75 18.3301 12.75C16.2921 12.75 14.4954 11.1166 14.2745 9.09135L14.2738 9.08454L13.5738 2.07452C13.5527 1.86369 13.6218 1.6538 13.764 1.49671ZM15.1487 2.75L15.766 8.93184C15.9067 10.2052 17.0691 11.25 18.3301 11.25C19.9047 11.25 21.0396 9.99477 20.8838 8.42501C20.8838 8.42475 20.8839 8.42527 20.8838 8.42501L20.6053 5.68964C20.4326 4.45304 20.1263 3.77094 19.6987 3.37592C19.2794 2.98862 18.6032 2.75 17.3701 2.75H15.1487Z" fill="#292D32"/>
<path fill-rule="evenodd" clip-rule="evenodd" d="M3.2735 2.27405C4.09919 1.51137 5.23306 1.25 6.61988 1.25H9.66987C9.88176 1.25 10.0838 1.33963 10.226 1.49674C10.3681 1.65386 10.4372 1.86378 10.4161 2.07462L9.71635 9.0824C9.71632 9.08275 9.71628 9.0831 9.71625 9.08346C9.51818 11.1201 7.7029 12.75 5.66987 12.75C3.20788 12.75 1.36948 10.7287 1.61355 8.27572L1.61373 8.274L1.89376 5.524C1.89467 5.51502 1.89575 5.50605 1.89699 5.49711C2.08461 4.14206 2.45768 3.02762 3.2735 2.27405ZM3.38465 5.68964L3.10618 8.42424C3.10616 8.4245 3.10621 8.42397 3.10618 8.42424C2.95073 9.99091 4.09213 11.25 5.66987 11.25C6.93648 11.25 8.1009 10.2005 8.22336 8.93762L8.22355 8.9357L8.84113 2.75H6.61988C5.3867 2.75 4.71058 2.98862 4.29128 3.37592C3.86363 3.77094 3.55736 4.45304 3.38465 5.68964Z" fill="#292D32"/>
<path fill-rule="evenodd" clip-rule="evenodd" d="M5 15.75C4.42521 15.75 3.88242 15.9036 3.41087 16.1719C3.40374 16.1759 3.39655 16.1799 3.38929 16.1837C3.24571 16.2593 3.10831 16.3506 2.97678 16.459L2.96626 16.4676L2.96618 16.4675C2.221 17.0588 1.75 17.9745 1.75 19C1.75 19.6094 1.92053 20.1834 2.2184 20.6664C2.22367 20.6749 2.22877 20.6836 2.2337 20.6924C2.29433 20.8002 2.37353 20.91 2.46947 21.0219C2.47299 21.026 2.47647 21.0302 2.4799 21.0344C2.48809 21.0427 2.49872 21.0539 2.50962 21.0659C2.52345 21.0812 2.54059 21.1011 2.55912 21.1252C3.14182 21.8115 4.01778 22.25 5 22.25C5.82269 22.25 6.56449 21.9499 7.12828 21.4425C7.13605 21.4355 7.14397 21.4287 7.15202 21.422C7.17979 21.3885 7.21044 21.3574 7.24363 21.3291C7.43823 21.1633 7.61789 20.9419 7.77509 20.6772L7.78152 20.6663L7.7816 20.6664C8.07947 20.1834 8.25 19.6094 8.25 19C8.25 18.1507 7.91943 17.3784 7.37713 16.7868L7.37503 16.7845L7.37504 16.7845C7.28866 16.6895 7.2152 16.6189 7.14998 16.57C7.13531 16.559 7.12106 16.5474 7.10724 16.5354C6.53997 16.0411 5.81383 15.75 5 15.75ZM2.67969 14.8621C3.36572 14.4741 4.15912 14.25 5 14.25C6.17689 14.25 7.24317 14.6722 8.07311 15.3876C8.2372 15.5139 8.3755 15.6552 8.48392 15.7744C9.261 16.6227 9.75 17.7499 9.75 19C9.75 19.8884 9.50174 20.7325 9.06166 21.4484C8.85102 21.8021 8.58917 22.1408 8.26981 22.4244C8.22143 22.4798 8.1691 22.5297 8.11074 22.5762C7.27719 23.3174 6.18732 23.75 5 23.75C3.55017 23.75 2.25229 23.0955 1.3949 22.0714C1.39329 22.0695 1.39169 22.0676 1.3901 22.0656C1.38191 22.0572 1.37128 22.0461 1.36037 22.0341C1.34694 22.0192 1.3304 22.0001 1.31248 21.9768C1.1778 21.8177 1.04664 21.6392 0.933962 21.4412C0.496613 20.7269 0.25 19.8855 0.25 19C0.25 17.5079 0.936775 16.1655 2.02852 15.2967C2.23223 15.1295 2.44935 14.9843 2.67969 14.8621Z" fill="#292D32"/>
<path fill-rule="evenodd" clip-rule="evenodd" d="M2.76001 18.98C2.76001 18.5658 3.0958 18.23 3.51001 18.23H6.48999C6.9042 18.23 7.23999 18.5658 7.23999 18.98C7.23999 19.3942 6.9042 19.73 6.48999 19.73H3.51001C3.0958 19.73 2.76001 19.3942 2.76001 18.98Z" fill="#292D32"/>
</svg>
