<svg width="24" height="24" viewBox="0 0 24 24" fill="none" xmlns="http://www.w3.org/2000/svg">
<path fill-rule="evenodd" clip-rule="evenodd" d="M5.80178 8.01984C5.43018 8.4623 5.29839 9.11622 5.18518 10.1145L5.18463 10.1194L4.28444 17.6208C4.14301 18.7805 4.2776 19.6639 4.70198 20.2453C5.10042 20.7912 5.89085 21.25 7.50995 21.25H16.5C18.113 21.25 18.9016 20.7918 19.3004 20.2453C19.7256 19.6629 19.8619 18.7784 19.7252 17.6184C19.7252 17.6182 19.7252 17.6185 19.7252 17.6184L18.8252 10.1183C18.7067 9.11887 18.5734 8.46414 18.1999 8.0205C17.8667 7.62466 17.2 7.25 15.6 7.25H8.39995C6.79955 7.25 6.13354 7.62481 5.80178 8.01984ZM4.65313 7.05516C5.39637 6.17019 6.60035 5.75 8.39995 5.75H15.6C17.3999 5.75 18.6032 6.17034 19.3475 7.0545C20.0513 7.8906 20.2031 9.00045 20.3146 9.94084C20.3146 9.94056 20.3147 9.94113 20.3146 9.94084L21.2148 17.4422C21.368 18.7419 21.2693 20.0922 20.512 21.1297C19.7284 22.2032 18.3869 22.75 16.5 22.75H7.50995C5.61905 22.75 4.27448 22.2038 3.49042 21.1297C2.73245 20.0913 2.63693 18.74 2.79538 17.44C2.79535 17.4402 2.79541 17.4397 2.79538 17.44L3.69501 9.94306C3.80178 9.00186 3.95034 7.89197 4.65313 7.05516Z" fill="#292D32"/>
<path fill-rule="evenodd" clip-rule="evenodd" d="M9.21783 3.21783C8.93991 3.49575 8.75 3.92044 8.75 4.5V8C8.75 8.41421 8.41421 8.75 8 8.75C7.58579 8.75 7.25 8.41421 7.25 8V4.5C7.25 3.57956 7.56009 2.75425 8.15717 2.15717C8.75425 1.56009 9.57956 1.25 10.5 1.25H13.5C14.4204 1.25 15.2457 1.56009 15.8428 2.15717C16.4399 2.75425 16.75 3.57956 16.75 4.5V8C16.75 8.41421 16.4142 8.75 16 8.75C15.5858 8.75 15.25 8.41421 15.25 8V4.5C15.25 3.92044 15.0601 3.49575 14.7822 3.21783C14.5043 2.93991 14.0796 2.75 13.5 2.75H10.5C9.92044 2.75 9.49575 2.93991 9.21783 3.21783Z" fill="#292D32"/>
<path fill-rule="evenodd" clip-rule="evenodd" d="M7.25 17.0298C7.25 16.6156 7.58579 16.2798 8 16.2798H20.41C20.8242 16.2798 21.16 16.6156 21.16 17.0298C21.16 17.444 20.8242 17.7798 20.41 17.7798H8C7.58579 17.7798 7.25 17.444 7.25 17.0298Z" fill="#292D32"/>
</svg>
