<svg width="24" height="24" viewBox="0 0 24 24" fill="none" xmlns="http://www.w3.org/2000/svg">
<path fill-rule="evenodd" clip-rule="evenodd" d="M10.9301 3.84695C10.93 3.84714 10.9302 3.84676 10.9301 3.84695L9.17203 7.36306C8.98469 7.74391 8.67178 8.06932 8.35042 8.3076C8.02813 8.54656 7.62764 8.74957 7.21553 8.81955L7.21289 8.82L4.02327 9.34993C4.02314 9.34995 4.02339 9.34991 4.02327 9.34993C3.13367 9.49828 2.84387 9.84863 2.77693 10.0583C2.70974 10.2687 2.7433 10.7228 3.3803 11.3598L5.8603 13.8398C6.18269 14.1622 6.39834 14.5933 6.51726 15.0087C6.63627 15.4245 6.68078 15.9026 6.58181 16.3442L6.5807 16.3491L5.87068 19.4191C5.60626 20.5618 5.87372 20.9789 6.00954 21.078C6.14596 21.1776 6.62632 21.3051 7.6372 20.7052L10.6328 18.9319C11.0487 18.6898 11.5468 18.5901 12.0037 18.5901C12.4598 18.5901 12.9581 18.6896 13.372 18.9347C13.3719 18.9347 13.3721 18.9348 13.372 18.9347L16.3614 20.7044C16.3612 20.7043 16.3616 20.7045 16.3614 20.7044C17.3805 21.3062 17.8604 21.1793 17.9944 21.0816C18.1271 20.9849 18.3945 20.5703 18.1291 19.4186L17.4181 16.3442C17.3191 15.9026 17.3637 15.4245 17.4827 15.0087C17.6016 14.5933 17.8172 14.1622 18.1396 13.8398L20.6196 11.3598L20.6215 11.358C21.2626 10.7212 21.2942 10.2683 21.2272 10.0596C21.1596 9.84938 20.8674 9.49847 19.977 9.34999C19.9769 9.34997 19.9772 9.35002 19.977 9.34999L16.787 8.81999C16.3707 8.7506 15.9671 8.54836 15.6422 8.30863C15.3186 8.06989 15.0054 7.74417 14.8179 7.36312L13.0584 3.84414C12.6377 2.99812 12.21 2.82764 11.9987 2.82764C11.7861 2.82764 11.3558 3.00028 10.9301 3.84695ZM14.4012 3.17547C13.8719 2.11183 13.0447 1.32764 11.9987 1.32764C10.9539 1.32764 10.1241 2.11049 9.58985 3.17332L7.82915 6.69473L7.82642 6.70024C7.77359 6.80809 7.64731 6.96159 7.45702 7.10268C7.26737 7.24329 7.0834 7.32024 6.96547 7.34054C6.96511 7.3406 6.96476 7.34066 6.96441 7.34072L3.77705 7.87028C2.62694 8.06196 1.66106 8.62167 1.34801 9.60199C1.03519 10.5816 1.49663 11.5975 2.31964 12.4205L4.79964 14.9005C4.89724 14.9981 5.0066 15.182 5.07518 15.4215C5.14334 15.6597 5.1491 15.8756 5.11856 16.0141C5.11842 16.0148 5.11827 16.0155 5.11813 16.0161L4.40928 19.0811C4.40927 19.0811 4.40928 19.081 4.40928 19.0811C4.11373 20.3583 4.21624 21.6264 5.12539 22.2897C6.03398 22.9527 7.27361 22.6652 8.40273 21.9951L11.3871 20.2284C11.3878 20.228 11.3884 20.2277 11.389 20.2273C11.5232 20.1499 11.7443 20.0901 12.0037 20.0901C12.265 20.0901 12.4816 20.1507 12.6076 20.2254L15.5979 21.9955C16.7284 22.6633 17.9695 22.956 18.878 22.2937C19.7878 21.6304 19.8854 20.36 19.5908 19.0817L18.8818 16.0161C18.8817 16.0155 18.8815 16.0148 18.8814 16.0141C18.8508 15.8756 18.8566 15.6597 18.9248 15.4215C18.9933 15.182 19.1027 14.9981 19.2003 14.9005L21.6785 12.4223C21.6788 12.4219 21.6792 12.4216 21.6795 12.4213C22.5077 11.5983 22.9706 10.5816 22.6552 9.60063C22.3403 8.62093 21.3726 8.0619 20.2233 7.87034L17.0333 7.34034C17.0331 7.34032 17.0334 7.34036 17.0333 7.34034M14.4012 3.17547C14.4011 3.17526 14.4013 3.17569 14.4012 3.17547V3.17547Z" fill="#292D32"/>
</svg>
