<svg width="24" height="24" viewBox="0 0 24 24" fill="none" xmlns="http://www.w3.org/2000/svg">
<path fill-rule="evenodd" clip-rule="evenodd" d="M1.5 12C1.5 6.22386 6.22386 1.5 12 1.5C17.7761 1.5 22.5 6.22386 22.5 12C22.5 17.7761 17.7761 22.5 12 22.5C6.22386 22.5 1.5 17.7761 1.5 12ZM12 2.5C6.77614 2.5 2.5 6.77614 2.5 12C2.5 17.2239 6.77614 21.5 12 21.5C17.2239 21.5 21.5 17.2239 21.5 12C21.5 6.77614 17.2239 2.5 12 2.5Z" fill="#292D32"/>
<path fill-rule="evenodd" clip-rule="evenodd" d="M16.6039 8.81668C16.799 9.01212 16.7987 9.3287 16.6032 9.52379L10.9332 15.1838C10.7379 15.3788 10.4216 15.3786 10.2264 15.1835L7.39645 12.3535C7.20118 12.1582 7.20118 11.8416 7.39645 11.6464C7.59171 11.4511 7.90829 11.4511 8.10355 11.6464L10.5803 14.1231L15.8968 8.81606C16.0922 8.62097 16.4088 8.62125 16.6039 8.81668Z" fill="#292D32"/>
</svg>
