<svg width="24" height="24" viewBox="0 0 24 24" fill="none" xmlns="http://www.w3.org/2000/svg">
<path fill-rule="evenodd" clip-rule="evenodd" d="M3.27145 3.27145C4.53609 2.0068 6.45069 1.5 9 1.5H15C17.5493 1.5 19.4639 2.0068 20.7286 3.27145C21.9932 4.53609 22.5 6.45069 22.5 9V15C22.5 17.5493 21.9932 19.4639 20.7286 20.7286C19.4639 21.9932 17.5493 22.5 15 22.5H9C6.45069 22.5 4.53609 21.9932 3.27145 20.7286C2.0068 19.4639 1.5 17.5493 1.5 15V9C1.5 6.45069 2.0068 4.53609 3.27145 3.27145ZM3.97855 3.97855C2.9932 4.96391 2.5 6.54931 2.5 9V15C2.5 17.4507 2.9932 19.0361 3.97855 20.0214C4.96391 21.0068 6.54931 21.5 9 21.5H15C17.4507 21.5 19.0361 21.0068 20.0214 20.0214C21.0068 19.0361 21.5 17.4507 21.5 15V9C21.5 6.54931 21.0068 4.96391 20.0214 3.97855C19.0361 2.9932 17.4507 2.5 15 2.5H9C6.54931 2.5 4.96391 2.9932 3.97855 3.97855Z" fill="#292D32"/>
<path fill-rule="evenodd" clip-rule="evenodd" d="M16.6039 8.81668C16.799 9.01212 16.7987 9.3287 16.6032 9.52379L10.9332 15.1838C10.7379 15.3788 10.4216 15.3786 10.2264 15.1835L7.39645 12.3535C7.20118 12.1582 7.20118 11.8416 7.39645 11.6464C7.59171 11.4511 7.90829 11.4511 8.10355 11.6464L10.5803 14.1231L15.8968 8.81606C16.0922 8.62097 16.4088 8.62125 16.6039 8.81668Z" fill="#292D32"/>
</svg>
