<svg width="24" height="24" viewBox="0 0 24 24" fill="none" xmlns="http://www.w3.org/2000/svg">
<path fill-rule="evenodd" clip-rule="evenodd" d="M6.16004 1.93072C6.83428 1.48618 7.71027 1.25 8.76021 1.25H15.2402C16.2902 1.25 17.1661 1.48618 17.8404 1.93072C18.5212 2.3796 18.9549 3.01492 19.1458 3.72544C19.5214 5.12387 18.9444 6.70561 17.764 7.77557C17.764 7.77561 17.7641 7.77553 17.764 7.77557L13.1154 12L17.7639 16.2243C17.7638 16.2242 17.764 16.2244 17.7639 16.2243C18.9441 17.2943 19.5214 18.8762 19.1458 20.2746C18.9549 20.9851 18.5212 21.6204 17.8404 22.0693C17.1661 22.5138 16.2902 22.75 15.2402 22.75H8.76021C7.71027 22.75 6.83428 22.5138 6.16004 22.0693C5.47921 21.6204 5.04549 20.9851 4.85464 20.2746C4.47907 18.8764 5.05584 17.2949 6.23581 16.2249L10.885 12L6.23653 7.7757C6.2364 7.77558 6.23665 7.77581 6.23653 7.7757C5.05633 6.70573 4.47904 5.12377 4.85464 3.72544C5.04549 3.01492 5.47921 2.3796 6.16004 1.93072ZM12.0002 10.9866L16.7558 6.66495C17.6054 5.89492 17.899 4.86608 17.6971 4.11456C17.5992 3.75008 17.3823 3.4254 17.0147 3.18303C16.6405 2.93632 16.0703 2.75 15.2402 2.75H8.76021C7.93016 2.75 7.35989 2.93632 6.9857 3.18303C6.61809 3.4254 6.40119 3.75008 6.30329 4.11456C6.10143 4.86608 6.39435 5.89427 7.2439 6.6643L12.0002 10.9866ZM12.0002 13.0134L7.24461 17.3351C6.39507 18.1051 6.10143 19.1339 6.30329 19.8854C6.40119 20.2499 6.61808 20.5746 6.9857 20.817C7.35989 21.0637 7.93016 21.25 8.76021 21.25H15.2402C16.0703 21.25 16.6405 21.0637 17.0147 20.817C17.3823 20.5746 17.5992 20.2499 17.6971 19.8854C17.899 19.1339 17.6061 18.1057 16.7565 17.3357L12.0002 13.0134Z" fill="#292D32"/>
</svg>
