<svg width="24" height="24" viewBox="0 0 24 24" fill="none" xmlns="http://www.w3.org/2000/svg">
<path fill-rule="evenodd" clip-rule="evenodd" d="M4.99052 5.28244C6.98689 5.08081 8.98341 4.97998 10.98 4.97998C14.337 4.97998 17.7034 5.15084 21.0493 5.48242C21.3241 5.50965 21.5248 5.75449 21.4976 6.02929C21.4704 6.30408 21.2255 6.50478 20.9507 6.47754C17.6367 6.14912 14.3031 5.97998 10.98 5.97998C9.0169 5.97998 7.05367 6.07913 5.09029 6.27745L5.08882 6.2776L5.08882 6.27759L3.04882 6.47759C2.774 6.50454 2.52937 6.30359 2.50242 6.02877C2.47548 5.75394 2.67643 5.50931 2.95125 5.48237L4.99052 5.28244Z" fill="#292D32" stroke="black" stroke-width="0.2" stroke-linecap="round" stroke-linejoin="round"/>
<path fill-rule="evenodd" clip-rule="evenodd" d="M9.21314 3.74304L8.99317 5.05281C8.94744 5.32514 8.6896 5.50883 8.41727 5.46309C8.14494 5.41736 7.96125 5.15952 8.00698 4.88719L8.22698 3.57719C8.2302 3.55809 8.23347 3.53849 8.23675 3.51887C8.30805 3.0918 8.39875 2.54852 8.75632 2.14304C9.15944 1.68591 9.79248 1.5 10.6901 1.5H13.3101C14.2152 1.5 14.8486 1.69943 15.2502 2.1623C15.6094 2.57616 15.698 3.1233 15.7659 3.54252C15.7684 3.55789 15.7709 3.57308 15.7733 3.58808L15.9931 4.88657C16.0391 5.15884 15.8558 5.41691 15.5835 5.46299C15.3112 5.50907 15.0532 5.3257 15.0071 5.05343L14.7866 3.75046C14.7058 3.25511 14.6472 2.99318 14.4949 2.8177C14.3716 2.67557 14.095 2.5 13.3101 2.5H10.6901C9.89768 2.5 9.62571 2.66909 9.50634 2.80446C9.35785 2.97283 9.29986 3.22815 9.21314 3.74304Z" fill="#292D32"/>
<path d="M9.21314 3.74304C9.21314 3.743 9.21313 3.74308 9.21314 3.74304ZM9.21314 3.74304L8.99317 5.05281C8.94744 5.32514 8.6896 5.50883 8.41727 5.46309C8.14494 5.41736 7.96125 5.15952 8.00698 4.88719L8.22698 3.57719C8.2302 3.55809 8.23347 3.53849 8.23675 3.51887C8.30805 3.0918 8.39875 2.54852 8.75632 2.14304C9.15944 1.68591 9.79248 1.5 10.6901 1.5H13.3101C14.2152 1.5 14.8486 1.69943 15.2502 2.1623C15.6094 2.57616 15.698 3.1233 15.7659 3.54252C15.7684 3.55789 15.7709 3.57308 15.7733 3.58808L15.9931 4.88657C16.0391 5.15884 15.8558 5.41691 15.5835 5.46299C15.3112 5.50907 15.0532 5.3257 15.0071 5.05343L14.7866 3.75046C14.7058 3.25511 14.6472 2.99318 14.4949 2.8177C14.3716 2.67557 14.095 2.5 13.3101 2.5H10.6901C9.89768 2.5 9.62571 2.66909 9.50634 2.80446C9.35785 2.97283 9.29986 3.22815 9.21314 3.74304Z" stroke="black" stroke-width="0.2" stroke-linecap="round" stroke-linejoin="round"/>
<path fill-rule="evenodd" clip-rule="evenodd" d="M5.11771 8.64119C5.39328 8.62341 5.63109 8.83238 5.64888 9.10795L6.2987 19.1752C6.29873 19.1757 6.29876 19.1761 6.29879 19.1766C6.32678 19.5759 6.35145 19.9124 6.41133 20.2097C6.47023 20.5022 6.55702 20.7208 6.68645 20.8893C6.92734 21.203 7.4453 21.5002 8.78992 21.5002H15.2099C16.5545 21.5002 17.0725 21.203 17.3134 20.8893C17.4428 20.7208 17.5296 20.5022 17.5885 20.2097C17.6484 19.9124 17.6731 19.5759 17.7011 19.1765C17.7011 19.1761 17.7011 19.1756 17.7011 19.1752L18.351 9.10795C18.3687 8.83238 18.6066 8.62341 18.8821 8.64119C19.1577 8.65898 19.3667 8.89679 19.3489 9.17236L18.6987 19.2451L18.6979 19.2565C18.6712 19.6381 18.6431 20.0382 18.5688 20.4072C18.4927 20.785 18.362 21.1657 18.1065 21.4985C17.5773 22.1874 16.6553 22.5002 15.2099 22.5002H8.78992C7.34454 22.5002 6.4225 22.1874 5.89339 21.4985C5.63782 21.1657 5.50711 20.785 5.43101 20.4072C5.3567 20.0382 5.32867 19.6381 5.30194 19.2565L5.30114 19.2451L5.30096 19.2424L4.65096 9.17236C4.63317 8.89679 4.84214 8.65898 5.11771 8.64119Z" fill="#292D32" stroke="black" stroke-width="0.2" stroke-linecap="round" stroke-linejoin="round"/>
<path fill-rule="evenodd" clip-rule="evenodd" d="M9.83008 16.5C9.83008 16.2239 10.0539 16 10.3301 16H13.6601C13.9362 16 14.1601 16.2239 14.1601 16.5C14.1601 16.7761 13.9362 17 13.6601 17H10.3301C10.0539 17 9.83008 16.7761 9.83008 16.5Z" fill="#292D32" stroke="black" stroke-width="0.2" stroke-linecap="round" stroke-linejoin="round"/>
<path fill-rule="evenodd" clip-rule="evenodd" d="M9 12.5C9 12.2239 9.22386 12 9.5 12H14.5C14.7761 12 15 12.2239 15 12.5C15 12.7761 14.7761 13 14.5 13H9.5C9.22386 13 9 12.7761 9 12.5Z" fill="#292D32" stroke="black" stroke-width="0.2" stroke-linecap="round" stroke-linejoin="round"/>
</svg>
