<svg width="24" height="24" viewBox="0 0 24 24" fill="none" xmlns="http://www.w3.org/2000/svg">
<path fill-rule="evenodd" clip-rule="evenodd" d="M3.63013 8.31006C3.63013 8.03392 3.85398 7.81006 4.13013 7.81006H15.1301C18.1663 7.81006 20.6301 10.2739 20.6301 13.3101C20.6301 16.3462 18.1663 18.8101 15.1301 18.8101H7.13013C6.85398 18.8101 6.63013 18.5862 6.63013 18.3101C6.63013 18.0339 6.85398 17.8101 7.13013 17.8101H15.1301C17.614 17.8101 19.6301 15.7939 19.6301 13.3101C19.6301 10.8262 17.614 8.81006 15.1301 8.81006H4.13013C3.85398 8.81006 3.63013 8.5862 3.63013 8.31006Z" fill="#292D32"/>
<path fill-rule="evenodd" clip-rule="evenodd" d="M6.78367 5.33639C6.97893 5.53165 6.97893 5.84823 6.78367 6.04349L4.57722 8.24994L6.78367 10.4564C6.97893 10.6517 6.97893 10.9682 6.78367 11.1635C6.58841 11.3588 6.27183 11.3588 6.07656 11.1635L3.51656 8.60349C3.3213 8.40823 3.3213 8.09165 3.51656 7.89639L6.07656 5.33639C6.27183 5.14113 6.58841 5.14113 6.78367 5.33639Z" fill="#292D32"/>
</svg>
