<svg width="24" height="24" viewBox="0 0 24 24" fill="none" xmlns="http://www.w3.org/2000/svg">
<path fill-rule="evenodd" clip-rule="evenodd" d="M3.53033 11.5303C3.01884 12.0418 2.75 12.9946 2.75 15V17C2.75 19.0054 3.01884 19.9582 3.53033 20.4697C4.04182 20.9812 4.99464 21.25 7 21.25H17C19.0054 21.25 19.9582 20.9812 20.4697 20.4697C20.9812 19.9582 21.25 19.0054 21.25 17V15C21.25 12.9946 20.9812 12.0418 20.4697 11.5303C19.9582 11.0188 19.0054 10.75 17 10.75H7C4.99464 10.75 4.04182 11.0188 3.53033 11.5303ZM2.46967 10.4697C3.45818 9.48116 5.00536 9.25 7 9.25H17C18.9946 9.25 20.5418 9.48116 21.5303 10.4697C22.5188 11.4582 22.75 13.0054 22.75 15V17C22.75 18.9946 22.5188 20.5418 21.5303 21.5303C20.5418 22.5188 18.9946 22.75 17 22.75H7C5.00536 22.75 3.45818 22.5188 2.46967 21.5303C1.48116 20.5418 1.25 18.9946 1.25 17V15C1.25 13.0054 1.48116 11.4582 2.46967 10.4697Z" fill="#292D32"/>
<path fill-rule="evenodd" clip-rule="evenodd" d="M7.70907 4.22924C7.00031 5.10912 6.75 6.38987 6.75 8V10C6.75 10.4142 6.41421 10.75 6 10.75C5.58579 10.75 5.25 10.4142 5.25 10V8C5.25 6.30013 5.49969 4.58088 6.54093 3.28826C7.61038 1.96061 9.37164 1.25 12 1.25C14.3438 1.25 16.0657 1.76872 17.1992 2.82671C18.3444 3.89552 18.75 5.38302 18.75 7C18.75 7.41421 18.4142 7.75 18 7.75C17.5858 7.75 17.25 7.41421 17.25 7C17.25 5.61698 16.9056 4.60448 16.1758 3.92329C15.4343 3.23128 14.1562 2.75 12 2.75C9.62836 2.75 8.38962 3.38439 7.70907 4.22924Z" fill="#292D32"/>
<path fill-rule="evenodd" clip-rule="evenodd" d="M12 14.25C11.0335 14.25 10.25 15.0335 10.25 16C10.25 16.9665 11.0335 17.75 12 17.75C12.9665 17.75 13.75 16.9665 13.75 16C13.75 15.0335 12.9665 14.25 12 14.25ZM8.75 16C8.75 14.2051 10.2051 12.75 12 12.75C13.7949 12.75 15.25 14.2051 15.25 16C15.25 17.7949 13.7949 19.25 12 19.25C10.2051 19.25 8.75 17.7949 8.75 16Z" fill="#292D32"/>
</svg>
