<svg width="25" height="24" viewBox="0 0 25 24" fill="none" xmlns="http://www.w3.org/2000/svg">
<path d="M21.6798 8.58003V15.42C21.6798 16.54 21.0798 17.58 20.1098 18.15L14.1698 21.58C13.1998 22.14 11.9998 22.14 11.0198 21.58L5.07977 18.15C4.10977 17.59 3.50977 16.55 3.50977 15.42V8.58003C3.50977 7.46003 4.10977 6.41999 5.07977 5.84999L11.0198 2.42C11.9898 1.86 13.1898 1.86 14.1698 2.42L20.1098 5.84999C21.0798 6.41999 21.6798 7.45003 21.6798 8.58003Z" stroke="#BEC4D1" stroke-width="1.5" stroke-linecap="round" stroke-linejoin="round"/>
<path d="M12.5995 10.9998C13.8864 10.9998 14.9295 9.95662 14.9295 8.6698C14.9295 7.38298 13.8864 6.33984 12.5995 6.33984C11.3127 6.33984 10.2695 7.38298 10.2695 8.6698C10.2695 9.95662 11.3127 10.9998 12.5995 10.9998Z" stroke="#BEC4D1" stroke-width="1.5" stroke-linecap="round" stroke-linejoin="round"/>
<path d="M16.5996 16.6603C16.5996 14.8603 14.8096 13.4004 12.5996 13.4004C10.3896 13.4004 8.59961 14.8603 8.59961 16.6603" stroke="#BEC4D1" stroke-width="1.5" stroke-linecap="round" stroke-linejoin="round"/>
</svg>
