<svg width="24" height="24" viewBox="0 0 24 24" fill="none" xmlns="http://www.w3.org/2000/svg">
<path fill-rule="evenodd" clip-rule="evenodd" d="M7 7.75C6.75575 7.75 6.52397 7.76744 6.30404 7.80128L6.28339 7.80416C5.17606 7.94312 4.30559 8.41721 3.70955 9.11651C3.11197 9.81761 2.75 10.7929 2.75 12V17C2.75 18.3296 3.18991 19.3793 3.90533 20.0947C4.62075 20.8101 5.67044 21.25 7 21.25H17C18.3296 21.25 19.3793 20.8101 20.0947 20.0947C20.8101 19.3793 21.25 18.3296 21.25 17V12C21.25 10.7847 20.8817 9.80336 20.2747 9.09999C19.6691 8.39822 18.7851 7.92541 17.6634 7.79497C17.6511 7.79354 17.6389 7.79181 17.6267 7.78978C17.4468 7.7598 17.2446 7.75 17 7.75H7ZM6.08633 6.31713C6.38313 6.27204 6.68789 6.25 7 6.25H17C17.2697 6.25 17.5608 6.25975 17.8545 6.30711C19.305 6.47974 20.5395 7.1109 21.4103 8.12C22.2833 9.13163 22.75 10.4753 22.75 12V17C22.75 18.6704 22.1899 20.1207 21.1553 21.1553C20.1207 22.1899 18.6704 22.75 17 22.75H7C5.32956 22.75 3.87925 22.1899 2.84467 21.1553C1.81009 20.1207 1.25 18.6704 1.25 17V12C1.25 10.4871 1.70803 9.15239 2.56795 8.14349C3.42737 7.13519 4.64812 6.4999 6.08633 6.31713Z" fill="#292D32"/>
<path fill-rule="evenodd" clip-rule="evenodd" d="M10.5511 3.55098L7.86035 6.25001H16.8232C16.6906 5.91449 16.4853 5.60015 16.2053 5.32451L16.198 5.31738L14.4507 3.54997C13.3734 2.48301 11.628 2.48335 10.5511 3.55098ZM6.24108 5.74968L9.49302 2.48773C11.1555 0.837419 13.8474 0.837427 15.5098 2.48773L15.5148 2.49268L17.2613 4.25925C18.0351 5.02278 18.4517 5.99997 18.5005 7.0139C18.5115 7.24042 18.4193 7.45972 18.2498 7.61043C18.0804 7.76114 17.8518 7.82708 17.6281 7.7898C17.4482 7.75982 17.246 7.75001 17.0014 7.75001H7.00141C6.75716 7.75001 6.52538 7.76746 6.30545 7.80129C6.02831 7.84393 5.75052 7.7284 5.58534 7.50181C5.42017 7.27522 5.39519 6.97541 5.52059 6.7246C5.70465 6.35648 5.95863 6.0322 6.24108 5.74968C6.24121 5.74955 6.24095 5.74981 6.24108 5.74968Z" fill="#292D32"/>
<path fill-rule="evenodd" clip-rule="evenodd" d="M16.25 14.5C16.25 12.9858 17.4858 11.75 19 11.75H22C22.4142 11.75 22.75 12.0858 22.75 12.5C22.75 12.9142 22.4142 13.25 22 13.25H19C18.3142 13.25 17.75 13.8142 17.75 14.5C17.75 15.1858 18.3142 15.75 19 15.75H22C22.4142 15.75 22.75 16.0858 22.75 16.5C22.75 16.9142 22.4142 17.25 22 17.25H19C17.4858 17.25 16.25 16.0142 16.25 14.5Z" fill="#292D32"/>
</svg>
