<svg width="41" height="40" viewBox="0 0 41 40" fill="none" xmlns="http://www.w3.org/2000/svg">
<g id="shopware-original logo" clip-path="url(#clip0_6651_8743)">
<g id="Group">
<g id="Vector">
<path d="M31.7039 36.066C28.5914 38.2191 24.832 39.4941 20.7726 39.5379C10.1039 39.6535 1.19762 31.0754 0.931993 20.4066C0.656993 9.33477 9.54762 0.275391 20.557 0.275391C25.4976 0.275391 30.0101 2.10039 33.457 5.10977C33.7695 5.38164 33.5414 5.89102 33.132 5.84414C26.2351 5.03477 19.4851 5.78789 15.2132 9.10352C10.282 12.9316 9.81324 18.741 12.657 23.8566C16.6695 31.0754 25.557 31.1473 31.7039 35.3629C31.9507 35.5316 31.9507 35.8973 31.7039 36.066Z" fill="#2B9AFF"/>
<path d="M31.7039 36.066C28.5914 38.2191 24.832 39.4941 20.7726 39.5379C10.1039 39.6535 1.19762 31.0754 0.931993 20.4066C0.656993 9.33477 9.54762 0.275391 20.557 0.275391C25.4976 0.275391 30.0101 2.10039 33.457 5.10977C33.7695 5.38164 33.5414 5.89102 33.132 5.84414C26.2351 5.03477 19.4851 5.78789 15.2132 9.10352C10.282 12.9316 9.81324 18.741 12.657 23.8566C16.6695 31.0754 25.557 31.1473 31.7039 35.3629C31.9507 35.5316 31.9507 35.8973 31.7039 36.066Z" fill="white" fill-opacity="0.2"/>
</g>
<g id="Vector_2">
<path d="M40.1875 19.9065C40.1875 22.5753 39.6563 25.119 38.6907 27.4378C33.75 24.7972 28.4907 22.9972 26.1313 22.1159C23.3438 21.069 20.9032 18.1628 22.5313 15.6097C24.1594 13.0565 28.2219 12.5909 33.2188 13.8659C35.35 14.4128 37.3219 15.8097 39.1188 17.4753C39.7907 18.1003 40.1875 18.9722 40.1907 19.8909C40.1875 19.8972 40.1875 19.9003 40.1875 19.9065Z" fill="#2B9AFF"/>
<path d="M40.1875 19.9065C40.1875 22.5753 39.6563 25.119 38.6907 27.4378C33.75 24.7972 28.4907 22.9972 26.1313 22.1159C23.3438 21.069 20.9032 18.1628 22.5313 15.6097C24.1594 13.0565 28.2219 12.5909 33.2188 13.8659C35.35 14.4128 37.3219 15.8097 39.1188 17.4753C39.7907 18.1003 40.1875 18.9722 40.1907 19.8909C40.1875 19.8972 40.1875 19.9003 40.1875 19.9065Z" fill="white" fill-opacity="0.2"/>
</g>
</g>
</g>
<defs>
<clipPath id="clip0_6651_8743">
<rect width="40" height="40" fill="white" transform="translate(0.5)"/>
</clipPath>
</defs>
</svg>
