
<svg width="419" height="306" viewBox="0 0 419 306" fill="none" xmlns="http://www.w3.org/2000/svg">
<path d="M418.775 128.428V112.6C418.775 109.582 417.576 106.688 415.442 104.554C413.308 102.419 410.414 101.22 407.396 101.22H367.229C364.211 101.22 361.316 100.022 359.182 97.8874C357.048 95.7533 355.849 92.8588 355.849 89.8407V74.0135C355.849 70.9954 357.048 68.1009 359.182 65.9667C361.316 63.8326 364.211 62.6337 367.229 62.6337H368.497C369.991 62.6337 371.471 62.3393 372.852 61.7674C374.232 61.1956 375.487 60.3573 376.544 59.3006C377.6 58.2439 378.439 56.9894 379.01 55.6088C379.582 54.2281 379.877 52.7483 379.877 51.2539V35.4267C379.877 33.9322 379.582 32.4525 379.01 31.0718C378.439 29.6911 377.6 28.4366 376.544 27.3799C375.487 26.3232 374.232 25.485 372.852 24.9131C371.471 24.3412 369.991 24.0469 368.497 24.0469H76.6631C73.645 24.0469 70.7505 25.2458 68.6163 27.3799C66.4822 29.5141 65.2833 32.4086 65.2833 35.4267V51.2539C65.2833 52.7483 65.5776 54.2281 66.1495 55.6088C66.7214 56.9894 67.5596 58.2439 68.6163 59.3006C69.6731 60.3573 70.9276 61.1956 72.3082 61.7674C73.6889 62.3393 75.1687 62.6337 76.6631 62.6337C78.1575 62.6337 79.6373 62.928 81.0179 63.4999C82.3986 64.0718 83.6531 64.91 84.7098 65.9667C85.7665 67.0235 86.6047 68.278 87.1766 69.6586C87.7485 71.0393 88.0429 72.5191 88.0429 74.0135V89.8407C88.0429 91.3351 87.7485 92.8149 87.1766 94.1956C86.6047 95.5762 85.7665 96.8307 84.7098 97.8874C83.6531 98.9441 82.3986 99.7824 81.0179 100.354C79.6373 100.926 78.1575 101.22 76.6631 101.22H32.6564C29.6383 101.22 26.7438 102.419 24.6097 104.554C22.4756 106.688 21.2767 109.582 21.2767 112.6V128.428C21.2767 131.446 22.4756 134.34 24.6097 136.474C26.7438 138.608 29.6383 139.807 32.6564 139.807H49.924C51.4184 139.807 52.8982 140.102 54.2788 140.674C55.6595 141.245 56.914 142.084 57.9707 143.14C59.0274 144.197 59.8656 145.452 60.4375 146.832C61.0094 148.213 61.3038 149.693 61.3038 151.187V167.014C61.3038 168.509 61.0094 169.989 60.4375 171.369C59.8656 172.75 59.0274 174.004 57.9707 175.061C56.914 176.118 55.6595 176.956 54.2788 177.528C52.8982 178.1 51.4184 178.394 49.924 178.394H49.8822C48.3878 178.394 46.908 178.689 45.5274 179.26C44.1467 179.832 42.8922 180.671 41.8355 181.727C40.7788 182.784 39.9406 184.039 39.3687 185.419C38.7968 186.8 38.5025 188.28 38.5025 189.774V205.601C38.5025 208.619 39.7014 211.514 41.8355 213.648C43.9697 215.782 46.8641 216.981 49.8822 216.981H52.3805C55.3986 216.981 58.2931 218.18 60.4272 220.314C62.5614 222.448 63.7603 225.343 63.7603 228.361V244.188C63.7603 245.682 63.4659 247.162 62.8941 248.543C62.3222 249.924 61.4839 251.178 60.4272 252.235C59.3705 253.291 58.116 254.13 56.7354 254.702C55.3547 255.273 53.8749 255.568 52.3805 255.568H11.3798C8.36168 255.568 5.46719 256.767 3.33306 258.901C1.19894 261.035 0 263.93 0 266.948V282.775C0 284.269 0.294346 285.749 0.866234 287.13C1.43812 288.51 2.27635 289.765 3.33306 290.822C4.38977 291.878 5.64427 292.716 7.02493 293.288C8.40559 293.86 9.88538 294.155 11.3798 294.155H374.606C376.101 294.155 377.581 293.86 378.961 293.288C380.342 292.716 381.596 291.878 382.653 290.822C383.71 289.765 384.548 288.51 385.12 287.13C385.692 285.749 385.986 284.269 385.986 282.775V266.948C385.986 263.93 384.787 261.035 382.653 258.901C380.519 256.767 377.625 255.568 374.606 255.568H364.74C363.245 255.568 361.765 255.274 360.385 254.702C359.004 254.13 357.75 253.292 356.693 252.235C355.636 251.178 354.798 249.924 354.226 248.543C353.654 247.162 353.36 245.682 353.36 244.188V228.361C353.36 226.866 353.654 225.387 354.226 224.006C354.798 222.625 355.636 221.371 356.693 220.314C357.75 219.257 359.004 218.419 360.385 217.847C361.765 217.275 363.245 216.981 364.74 216.981H388.005C389.499 216.981 390.979 216.687 392.359 216.115C393.74 215.543 394.995 214.705 396.051 213.648C397.108 212.591 397.946 211.337 398.518 209.956C399.09 208.575 399.384 207.096 399.384 205.601V189.774C399.384 188.28 399.09 186.8 398.518 185.419C397.946 184.038 397.108 182.784 396.051 181.727C394.995 180.671 393.74 179.832 392.359 179.26C390.979 178.689 389.499 178.394 388.005 178.394H380.947C377.929 178.394 375.035 177.195 372.9 175.061C370.766 172.927 369.567 170.033 369.567 167.014V151.187C369.567 148.169 370.766 145.274 372.9 143.14C375.035 141.006 377.929 139.807 380.947 139.807H407.396C410.414 139.807 413.308 138.608 415.442 136.474C417.576 134.34 418.775 131.446 418.775 128.428Z" fill="#DBE8EC" fill-opacity="0.1"/>
<path d="M277.539 19.7637H307.86" stroke="#B9D4DB" stroke-width="3" stroke-miterlimit="10" stroke-linecap="round"/>
<path d="M277.539 28.502H307.86" stroke="#B9D4DB" stroke-width="3" stroke-miterlimit="10" stroke-linecap="round"/>
<path d="M277.539 37.2402H307.86" stroke="#B9D4DB" stroke-width="3" stroke-miterlimit="10" stroke-linecap="round"/>
<path d="M298.543 262.996H328.864" stroke="#B9D4DB" stroke-width="3" stroke-miterlimit="10" stroke-linecap="round"/>
<path d="M298.543 271.736H328.864" stroke="#B9D4DB" stroke-width="3" stroke-miterlimit="10" stroke-linecap="round"/>
<path d="M298.543 280.475H328.864" stroke="#B9D4DB" stroke-width="3" stroke-miterlimit="10" stroke-linecap="round"/>
<path d="M46.9141 118.451H77.2351" stroke="#B9D4DB" stroke-width="3" stroke-miterlimit="10" stroke-linecap="round"/>
<path d="M46.9141 127.189H77.2351" stroke="#B9D4DB" stroke-width="3" stroke-miterlimit="10" stroke-linecap="round"/>
<path d="M46.9141 135.93H77.2351" stroke="#B9D4DB" stroke-width="3" stroke-miterlimit="10" stroke-linecap="round"/>
<path d="M379.683 234.112L262.203 245.931L144.723 234.112C144.229 234.063 143.772 233.831 143.439 233.464C143.107 233.096 142.923 232.618 142.923 232.122L140.154 224.025L142.923 91.3711L262.203 103.371L381.483 91.3711L384.114 225.106L381.483 232.122C381.483 232.618 381.299 233.096 380.966 233.464C380.633 233.832 380.176 234.063 379.683 234.112Z" fill="#E06714"/>
<path d="M384.114 225.105L262.203 236.87L140.154 224.025L142.923 84.5215C142.923 84.242 142.981 83.9656 143.095 83.7101C143.208 83.4546 143.374 83.2257 143.581 83.0382C143.788 82.8507 144.033 82.7087 144.298 82.6214C144.564 82.5342 144.845 82.5035 145.123 82.5315L262.203 94.3102L379.283 82.5316C379.561 82.5036 379.842 82.5342 380.107 82.6215C380.373 82.7087 380.617 82.8507 380.824 83.0382C381.032 83.2257 381.197 83.4546 381.311 83.7101C381.424 83.9656 381.483 84.242 381.483 84.5216L384.114 225.105Z" fill="#EE781D"/>
<path d="M261.242 227.51L378.474 216.105L373.585 83.1035L269.993 93.5255L261.242 227.51Z" fill="#E06714"/>
<path d="M267.002 77.7501L159.242 75.8301L165.002 221.75L261.242 227.51L267.002 77.7501Z" fill="#E06714"/>
<path d="M262.201 70.7895L364.681 59.2695L371.881 209.51L262.201 219.59V70.7895Z" fill="#F9AE2B"/>
<path d="M262.201 70.7891L154.441 68.8691L160.201 214.789L262.201 219.589V70.7891Z" fill="#F9AE2B"/>
<path d="M160.201 214.789L262.201 219.589V214.465L160.201 209.664V214.789Z" fill="#E59413"/>
<path d="M166.987 166.105C167.295 177.835 171.411 189.146 178.714 198.33C186.017 207.514 196.11 214.072 207.468 217.015L252.361 219.127V77.0302C252.361 77.0302 218.441 79.4386 183.269 69.3837L164.449 69.0485L166.987 166.105ZM319.443 214.329C330.524 206.423 339.44 195.858 345.372 183.606C351.303 171.354 354.059 157.807 353.388 144.211L349.275 61.002L324.422 63.7958C301.702 75.2986 273.919 82.5079 273.919 82.5079V218.513L319.443 214.329Z" fill="#E59413"/>
<path d="M262.201 70.7891C262.201 70.7891 319.561 55.9091 336.841 34.7891L341.67 132.492C342.606 151.432 336.885 170.102 325.499 185.266C314.113 200.43 297.78 211.133 279.332 215.518L262.201 219.589V70.7891Z" fill="#F9AE2B"/>
<path d="M277.45 70.7901L262.201 219.59C262.201 219.59 281.618 218.123 283.141 217.666C300.191 202.025 309.898 175.746 307.585 152.401L298.291 58.6211C292.121 61.1532 286.073 63.3449 280.741 65.1434C278.786 68.5434 277.45 70.7901 277.45 70.7901Z" fill="#E59413"/>
<path d="M262.203 70.7891C262.203 70.7891 278.763 42.9491 280.683 34.7891L292.338 152.399C293.612 165.254 291.501 178.219 286.215 190.006C280.928 201.792 272.65 211.991 262.203 219.589L262.203 70.7891ZM262.203 70.7891C262.203 70.7891 214.923 74.1491 174.123 56.3891L176.828 159.864C177.15 172.172 181.663 184.001 189.62 193.395C197.578 202.789 208.503 209.186 220.59 211.527L262.203 219.589L262.203 70.7891Z" fill="#F9AE2B"/>
<path d="M262.202 70.7891C263.03 83.1891 263.463 95.5891 263.757 107.989C263.941 114.189 263.982 120.389 264.09 126.589L264.201 145.189L264.096 163.789C263.984 169.989 263.949 176.189 263.763 182.389C263.47 194.789 263.035 207.189 262.202 219.589C261.369 207.189 260.934 194.789 260.641 182.389C260.455 176.189 260.42 169.989 260.308 163.789L260.203 145.189L260.314 126.589C260.422 120.389 260.463 114.189 260.647 107.989C260.941 95.5891 261.374 83.1891 262.202 70.7891ZM192.354 91.7441C197.397 92.1706 202.343 92.7777 207.287 93.3586L222.06 95.1277C226.977 95.7066 231.892 96.1899 236.825 96.6723C241.763 97.1424 246.699 97.4333 251.754 97.8641C246.829 99.0539 241.791 99.7083 236.726 99.816C231.674 99.9262 226.621 99.687 221.602 99.1001C216.594 98.5127 211.627 97.6252 206.726 96.4424C201.81 95.2881 197.002 93.7163 192.354 91.7441ZM192.354 113.1C197.397 113.526 202.343 114.133 207.287 114.714L222.06 116.483C226.977 117.062 231.892 117.545 236.825 118.028C241.763 118.498 246.699 118.789 251.754 119.219C246.829 120.409 241.791 121.064 236.726 121.171C231.674 121.282 226.621 121.042 221.602 120.456C216.594 119.868 211.627 118.981 206.726 117.798C201.81 116.644 197.002 115.072 192.354 113.1ZM192.354 134.455C197.397 134.882 202.343 135.489 207.287 136.069L222.06 137.839C226.977 138.417 231.892 138.901 236.825 139.383C241.763 139.853 246.699 140.144 251.754 140.575C246.829 141.765 241.791 142.419 236.726 142.527C231.674 142.637 226.621 142.398 221.602 141.811C216.594 141.224 211.627 140.336 206.726 139.153C201.81 137.999 197.002 136.427 192.354 134.455ZM192.354 155.81C197.397 156.237 202.343 156.844 207.287 157.425L222.06 159.194C226.977 159.773 231.892 160.256 236.825 160.739C241.763 161.209 246.699 161.5 251.754 161.93C246.829 163.12 241.791 163.775 236.726 163.882C231.674 163.993 226.621 163.753 221.602 163.167C216.594 162.579 211.627 161.692 206.726 160.509C201.81 159.355 197.002 157.783 192.354 155.81ZM192.354 177.166C197.397 177.593 202.343 178.2 207.287 178.78L222.06 180.55C226.977 181.128 231.892 181.612 236.825 182.094C241.763 182.564 246.699 182.855 251.754 183.286C246.829 184.476 241.791 185.13 236.726 185.238C231.674 185.348 226.621 185.109 221.602 184.522C216.594 183.935 211.627 183.047 206.726 181.864C201.81 180.71 197.002 179.138 192.354 177.166Z" fill="#E59413"/>
<path d="M333.565 94.6028L310.268 98.5316C310.01 98.5817 309.745 98.5805 309.487 98.528C309.23 98.4756 308.986 98.373 308.768 98.226C308.55 98.0791 308.364 97.8907 308.219 97.6717C308.074 97.4526 307.973 97.2072 307.923 96.9493L307.151 80.1211C307.101 79.8632 307.102 79.5981 307.154 79.3407C307.207 79.0834 307.309 78.8388 307.456 78.6211C307.603 78.4034 307.792 78.2168 308.011 78.0719C308.23 77.927 308.475 77.8267 308.733 77.7766L332.329 72.9273C332.587 72.8772 332.852 72.8785 333.109 72.9309C333.366 72.9833 333.611 73.0859 333.829 73.2329C334.046 73.3798 334.233 73.5682 334.378 73.7872C334.523 74.0063 334.623 74.2517 334.673 74.5096L335.147 92.2583C335.248 92.779 335.138 93.3186 334.841 93.7582C334.544 94.1979 334.085 94.5017 333.565 94.6028ZM320.339 136.063L297.042 139.992C296.785 140.042 296.519 140.041 296.262 139.989C296.005 139.936 295.76 139.834 295.542 139.687C295.325 139.54 295.138 139.351 294.993 139.132C294.848 138.913 294.748 138.668 294.698 138.41L293.925 121.582C293.824 121.061 293.934 120.521 294.231 120.082C294.528 119.642 294.987 119.338 295.508 119.237L319.103 114.388C319.361 114.338 319.626 114.339 319.884 114.392C320.141 114.444 320.386 114.547 320.603 114.694C320.821 114.84 321.008 115.029 321.152 115.248C321.297 115.467 321.398 115.712 321.448 115.97L321.921 133.719C321.971 133.977 321.97 134.242 321.918 134.499C321.865 134.757 321.763 135.001 321.616 135.219C321.469 135.437 321.281 135.623 321.061 135.768C320.842 135.913 320.597 136.013 320.339 136.063Z" fill="#EE781D"/>
<path d="M329.458 177.525L306.162 181.454C305.641 181.555 305.101 181.445 304.662 181.148C304.222 180.851 303.918 180.392 303.817 179.871L303.044 163.043C302.994 162.785 302.996 162.52 303.048 162.263C303.101 162.005 303.203 161.761 303.35 161.543C303.497 161.325 303.685 161.139 303.904 160.994C304.123 160.849 304.369 160.749 304.627 160.699L328.222 155.849C328.48 155.799 328.745 155.8 329.003 155.853C329.26 155.905 329.505 156.008 329.722 156.155C329.94 156.302 330.127 156.49 330.272 156.709C330.416 156.928 330.517 157.174 330.567 157.431L331.041 175.18C331.091 175.438 331.089 175.703 331.037 175.961C330.984 176.218 330.882 176.462 330.735 176.68C330.588 176.898 330.4 177.084 330.181 177.229C329.962 177.374 329.716 177.475 329.458 177.525Z" fill="#EE781D"/>
<path d="M196.427 300.695C203.584 300.695 209.387 294.893 209.387 287.735C209.387 280.578 203.584 274.775 196.427 274.775C189.269 274.775 183.467 280.578 183.467 287.735C183.467 294.893 189.269 300.695 196.427 300.695Z" fill="#B9D4DB"/>
<path d="M179.146 263.495C182.857 263.495 185.866 260.486 185.866 256.775C185.866 253.063 182.857 250.055 179.146 250.055C175.434 250.055 172.426 253.063 172.426 256.775C172.426 260.486 175.434 263.495 179.146 263.495Z" fill="#B9D4DB"/>
<path d="M223.104 273.095C228.406 273.095 232.704 268.796 232.704 263.495C232.704 258.193 228.406 253.895 223.104 253.895C217.802 253.895 213.504 258.193 213.504 263.495C213.504 268.796 217.802 273.095 223.104 273.095Z" fill="#B9D4DB"/>
<path d="M58.5157 228.547C67.0319 228.547 73.9357 221.643 73.9357 213.127C73.9357 204.611 67.0319 197.707 58.5157 197.707C49.9995 197.707 43.0957 204.611 43.0957 213.127C43.0957 221.643 49.9995 228.547 58.5157 228.547Z" fill="#B9D4DB"/>
<path d="M29.0496 210.177C33.4855 210.177 37.0816 206.581 37.0816 202.145C37.0816 197.709 33.4855 194.113 29.0496 194.113C24.6136 194.113 21.0176 197.709 21.0176 202.145C21.0176 206.581 24.6136 210.177 29.0496 210.177Z" fill="#B9D4DB"/>
<path d="M36.4279 179.475C38.9867 179.475 41.0609 177.401 41.0609 174.842C41.0609 172.283 38.9867 170.209 36.4279 170.209C33.8692 170.209 31.7949 172.283 31.7949 174.842C31.7949 177.401 33.8692 179.475 36.4279 179.475Z" fill="#B9D4DB"/>
<path d="M62.0738 189.228C68.208 189.228 73.1808 184.255 73.1808 178.121C73.1808 171.986 68.208 167.014 62.0738 167.014C55.9396 167.014 50.9668 171.986 50.9668 178.121C50.9668 184.255 55.9396 189.228 62.0738 189.228Z" fill="#B9D4DB"/>
<path d="M155.572 54.8908C164.089 54.8908 170.992 47.987 170.992 39.4708C170.992 30.9545 164.089 24.0508 155.572 24.0508C147.056 24.0508 140.152 30.9545 140.152 39.4708C140.152 47.987 147.056 54.8908 155.572 54.8908Z" fill="#B9D4DB"/>
<path d="M156.198 16.064C160.634 16.064 164.23 12.4679 164.23 8.032C164.23 3.59605 160.634 0 156.198 0C151.762 0 148.166 3.59605 148.166 8.032C148.166 12.4679 151.762 16.064 156.198 16.064Z" fill="#B9D4DB"/>
<path d="M209.696 19.6774C213.536 19.6774 216.648 16.5649 216.648 12.7254C216.648 8.88595 213.536 5.77344 209.696 5.77344C205.857 5.77344 202.744 8.88595 202.744 12.7254C202.744 16.5649 205.857 19.6774 209.696 19.6774Z" fill="#B9D4DB"/>
<path d="M184.404 10.6039C186.963 10.6039 189.037 8.52963 189.037 5.97089C189.037 3.41216 186.963 1.33789 184.404 1.33789C181.846 1.33789 179.771 3.41216 179.771 5.97089C179.771 8.52963 181.846 10.6039 184.404 10.6039Z" fill="#B9D4DB"/>
<path d="M189.789 42.3663C195.923 42.3663 200.896 37.3936 200.896 31.2593C200.896 25.1251 195.923 20.1523 189.789 20.1523C183.654 20.1523 178.682 25.1251 178.682 31.2593C178.682 37.3936 183.654 42.3663 189.789 42.3663Z" fill="#B9D4DB"/>
<path d="M138.116 207.413L122.324 198.406L113.317 214.198L129.109 223.205L138.116 207.413Z" fill="#DBE8EC"/>
<path d="M198.397 203.345C208.317 195.865 215.796 185.611 219.888 173.881C223.98 162.15 224.503 149.47 221.388 137.443C218.274 125.416 211.663 114.582 202.392 106.312C193.121 98.0415 181.606 92.7061 169.302 90.9802C156.999 89.2543 144.46 91.2154 133.271 96.6156C122.083 102.016 112.746 110.612 106.443 121.318C100.14 132.024 97.1528 144.359 97.8596 156.763C98.5664 169.167 102.935 181.082 110.414 191.003C115.38 197.591 121.595 203.137 128.705 207.323C135.814 211.509 143.679 214.253 151.849 215.4C160.019 216.546 168.335 216.071 176.322 214.003C184.309 211.934 191.81 208.313 198.397 203.345ZM120.193 183.639C114.169 175.652 110.649 166.058 110.077 156.07C109.506 146.082 111.91 136.149 116.984 127.527C122.059 118.905 129.576 111.981 138.585 107.632C147.595 103.282 157.691 101.702 167.599 103.091C177.506 104.481 186.779 108.777 194.245 115.436C201.711 122.095 207.034 130.819 209.542 140.504C212.049 150.189 211.628 160.4 208.332 169.846C205.036 179.292 199.013 187.548 191.025 193.571C180.314 201.644 166.835 205.133 153.553 203.27C140.27 201.408 128.271 194.347 120.193 183.639Z" fill="#3086A3"/>
<path opacity="0.76" d="M160.576 203.767C188.511 203.767 211.156 181.122 211.156 153.187C211.156 125.253 188.511 102.607 160.576 102.607C132.642 102.607 109.996 125.253 109.996 153.187C109.996 181.122 132.642 203.767 160.576 203.767Z" fill="white"/>
<path d="M196.689 155.408C196.207 163.244 193.19 170.71 188.093 176.68C182.996 182.65 176.095 186.801 168.432 188.505C160.769 190.21 152.76 189.375 145.613 186.129C138.465 182.882 132.568 177.398 128.811 170.506" stroke="#DBE8EC" stroke-width="10" stroke-miterlimit="10"/>
<path d="M133.882 225.877L108.587 211.45C107.627 210.903 106.406 211.237 105.859 212.196L68.8615 277.062C68.3142 278.021 68.6484 279.243 69.6079 279.79L94.9027 294.217C95.8621 294.765 97.0836 294.431 97.6308 293.471L134.628 228.605C135.175 227.646 134.841 226.424 133.882 225.877Z" fill="#3086A3"/>
<path d="M97.6307 293.471L134.628 228.605C134.758 228.377 134.842 228.126 134.875 227.865C134.908 227.604 134.889 227.34 134.82 227.087C134.751 226.833 134.632 226.596 134.471 226.389C134.31 226.181 134.11 226.007 133.882 225.877L127.591 222.289C128.051 222.552 128.389 222.987 128.529 223.499C128.668 224.01 128.599 224.556 128.337 225.017L91.3394 289.883C91.2093 290.111 91.0356 290.311 90.828 290.472C90.6205 290.633 90.3833 290.752 90.13 290.821C89.8766 290.89 89.6121 290.909 89.3516 290.876C89.091 290.843 88.8395 290.759 88.6113 290.629L94.9026 294.218C95.1307 294.348 95.3823 294.432 95.6428 294.465C95.9034 294.497 96.1679 294.479 96.4212 294.409C96.6745 294.34 96.9118 294.222 97.1193 294.061C97.3268 293.9 97.5006 293.699 97.6307 293.471Z" fill="#25788E"/>
<path d="M74.9439 280.532L111.941 215.666C112.071 215.438 112.245 215.238 112.452 215.077C112.66 214.916 112.897 214.798 113.151 214.728C113.404 214.659 113.668 214.64 113.929 214.673C114.19 214.706 114.441 214.79 114.669 214.92L121.657 218.906L108.586 211.45C108.125 211.187 107.579 211.118 107.067 211.258C106.556 211.398 106.12 211.736 105.858 212.197L68.8603 277.063C68.5976 277.523 68.5286 278.07 68.6686 278.581C68.8085 279.093 69.146 279.528 69.6067 279.791L75.6902 283.261C75.462 283.13 75.2617 282.957 75.1008 282.749C74.9398 282.542 74.8212 282.304 74.7519 282.051C74.6826 281.798 74.6639 281.533 74.6968 281.273C74.7298 281.012 74.8137 280.76 74.9439 280.532Z" fill="#409CB5"/>
<path d="M69.7894 282.935L72.7332 277.774C72.996 277.313 73.4311 276.976 73.9427 276.836C74.4544 276.696 75.0006 276.765 75.4614 277.027L100.638 291.387C100.539 291.302 100.433 291.226 100.321 291.161L69.4808 273.571C69.0201 273.309 68.4738 273.24 67.9621 273.38C67.4505 273.519 67.0154 273.857 66.7526 274.318L63.8087 279.479C62.0776 282.514 61.6231 286.113 62.5452 289.483C63.4673 292.853 65.6904 295.719 68.7256 297.451L74.0546 300.49C71.2386 298.66 69.2284 295.823 68.4354 292.56C67.6425 289.296 68.1269 285.853 69.7894 282.935Z" fill="#E8EEEF"/>
<path d="M98.1231 299.05L101.067 293.888C101.33 293.428 101.399 292.881 101.259 292.37C101.119 291.858 100.781 291.423 100.321 291.16L94.0024 287.557C94.4614 287.82 94.7972 288.255 94.9362 288.766C95.0751 289.276 95.0059 289.821 94.7437 290.281L91.7999 295.442C90.0688 298.478 87.2027 300.701 83.8324 301.623C80.4621 302.545 76.8635 302.09 73.8283 300.359L68.7148 297.443L68.7254 297.45L80.1517 303.967C81.6545 304.824 83.3115 305.377 85.028 305.593C86.7445 305.81 88.4869 305.687 90.1557 305.23C91.8245 304.774 93.387 303.993 94.7541 302.932C96.1211 301.872 97.266 300.553 98.1231 299.05Z" fill="#BAD5DB"/>
</svg>
