<svg width="18" height="18" viewBox="0 0 18 18" fill="none" xmlns="http://www.w3.org/2000/svg">
<path fill-rule="evenodd" clip-rule="evenodd" d="M8.11291 14.8226L8.26572 14.5645C8.51062 14.1507 8.63308 13.9438 8.82814 13.8284C9.0232 13.7131 9.27764 13.7049 9.78652 13.6886C10.2637 13.6734 10.5844 13.6317 10.8586 13.5182C11.4359 13.279 11.8946 12.8204 12.1337 12.2431C12.313 11.8101 12.313 11.2612 12.313 10.1634V9.69214C12.313 8.14963 12.313 7.37838 11.9658 6.81181C11.7716 6.49478 11.505 6.22824 11.188 6.03396C10.6214 5.68677 9.85018 5.68677 8.30768 5.68677H6.89403C5.35153 5.68677 4.58028 5.68677 4.01371 6.03396C3.69668 6.22824 3.43014 6.49478 3.23587 6.81181C2.88867 7.37838 2.88867 8.14963 2.88867 9.69214V10.1634C2.88867 11.2612 2.88867 11.8101 3.06802 12.2431C3.30715 12.8204 3.76582 13.279 4.34313 13.5182C4.61733 13.6317 4.93802 13.6734 5.41517 13.6886C5.92405 13.7049 6.17849 13.7131 6.37355 13.8284C6.56861 13.9438 6.69107 14.1507 6.93597 14.5645L7.08878 14.8226C7.31646 15.2073 7.88523 15.2073 8.11291 14.8226ZM9.66243 10.399C9.98774 10.399 10.2515 10.1352 10.2515 9.80993C10.2515 9.48462 9.98774 9.22091 9.66243 9.22091C9.33713 9.22091 9.07341 9.48462 9.07341 9.80993C9.07341 10.1352 9.33713 10.399 9.66243 10.399ZM8.18988 9.80993C8.18988 10.1352 7.92616 10.399 7.60085 10.399C7.27555 10.399 7.01183 10.1352 7.01183 9.80993C7.01183 9.48462 7.27555 9.22091 7.60085 9.22091C7.92616 9.22091 8.18988 9.48462 8.18988 9.80993ZM5.53927 10.399C5.86458 10.399 6.1283 10.1352 6.1283 9.80993C6.1283 9.48462 5.86458 9.22091 5.53927 9.22091C5.21397 9.22091 4.95025 9.48462 4.95025 9.80993C4.95025 10.1352 5.21397 10.399 5.53927 10.399Z" fill="#FDFDFD"/>
<path opacity="0.5" d="M10.9367 2.88892C11.6405 2.88891 12.2002 2.88891 12.6491 2.93159C13.1094 2.97535 13.4985 3.06708 13.8452 3.27951C14.2018 3.49807 14.5017 3.79793 14.7202 4.15459C14.9327 4.50125 15.0244 4.89039 15.0682 5.35065C15.1108 5.79951 15.1108 6.35924 15.1108 7.06304V7.54375C15.1108 8.04464 15.1108 8.44307 15.0888 8.76614C15.0662 9.09667 15.0191 9.38049 14.9091 9.64625C14.64 10.2957 14.124 10.8117 13.4746 11.0808C13.4583 11.0875 13.442 11.094 13.4256 11.1003C13.3472 11.1302 13.28 11.1559 13.2211 11.175H12.3043C12.3133 10.8978 12.3133 10.5676 12.3133 10.1628V9.6916C12.3133 8.14909 12.3133 7.37784 11.9661 6.81127C11.7718 6.49424 11.5053 6.22769 11.1883 6.03342C10.6217 5.68623 9.85045 5.68623 8.30795 5.68623H6.8943C6.34685 5.68623 5.89655 5.68623 5.51807 5.70175V4.78486C5.53624 4.72189 5.56114 4.6497 5.59036 4.56497C5.64006 4.42086 5.70288 4.28458 5.78254 4.15459C6.0011 3.79793 6.30096 3.49807 6.65761 3.27951C7.00427 3.06708 7.39342 2.97535 7.85367 2.93159C8.30254 2.88891 8.86224 2.88891 9.56606 2.88892H10.9367Z" fill="#FDFDFD"/>
</svg>
