<svg width="80" height="80" viewBox="0 0 80 80" fill="none" xmlns="http://www.w3.org/2000/svg">
<path opacity="0.5" d="M13.3334 50.6667C13.3334 43.1243 13.3334 39.353 15.6765 37.0099C18.0197 34.6667 21.7909 34.6667 29.3334 34.6667H50.6667C58.2092 34.6667 61.9804 34.6667 64.3236 37.0099C66.6667 39.353 66.6667 43.1243 66.6667 50.6667C66.6667 58.2092 66.6667 61.9805 64.3236 64.3236C61.9804 66.6668 58.2092 66.6667 50.6667 66.6667H29.3334C21.7909 66.6667 18.0197 66.6668 15.6765 64.3236C13.3334 61.9805 13.3334 58.2092 13.3334 50.6667Z" fill="#FDFDFD"/>
<path d="M26 29.3333C26 21.6013 32.268 15.3333 40 15.3333C47.732 15.3333 54 21.6013 54 29.3333V34.6761C55.513 34.6902 56.836 34.7253 58 34.8122V29.3333C58 19.3921 49.9411 11.3333 40 11.3333C30.0589 11.3333 22 19.3921 22 29.3333V34.8122C23.164 34.7253 24.487 34.6902 26 34.6761V29.3333Z" fill="#FDFDFD"/>
</svg>
