<svg width="17" height="18" viewBox="0 0 17 18" fill="none" xmlns="http://www.w3.org/2000/svg">
<path opacity="0.5" d="M12.416 7.33347V7.72464C12.416 8.19408 12.55 8.65301 12.8011 9.04361L13.4163 10.0008C13.9783 10.8751 13.5493 12.0634 12.5719 12.3399C10.015 13.0631 7.31803 13.0631 4.76115 12.3399C3.78375 12.0634 3.35474 10.8751 3.9167 10.0008L4.53195 9.04361C4.78301 8.65301 4.91699 8.19408 4.91699 7.72464V7.33347C4.91699 5.18569 6.5957 3.44458 8.6665 3.44458C10.7373 3.44458 12.416 5.18569 12.416 7.33347Z" fill="#FDFDFD"/>
<path d="M6.02393 12.6362C6.38556 13.7502 7.43199 14.5555 8.66651 14.5555C9.90103 14.5555 10.9475 13.7502 11.3091 12.6362C9.56163 12.9642 7.77139 12.9642 6.02393 12.6362Z" fill="#FDFDFD"/>
</svg>
