<svg width="26" height="25" viewBox="0 0 26 25" fill="none" xmlns="http://www.w3.org/2000/svg">
<g clip-path="url(#clip0_1_1557)">
<path opacity="0.5" d="M11.3646 6.93015L11.9055 7.89926C12.3936 8.77383 12.1976 9.92111 11.4289 10.6898C11.4289 10.6898 11.4289 10.6898 11.4289 10.6898C11.4288 10.69 10.4966 11.6224 12.1871 13.3129C13.8769 15.0028 14.8093 14.0719 14.8101 14.0711C14.8102 14.0711 14.8102 14.0711 14.8102 14.071C15.5789 13.3024 16.7262 13.1064 17.6007 13.5945L18.5698 14.1354C19.8904 14.8724 20.0464 16.7244 18.8856 17.8852C18.1881 18.5827 17.3336 19.1254 16.3891 19.1612C14.799 19.2215 12.0985 18.8191 9.38973 16.1103C6.68092 13.4014 6.27849 10.701 6.33877 9.11092C6.37458 8.16634 6.91732 7.31187 7.61482 6.61437C8.77561 5.45358 10.6276 5.60954 11.3646 6.93015Z" fill="#1D1B1C"/>
</g>
<defs>
<clipPath id="clip0_1_1557">
<rect width="25" height="25" fill="white" transform="translate(0.5)"/>
</clipPath>
</defs>
</svg>
