<svg width="20" height="21" viewBox="0 0 20 21" fill="none" xmlns="http://www.w3.org/2000/svg">
<path d="M12 8.22209L14.6667 5.55542M14.6667 5.55542V7.55542M14.6667 5.55542H12.6667" stroke="#FDFDFD" stroke-width="1.5" stroke-linecap="round" stroke-linejoin="round"/>
<path opacity="0.5" d="M8.69156 5.76636L9.12424 6.54165C9.51471 7.2413 9.35796 8.15913 8.74298 8.77411C8.74298 8.77412 8.74298 8.77411 8.74297 8.77412C8.74286 8.77423 7.99712 9.52018 9.34951 10.8726C10.7012 12.2243 11.4472 11.4799 11.448 11.4791C11.448 11.4791 11.448 11.4791 11.448 11.4791C12.063 10.8641 12.9808 10.7074 13.6804 11.0978L14.4557 11.5305C15.5122 12.1201 15.637 13.6017 14.7084 14.5304C14.1503 15.0884 13.4668 15.5226 12.7111 15.5512C11.439 15.5994 9.27869 15.2775 7.11164 13.1104C4.94459 10.9434 4.62265 8.78307 4.67087 7.51097C4.69952 6.75532 5.13371 6.07174 5.69171 5.51374C6.62034 4.5851 8.10195 4.70987 8.69156 5.76636Z" fill="#FDFDFD"/>
</svg>
