<svg width="24" height="24" viewBox="0 0 59 60" fill="none" xmlns="http://www.w3.org/2000/svg">
<g clip-path="url(#clip0_3107_67057)">
<path d="M45.7445 53.6964C41.2314 56.8723 35.7803 58.7529 29.8942 58.8175C14.4245 58.988 1.51047 46.3353 1.12531 30.5989C0.72656 14.2679 13.618 0.905273 29.5816 0.905273C36.7455 0.905273 43.2886 3.59715 48.2866 8.03598C48.7397 8.43699 48.4089 9.18832 47.8153 9.11918C37.8148 7.92535 28.0273 9.03621 21.8331 13.9268C14.6828 19.5732 14.0031 28.1421 18.1266 35.6876C23.9447 46.3353 36.8316 46.4413 45.7445 52.6593C46.1025 52.9082 46.1025 53.4475 45.7445 53.6964Z" fill="#2B9AFF"/>
<path d="M45.7445 53.6964C41.2314 56.8723 35.7803 58.7529 29.8942 58.8175C14.4245 58.988 1.51047 46.3353 1.12531 30.5989C0.72656 14.2679 13.618 0.905273 29.5816 0.905273C36.7455 0.905273 43.2886 3.59715 48.2866 8.03598C48.7397 8.43699 48.4089 9.18832 47.8153 9.11918C37.8148 7.92535 28.0273 9.03621 21.8331 13.9268C14.6828 19.5732 14.0031 28.1421 18.1266 35.6876C23.9447 46.3353 36.8316 46.4413 45.7445 52.6593C46.1025 52.9082 46.1025 53.4475 45.7445 53.6964Z" fill="white" fill-opacity="0.2"/>
<path d="M58.0469 29.8616C58.0469 33.798 57.2766 37.5501 55.8764 40.9702C48.7125 37.0753 41.0864 34.4203 37.6653 33.1204C33.6234 31.5763 30.0845 27.2896 32.4453 23.5237C34.8061 19.7579 40.6967 19.0711 47.9422 20.9517C51.0325 21.7583 53.8917 23.8187 56.4972 26.2755C57.4714 27.1974 58.0469 28.4834 58.0514 29.8386C58.0469 29.8478 58.0469 29.8524 58.0469 29.8616Z" fill="#2B9AFF"/>
<path d="M58.0469 29.8616C58.0469 33.798 57.2766 37.5501 55.8764 40.9702C48.7125 37.0753 41.0864 34.4203 37.6653 33.1204C33.6234 31.5763 30.0845 27.2896 32.4453 23.5237C34.8061 19.7579 40.6967 19.0711 47.9422 20.9517C51.0325 21.7583 53.8917 23.8187 56.4972 26.2755C57.4714 27.1974 58.0469 28.4834 58.0514 29.8386C58.0469 29.8478 58.0469 29.8524 58.0469 29.8616Z" fill="white" fill-opacity="0.2"/>
</g>
<defs>
<clipPath id="clip0_3107_67057">
<rect width="58" height="59" fill="white" transform="translate(0.5 0.5)"/>
</clipPath>
</defs>
</svg>
