<svg width="21" height="20" viewBox="0 0 21 20" fill="none" xmlns="http://www.w3.org/2000/svg">
<path opacity="0.5" d="M5.24805 8.99967V3.83301H15.9147V8.99969C15.9147 11.0424 15.9147 12.0638 15.2452 12.6984C14.5758 13.333 13.4983 13.333 11.3433 13.333H11.0814H10.0814H9.81947C7.66448 13.333 6.58699 13.333 5.91752 12.6984C5.24805 12.0638 5.24805 11.0424 5.24805 8.99967Z" fill="#AEE9FF"/>
<path d="M12.9351 8.02006C13.1304 7.8248 13.1304 7.50821 12.9351 7.31295C12.7398 7.11769 12.4233 7.11769 12.228 7.31295L11.3661 8.17488C11.3194 8.22159 11.2815 8.25943 11.2482 8.29164C11.2149 8.25943 11.1771 8.22159 11.1304 8.17488L10.7236 7.76807C10.6269 7.67135 10.5224 7.56677 10.4223 7.4904C10.305 7.40091 10.1372 7.30457 9.91488 7.30457C9.69256 7.30457 9.52473 7.40091 9.40744 7.4904C9.30732 7.56679 9.20281 7.67138 9.10615 7.76811L8.22799 8.64628C8.03273 8.84155 8.03273 9.15813 8.22799 9.35339C8.42325 9.54865 8.73983 9.54865 8.9351 9.35339L9.79703 8.49146C9.84373 8.44476 9.88161 8.40691 9.91488 8.3747C9.94814 8.40691 9.98602 8.44476 10.0327 8.49146L10.4395 8.89823C10.5361 8.99496 10.6407 9.09956 10.7408 9.17594C10.8581 9.26543 11.0259 9.36177 11.2482 9.36177C11.4705 9.36177 11.6384 9.26543 11.7556 9.17594C11.8558 9.09955 11.9603 8.99496 12.0569 8.89823L12.9351 8.02006Z" fill="#AEE9FF"/>
<path d="M3.91504 2.83301C3.6389 2.83301 3.41504 3.05687 3.41504 3.33301C3.41504 3.60915 3.6389 3.83301 3.91504 3.83301H5.24837H15.915H17.2484C17.5245 3.83301 17.7484 3.60915 17.7484 3.33301C17.7484 3.05687 17.5245 2.83301 17.2484 2.83301H3.91504Z" fill="#AEE9FF"/>
<path d="M10.0815 13.3333V15.6909L9.02455 16.2194C8.77756 16.3429 8.67745 16.6432 8.80094 16.8902C8.92444 17.1372 9.22477 17.2373 9.47176 17.1138L10.5815 16.5589L11.6912 17.1138C11.9382 17.2373 12.2385 17.1372 12.362 16.8902C12.4855 16.6432 12.3854 16.3429 12.1384 16.2194L11.0815 15.6909V13.3333H10.0815Z" fill="#AEE9FF"/>
</svg>
