<svg width="21" height="20" viewBox="0 0 21 20" fill="none" xmlns="http://www.w3.org/2000/svg">
<path d="M14.401 2.90933C14.5431 2.67254 14.8502 2.59576 15.087 2.73783L14.8298 3.16658C15.087 2.73783 15.087 2.73783 15.087 2.73783L15.0879 2.73839L15.089 2.73902L15.0914 2.74053L15.0978 2.74447C15.1027 2.74752 15.1089 2.75141 15.1162 2.75616C15.1309 2.76565 15.1503 2.77856 15.1738 2.79498C15.2207 2.8278 15.284 2.8748 15.3582 2.93664C15.5062 3.06003 15.6999 3.24436 15.8927 3.49506C16.2813 4.00021 16.6631 4.77148 16.6631 5.83325C16.6631 6.89502 16.2813 7.66628 15.8927 8.17144C15.6999 8.42213 15.5062 8.60647 15.3582 8.72986C15.284 8.79169 15.2207 8.8387 15.1738 8.87151C15.1503 8.88793 15.1309 8.90085 15.1162 8.91033C15.1126 8.9127 15.1092 8.91486 15.1061 8.9168C15.1031 8.91875 15.1003 8.92049 15.0978 8.92202L15.0914 8.92597L15.089 8.92747L15.0879 8.9281C15.0879 8.9281 15.087 8.92866 14.8298 8.49991L15.087 8.92866C14.8502 9.07073 14.5431 8.99395 14.401 8.75716C14.2595 8.52137 14.3351 8.21583 14.5695 8.07297L14.5732 8.07061C14.5781 8.06747 14.5873 8.06138 14.6003 8.05228C14.6264 8.03405 14.6672 8.00397 14.718 7.96164C14.8199 7.87669 14.9596 7.74436 15.1001 7.56172C15.3782 7.20021 15.6631 6.63814 15.6631 5.83325C15.6631 5.02835 15.3782 4.46628 15.1001 4.10477C14.9596 3.92213 14.8199 3.7898 14.718 3.70486C14.6672 3.66253 14.6264 3.63244 14.6003 3.61422C14.5873 3.60512 14.5781 3.59902 14.5732 3.59588L14.5695 3.59353C14.3351 3.45067 14.2595 3.14513 14.401 2.90933Z" fill="#AEE9FF"/>
<path d="M8.82975 8.49991C10.3025 8.49991 11.4964 7.30601 11.4964 5.83325C11.4964 4.36049 10.3025 3.16658 8.82975 3.16658C7.35699 3.16658 6.16309 4.36049 6.16309 5.83325C6.16309 7.30601 7.35699 8.49991 8.82975 8.49991Z" fill="#AEE9FF"/>
<path d="M13.7537 4.07117C13.5169 3.92909 13.2097 4.00587 13.0677 4.24267L13.2332 4.92499L13.2383 4.92854C13.2461 4.93401 13.2609 4.94482 13.2805 4.96111C13.3199 4.99396 13.3763 5.04713 13.4334 5.12143C13.5449 5.26628 13.6631 5.49502 13.6631 5.83325C13.6631 6.17148 13.5449 6.40021 13.4334 6.54506C13.3763 6.61936 13.3199 6.67253 13.2805 6.70539C13.2609 6.72167 13.2461 6.73249 13.2383 6.73795L13.2332 6.7415C13.0011 6.88513 12.9268 7.18905 13.0677 7.42383C13.2097 7.66062 13.5169 7.7374 13.7537 7.59533L13.4964 7.16658C13.7537 7.59533 13.7537 7.59533 13.7537 7.59533L13.7546 7.59479L13.7555 7.59421L13.7576 7.59293L13.7626 7.58986L13.7754 7.58172C13.7852 7.57539 13.7975 7.56723 13.8118 7.55719C13.8404 7.53713 13.8777 7.5094 13.9207 7.47361C14.0062 7.4023 14.1166 7.29713 14.2261 7.15477C14.448 6.86628 14.6631 6.42835 14.6631 5.83325C14.6631 5.23814 14.448 4.80021 14.2261 4.51172C14.1166 4.36936 14.0062 4.26419 13.9207 4.19289C13.8777 4.15709 13.8404 4.12936 13.8118 4.10931C13.7975 4.09927 13.7852 4.0911 13.7754 4.08477L13.7626 4.07663L13.7576 4.07357L13.7555 4.07228L13.7546 4.0717C13.7546 4.0717 13.7537 4.07117 13.4964 4.49991L13.7537 4.07117Z" fill="#AEE9FF"/>
<path opacity="0.5" d="M3.49609 13.4998C3.49609 15.1566 3.49609 16.4998 8.82943 16.4998C14.1628 16.4998 14.1628 15.1566 14.1628 13.4998C14.1628 11.8429 11.7749 10.4998 8.82943 10.4998C5.88391 10.4998 3.49609 11.8429 3.49609 13.4998Z" fill="#AEE9FF"/>
</svg>
