<svg width="21" height="20" viewBox="0 0 21 20" fill="none" xmlns="http://www.w3.org/2000/svg">
<g id="Bold Duotone / Users / Users Group Two Rounded">
<path id="Vector" d="M13.0778 6.99984C13.0778 8.2885 12.0331 9.33317 10.7445 9.33317C9.4558 9.33317 8.41113 8.2885 8.41113 6.99984C8.41113 5.71117 9.4558 4.6665 10.7445 4.6665C12.0331 4.6665 13.0778 5.71117 13.0778 6.99984Z" fill="#AEE9FF"/>
<path id="Vector_2" opacity="0.5" d="M15.7445 6.99992C15.7445 7.92039 14.9983 8.66658 14.0778 8.66658C13.1573 8.66658 12.4111 7.92039 12.4111 6.99992C12.4111 6.07944 13.1573 5.33325 14.0778 5.33325C14.9983 5.33325 15.7445 6.07944 15.7445 6.99992Z" fill="#AEE9FF"/>
<path id="Vector_3" opacity="0.5" d="M5.74382 6.99992C5.74382 7.92039 6.49001 8.66658 7.41048 8.66658C8.33096 8.66658 9.07715 7.92039 9.07715 6.99992C9.07715 6.07944 8.33096 5.33325 7.41048 5.33325C6.49001 5.33325 5.74382 6.07944 5.74382 6.99992Z" fill="#AEE9FF"/>
<path id="Vector_4" d="M14.7441 12.9998C14.7441 14.2885 12.9533 15.3332 10.7441 15.3332C8.535 15.3332 6.74414 14.2885 6.74414 12.9998C6.74414 11.7112 8.535 10.6665 10.7441 10.6665C12.9533 10.6665 14.7441 11.7112 14.7441 12.9998Z" fill="#AEE9FF"/>
<path id="Vector_5" opacity="0.5" d="M17.4105 12.9999C17.4105 13.9204 16.2166 14.6666 14.7438 14.6666C13.2711 14.6666 12.0771 13.9204 12.0771 12.9999C12.0771 12.0794 13.2711 11.3333 14.7438 11.3333C16.2166 11.3333 17.4105 12.0794 17.4105 12.9999Z" fill="#AEE9FF"/>
<path id="Vector_6" opacity="0.5" d="M4.0778 12.9999C4.0778 13.9204 5.27171 14.6666 6.74447 14.6666C8.21723 14.6666 9.41113 13.9204 9.41113 12.9999C9.41113 12.0794 8.21723 11.3333 6.74447 11.3333C5.27171 11.3333 4.0778 12.0794 4.0778 12.9999Z" fill="#AEE9FF"/>
</g>
</svg>
