<svg width="30" height="30" viewBox="0 0 30 30" fill="none" xmlns="http://www.w3.org/2000/svg">
<path d="M7.8916 12.6143C7.8916 12.2119 8.21525 11.8857 8.61449 11.8857H12.4699C12.8692 11.8857 13.1928 12.2119 13.1928 12.6143C13.1928 13.0167 12.8692 13.3429 12.4699 13.3429H8.61449C8.21525 13.3429 7.8916 13.0167 7.8916 12.6143Z" fill="#AEE9FF"/>
<path fill-rule="evenodd" clip-rule="evenodd" d="M24.1884 13.0038C24.1262 13 24.0584 13 23.9881 13L23.9706 13H21.2149C18.9435 13 17 14.7361 17 17C17 19.2639 18.9435 21 21.2149 21H23.9706L23.9881 21C24.0584 21 24.1262 21 24.1884 20.9962C25.111 20.9397 25.927 20.2386 25.9956 19.2594C26.0001 19.1952 26 19.126 26 19.0619L26 19.0444V14.9556L26 14.9381C26 14.874 26.0001 14.8048 25.9956 14.7406C25.927 13.7614 25.111 13.0603 24.1884 13.0038ZM20.9706 18.0667C21.5554 18.0667 22.0294 17.5891 22.0294 17C22.0294 16.4109 21.5554 15.9333 20.9706 15.9333C20.3858 15.9333 19.9118 16.4109 19.9118 17C19.9118 17.5891 20.3858 18.0667 20.9706 18.0667Z" fill="#AEE9FF"/>
<path opacity="0.5" d="M24.1394 13.0015C24.1394 11.8209 24.0965 10.5545 23.3418 9.64658C23.2689 9.55894 23.1914 9.47384 23.1088 9.39124C22.3604 8.64288 21.4114 8.31076 20.239 8.15314C19.0998 7.99997 17.6442 7.99999 15.8064 8H13.6936C11.8558 7.99999 10.4002 7.99997 9.26098 8.15314C8.08856 8.31076 7.13961 8.64288 6.39124 9.39124C5.64288 10.1396 5.31076 11.0886 5.15314 12.261C4.99997 13.4002 4.99999 14.8558 5 16.6936V16.8064C4.99999 18.6442 4.99997 20.0998 5.15314 21.239C5.31076 22.4114 5.64288 23.3604 6.39124 24.1088C7.13961 24.8571 8.08856 25.1892 9.26098 25.3469C10.4002 25.5 11.8558 25.5 13.6935 25.5H15.8064C17.6442 25.5 19.0998 25.5 20.239 25.3469C21.4114 25.1892 22.3604 24.8571 23.1088 24.1088C23.3133 23.9042 23.487 23.6844 23.6346 23.4486C24.0851 22.7291 24.1394 21.8473 24.1394 20.9985C24.0912 21 24.0404 21 23.9882 21L21.2149 21C18.9435 21 17 19.2639 17 17C17 14.7361 18.9435 13 21.2149 13L23.9881 13C24.0403 13 24.0912 13 24.1394 13.0015Z" fill="#AEE9FF"/>
<path d="M13.1015 5.57211L11 6.99253L9.26672 8.15237C10.4051 7.99997 11.8589 7.99999 13.6936 8H15.8064C17.6442 7.99998 19.0998 7.99997 20.239 8.15314C20.4682 8.18394 20.6888 8.22142 20.9011 8.26737L19 7L16.8875 5.57211C15.7589 4.8093 14.23 4.8093 13.1015 5.57211Z" fill="#AEE9FF"/>
</svg>
