<!-- Generated by IcoMoon.io -->
<svg version="1.1" xmlns="http://www.w3.org/2000/svg" width="1024" height="1024" viewBox="0 0 1024 1024">
<title></title>
<g id="icomoon-ignore">
</g>
<path d="M891.961 132.039c-56.937-56.937-142.138-78.706-251.961-78.706h-256c-109.824 0-195.025 21.769-251.959 78.706-56.939 56.937-78.707 142.138-78.707 251.961v256c0 109.824 21.769 195.025 78.707 251.959 56.934 56.939 142.135 78.707 251.959 78.707h256c109.823 0 195.023-21.769 251.961-78.707 56.937-56.934 78.706-142.135 78.706-251.959v-256c0-109.823-21.769-195.023-78.706-251.961zM846.706 177.294c39.063 39.063 59.961 103.195 59.961 206.706v256c0 103.509-20.898 167.642-59.961 206.707-39.063 39.061-103.195 59.959-206.706 59.959h-256c-103.509 0-167.642-20.898-206.707-59.959-39.061-39.066-59.959-103.198-59.959-206.707v-256c0-103.511 20.898-167.643 59.959-206.706 39.066-39.063 103.198-59.961 206.707-59.961h256c103.511 0 167.643 20.898 206.706 59.961z"></path>
<path d="M293.137 380.46c-13.969 10.828-16.512 30.928-5.687 44.896l98.748 127.39c25.382 32.098 72.183 37.952 104.832 12.727l0.222-0.175 77.935-61.325c4.813-3.657 11.529-2.748 15.185 1.971 0 0.004-0.004-0.009 0 0l101.525 131.814c10.784 13.999 30.877 16.606 44.879 5.824 14.001-10.786 16.609-30.878 5.825-44.881l-101.577-131.878c-25.34-32.794-72.326-38.72-105.047-13.436l-0.222 0.175-77.935 61.325c-4.864 3.695-11.721 2.743-15.351-1.758l-98.436-126.984c-10.825-13.968-30.925-16.514-44.894-5.686z"></path>
</svg>
