<svg width="24" height="24" viewBox="0 0 24 24" fill="none" xmlns="http://www.w3.org/2000/svg">
<path d="M19.24 5.58006H18.84L15.46 2.20006C15.19 1.93006 14.75 1.93006 14.47 2.20006C14.2 2.47006 14.2 2.91006 14.47 3.19006L16.86 5.58006H7.14L9.53 3.19006C9.8 2.92006 9.8 2.48006 9.53 2.20006C9.26 1.93006 8.82 1.93006 8.54 2.20006L5.17 5.58006H4.77C3.87 5.58006 2 5.58006 2 8.14006C2 9.11006 2.2 9.75006 2.62 10.1701C2.86 10.4201 3.15 10.5501 3.46 10.6201C3.75 10.6901 4.06 10.7001 4.36 10.7001H19.64C19.95 10.7001 20.24 10.6801 20.52 10.6201C21.36 10.4201 22 9.82006 22 8.14006C22 5.58006 20.13 5.58006 19.24 5.58006Z" fill="#292D32"/>
<path d="M19.0499 12H4.86991C4.24991 12 3.77991 12.55 3.87991 13.16L4.71991 18.3C4.99991 20.02 5.74991 22 9.07991 22H14.6899C18.0599 22 18.6599 20.31 19.0199 18.42L20.0299 13.19C20.1499 12.57 19.6799 12 19.0499 12ZM11.9999 19.5C9.65991 19.5 7.74991 17.59 7.74991 15.25C7.74991 14.84 8.08991 14.5 8.49991 14.5C8.90991 14.5 9.24991 14.84 9.24991 15.25C9.24991 16.77 10.4799 18 11.9999 18C13.5199 18 14.7499 16.77 14.7499 15.25C14.7499 14.84 15.0899 14.5 15.4999 14.5C15.9099 14.5 16.2499 14.84 16.2499 15.25C16.2499 17.59 14.3399 19.5 11.9999 19.5Z" fill="#292D32"/>
</svg>
