<svg width="24" height="24" viewBox="0 0 24 24" fill="none" xmlns="http://www.w3.org/2000/svg">
<path d="M19.96 8.9599C19.29 8.2199 18.28 7.7899 16.88 7.6399V6.8799C16.88 5.5099 16.3 4.1899 15.28 3.2699C14.25 2.3299 12.91 1.8899 11.52 2.0199C9.12999 2.2499 7.11999 4.5599 7.11999 7.0599V7.6399C5.71999 7.7899 4.70999 8.2199 4.03999 8.9599C3.06999 10.0399 3.09999 11.4799 3.20999 12.4799L3.90999 18.0499C4.11999 19.9999 4.90999 21.9999 9.20999 21.9999H14.79C19.09 21.9999 19.88 19.9999 20.09 18.0599L20.79 12.4699C20.9 11.4799 20.93 10.0399 19.96 8.9599ZM11.66 3.4099C12.66 3.3199 13.61 3.6299 14.35 4.2999C15.08 4.9599 15.49 5.8999 15.49 6.8799V7.5799H8.50999V7.0599C8.50999 5.2799 9.97999 3.5699 11.66 3.4099ZM12 18.5799C9.90999 18.5799 8.20999 16.8799 8.20999 14.7899C8.20999 12.6999 9.90999 10.9999 12 10.9999C14.09 10.9999 15.79 12.6999 15.79 14.7899C15.79 16.8799 14.09 18.5799 12 18.5799Z" fill="#292D32"/>
<path d="M13.6001 15.3102L13.0701 14.7802L13.5701 14.2802C13.8601 13.9902 13.8601 13.5102 13.5701 13.2202C13.2801 12.9302 12.8001 12.9302 12.5101 13.2202L12.0101 13.7202L11.4801 13.1902C11.1901 12.9002 10.7101 12.9002 10.4201 13.1902C10.1301 13.4802 10.1301 13.9602 10.4201 14.2502L10.9501 14.7802L10.4001 15.3302C10.1101 15.6202 10.1101 16.1002 10.4001 16.3902C10.5501 16.5402 10.7401 16.6102 10.9301 16.6102C11.1201 16.6102 11.3101 16.5402 11.4601 16.3902L12.0101 15.8402L12.5401 16.3702C12.6901 16.5202 12.8801 16.5902 13.0701 16.5902C13.2601 16.5902 13.4501 16.5202 13.6001 16.3702C13.8901 16.0802 13.8901 15.6102 13.6001 15.3102Z" fill="#292D32"/>
</svg>
