<svg width="24" height="24" viewBox="0 0 24 24" fill="none" xmlns="http://www.w3.org/2000/svg">
<path d="M15.61 5.50002V15.66C15.61 16.06 15.49 16.45 15.27 16.78L12.54 20.84C12.11 21.49 11.04 21.95 10.13 21.61C9.15002 21.28 8.50002 20.18 8.71002 19.2L9.23002 15.93C9.27002 15.63 9.19002 15.36 9.02002 15.15C8.85002 14.96 8.60002 14.84 8.33002 14.84H4.22002C3.43002 14.84 2.75002 14.52 2.35002 13.96C1.97002 13.42 1.90002 12.72 2.15002 12.01L4.61002 4.52002C4.92002 3.28002 6.27002 2.27002 7.61002 2.27002H11.51C12.18 2.27002 13.12 2.50002 13.55 2.93002L14.83 3.92002C15.32 4.30002 15.61 4.88002 15.61 5.50002Z" fill="#292D32"/>
<path d="M18.7899 17.6099H19.8199C21.3699 17.6099 21.9999 17.0099 21.9999 15.5299V5.4799C21.9999 3.9999 21.3699 3.3999 19.8199 3.3999H18.7899C17.2399 3.3999 16.6099 3.9999 16.6099 5.4799V15.5399C16.6099 17.0099 17.2399 17.6099 18.7899 17.6099Z" fill="#292D32"/>
</svg>
