<svg width="24" height="24" viewBox="0 0 24 24" fill="none" xmlns="http://www.w3.org/2000/svg">
<path d="M21 22H3C2.59 22 2.25 21.66 2.25 21.25C2.25 20.84 2.59 20.5 3 20.5H21C21.41 20.5 21.75 20.84 21.75 21.25C21.75 21.66 21.41 22 21 22Z" fill="#292D32"/>
<path d="M19.0201 3.48016C17.0801 1.54016 15.1801 1.49016 13.1901 3.48016L11.9801 4.69016C11.8801 4.79016 11.8401 4.95016 11.8801 5.09016C12.6401 7.74016 14.7601 9.86016 17.4101 10.6202C17.4501 10.6302 17.4901 10.6402 17.5301 10.6402C17.6401 10.6402 17.7401 10.6002 17.8201 10.5202L19.0201 9.31016C20.0101 8.33016 20.4901 7.38016 20.4901 6.42016C20.5001 5.43016 20.0201 4.47016 19.0201 3.48016Z" fill="#292D32"/>
<path d="M15.6098 11.5298C15.3198 11.3898 15.0398 11.2498 14.7698 11.0898C14.5498 10.9598 14.3398 10.8198 14.1298 10.6698C13.9598 10.5598 13.7598 10.3998 13.5698 10.2398C13.5498 10.2298 13.4798 10.1698 13.3998 10.0898C13.0698 9.8098 12.6998 9.4498 12.3698 9.0498C12.3398 9.0298 12.2898 8.9598 12.2198 8.8698C12.1198 8.7498 11.9498 8.5498 11.7998 8.3198C11.6798 8.1698 11.5398 7.9498 11.4098 7.7298C11.2498 7.4598 11.1098 7.1898 10.9698 6.9098C10.9486 6.86441 10.9281 6.81924 10.9083 6.77434C10.7607 6.44102 10.3261 6.34358 10.0683 6.60133L4.33983 12.3298C4.20983 12.4598 4.08983 12.7098 4.05983 12.8798L3.51983 16.7098C3.41983 17.3898 3.60983 18.0298 4.02983 18.4598C4.38983 18.8098 4.88983 18.9998 5.42983 18.9998C5.54983 18.9998 5.66983 18.9898 5.78983 18.9698L9.62983 18.4298C9.80983 18.3998 10.0598 18.2798 10.1798 18.1498L15.9011 12.4285C16.1607 12.1689 16.0628 11.7235 15.7252 11.5794C15.6872 11.5632 15.6488 11.5467 15.6098 11.5298Z" fill="#292D32"/>
</svg>
