<svg width="24" height="24" viewBox="0 0 24 24" fill="none" xmlns="http://www.w3.org/2000/svg">
<path d="M17.9199 10.12C17.5899 10.04 17.2399 10 16.8799 10C14.2599 10 12.1299 12.13 12.1299 14.75C12.1299 15.64 12.3799 16.48 12.8199 17.2C13.1899 17.82 13.6999 18.35 14.3199 18.73C15.0599 19.22 15.9399 19.5 16.8799 19.5C18.6199 19.5 20.1299 18.57 20.9499 17.2C21.3899 16.48 21.6299 15.64 21.6299 14.75C21.6299 12.49 20.0499 10.59 17.9199 10.12ZM19.2499 14.13L16.7099 16.47C16.5699 16.6 16.3799 16.67 16.1999 16.67C16.0099 16.67 15.8199 16.6 15.6699 16.45L14.4999 15.28C14.2099 14.99 14.2099 14.51 14.4999 14.22C14.7899 13.93 15.2699 13.93 15.5599 14.22L16.2199 14.88L18.2299 13.03C18.5399 12.75 19.0099 12.77 19.2899 13.07C19.5699 13.38 19.5499 13.85 19.2499 14.13Z" fill="#292D32"/>
<path d="M20.5799 4.02V6.24C20.5799 7.05 20.0799 8.06 19.5799 8.57L19.3999 8.73C19.2599 8.86 19.0499 8.89 18.8699 8.83C18.6699 8.76 18.4699 8.71 18.2699 8.66C17.8299 8.55 17.3599 8.5 16.8799 8.5C13.4299 8.5 10.6299 11.3 10.6299 14.75C10.6299 15.89 10.9399 17.01 11.5299 17.97C12.0299 18.81 12.7299 19.51 13.4899 19.98C13.7199 20.13 13.8099 20.45 13.6099 20.63C13.5399 20.69 13.4699 20.74 13.3999 20.79L11.9999 21.7C10.6999 22.51 8.90992 21.6 8.90992 19.98V14.63C8.90992 13.92 8.50992 13.01 8.10992 12.51L4.31992 8.47C3.81992 7.96 3.41992 7.05 3.41992 6.45V4.12C3.41992 2.91 4.31992 2 5.40992 2H18.5899C19.6799 2 20.5799 2.91 20.5799 4.02Z" fill="#292D32"/>
</svg>
