<svg width="24" height="24" viewBox="0 0 24 24" fill="none" xmlns="http://www.w3.org/2000/svg">
<path fill-rule="evenodd" clip-rule="evenodd" d="M1.85479 3.68484C2.66194 2.23671 4.21723 1.25 5.99989 1.25H14.9999C15.4141 1.25 15.7499 1.58579 15.7499 2V12C15.7499 13.5142 14.5141 14.75 12.9999 14.75H11.9999C11.5857 14.75 11.2499 14.4142 11.2499 14C11.2499 13.5858 11.5857 13.25 11.9999 13.25H12.9999C13.6857 13.25 14.2499 12.6858 14.2499 12V2.75H5.99989C4.78255 2.75 3.71786 3.42326 3.16501 4.41513C2.96335 4.77694 2.50657 4.90676 2.14476 4.7051C1.78295 4.50344 1.65313 4.04665 1.85479 3.68484Z" fill="#292D32"/>
<path fill-rule="evenodd" clip-rule="evenodd" d="M14.25 5C14.25 4.58579 14.5858 4.25 15 4.25H16.84C17.8339 4.25 18.7377 4.788 19.2286 5.63341L19.2311 5.63767L19.2311 5.63768L20.941 8.62767C21.0738 8.85979 21.0729 9.14503 20.9387 9.37633C20.8046 9.60763 20.5574 9.75 20.29 9.75H19C18.8642 9.75 18.75 9.86421 18.75 10V13C18.75 13.1358 18.8642 13.25 19 13.25H22C22.4142 13.25 22.75 13.5858 22.75 14V17C22.75 19.0742 21.0742 20.75 19 20.75H18C17.5858 20.75 17.25 20.4142 17.25 20C17.25 19.3142 16.6858 18.75 16 18.75C15.3142 18.75 14.75 19.3142 14.75 20C14.75 20.4142 14.4142 20.75 14 20.75H10C9.58579 20.75 9.25 20.4142 9.25 20C9.25 19.3142 8.68579 18.75 8 18.75C7.31421 18.75 6.75 19.3142 6.75 20C6.75 20.4142 6.41421 20.75 6 20.75H5C2.92579 20.75 1.25 19.0742 1.25 17C1.25 16.5858 1.58579 16.25 2 16.25C2.41421 16.25 2.75 16.5858 2.75 17C2.75 18.2458 3.75421 19.25 5 19.25H5.35431C5.68227 18.0981 6.74559 17.25 8 17.25C9.25441 17.25 10.3177 18.0981 10.6457 19.25H13.3543C13.6823 18.0981 14.7456 17.25 16 17.25C17.2544 17.25 18.3177 18.0981 18.6457 19.25H19C20.2458 19.25 21.25 18.2458 21.25 17V14.75H19C18.0358 14.75 17.25 13.9642 17.25 13V10C17.25 9.03676 18.0342 8.25159 18.9971 8.25L17.9314 6.38661C17.9311 6.38599 17.9307 6.38537 17.9303 6.38475C17.701 5.99126 17.2855 5.75 16.84 5.75H15.75V12C15.75 13.5142 14.5142 14.75 13 14.75H12C11.5858 14.75 11.25 14.4142 11.25 14C11.25 13.5858 11.5858 13.25 12 13.25H13C13.6858 13.25 14.25 12.6858 14.25 12V5Z" fill="#292D32"/>
<path fill-rule="evenodd" clip-rule="evenodd" d="M8 18.75C7.30964 18.75 6.75 19.3096 6.75 20C6.75 20.6904 7.30964 21.25 8 21.25C8.69036 21.25 9.25 20.6904 9.25 20C9.25 19.3096 8.69036 18.75 8 18.75ZM5.25 20C5.25 18.4812 6.48122 17.25 8 17.25C9.51878 17.25 10.75 18.4812 10.75 20C10.75 21.5188 9.51878 22.75 8 22.75C6.48122 22.75 5.25 21.5188 5.25 20Z" fill="#292D32"/>
<path fill-rule="evenodd" clip-rule="evenodd" d="M16 18.75C15.3096 18.75 14.75 19.3096 14.75 20C14.75 20.6904 15.3096 21.25 16 21.25C16.6904 21.25 17.25 20.6904 17.25 20C17.25 19.3096 16.6904 18.75 16 18.75ZM13.25 20C13.25 18.4812 14.4812 17.25 16 17.25C17.5188 17.25 18.75 18.4812 18.75 20C18.75 21.5188 17.5188 22.75 16 22.75C14.4812 22.75 13.25 21.5188 13.25 20Z" fill="#292D32"/>
<path fill-rule="evenodd" clip-rule="evenodd" d="M19 9.75C18.8642 9.75 18.75 9.86421 18.75 10V13C18.75 13.1358 18.8642 13.25 19 13.25H21.25V12.1987L19.8542 9.75H19ZM17.25 10C17.25 9.03579 18.0358 8.25 19 8.25H20.29C20.5594 8.25 20.8081 8.39452 20.9416 8.62859L22.6516 11.6286C22.7161 11.7418 22.75 11.8698 22.75 12V14C22.75 14.4142 22.4142 14.75 22 14.75H19C18.0358 14.75 17.25 13.9642 17.25 13V10Z" fill="#292D32"/>
<path fill-rule="evenodd" clip-rule="evenodd" d="M1.25 8C1.25 7.58579 1.58579 7.25 2 7.25H8C8.41421 7.25 8.75 7.58579 8.75 8C8.75 8.41421 8.41421 8.75 8 8.75H2C1.58579 8.75 1.25 8.41421 1.25 8Z" fill="#292D32"/>
<path fill-rule="evenodd" clip-rule="evenodd" d="M1.25 11C1.25 10.5858 1.58579 10.25 2 10.25H6C6.41421 10.25 6.75 10.5858 6.75 11C6.75 11.4142 6.41421 11.75 6 11.75H2C1.58579 11.75 1.25 11.4142 1.25 11Z" fill="#292D32"/>
<path fill-rule="evenodd" clip-rule="evenodd" d="M1.25 14C1.25 13.5858 1.58579 13.25 2 13.25H4C4.41421 13.25 4.75 13.5858 4.75 14C4.75 14.4142 4.41421 14.75 4 14.75H2C1.58579 14.75 1.25 14.4142 1.25 14Z" fill="#292D32"/>
</svg>
