<svg width="24" height="24" viewBox="0 0 24 24" fill="none" xmlns="http://www.w3.org/2000/svg">
<path d="M19.7901 4.21982C16.8301 1.26982 12.0301 1.26982 9.09015 4.21982C7.02015 6.26982 6.40015 9.21982 7.20015 11.8198L2.50015 16.5198C2.17015 16.8598 1.94015 17.5298 2.01015 18.0098L2.31015 20.1898C2.42015 20.9098 3.09015 21.5898 3.81015 21.6898L5.99015 21.9898C6.47015 22.0598 7.14015 21.8398 7.48015 21.4898L8.30015 20.6698C8.50015 20.4798 8.50015 20.1598 8.30015 19.9598L6.36015 18.0198C6.07015 17.7298 6.07015 17.2498 6.36015 16.9598C6.65015 16.6698 7.13015 16.6698 7.42015 16.9598L9.37015 18.9098C9.56015 19.0998 9.88015 19.0998 10.0701 18.9098L12.1901 16.7998C14.7801 17.6098 17.7301 16.9798 19.7901 14.9298C22.7401 11.9798 22.7401 7.16982 19.7901 4.21982ZM14.5001 11.9998C13.1201 11.9998 12.0001 10.8798 12.0001 9.49982C12.0001 8.11982 13.1201 6.99982 14.5001 6.99982C15.8801 6.99982 17.0001 8.11982 17.0001 9.49982C17.0001 10.8798 15.8801 11.9998 14.5001 11.9998Z" fill="#292D32"/>
</svg>
