<svg width="24" height="24" viewBox="0 0 24 24" fill="none" xmlns="http://www.w3.org/2000/svg">
<path d="M14.975 12.0002C14.975 12.1335 14.95 12.2625 14.9 12.3872C14.85 12.5125 14.7834 12.6169 14.7 12.7002L10.1 17.3002C9.91672 17.4835 9.68338 17.5752 9.40005 17.5752C9.11671 17.5752 8.88338 17.4835 8.70005 17.3002C8.51672 17.1169 8.42505 16.8835 8.42505 16.6002C8.42505 16.3169 8.51672 16.0835 8.70005 15.9002L12.6 12.0002L8.70005 8.1002C8.51672 7.91686 8.42505 7.68353 8.42505 7.4002C8.42505 7.11686 8.51672 6.88353 8.70005 6.7002C8.88338 6.51686 9.11671 6.42519 9.40005 6.42519C9.68338 6.42519 9.91672 6.51686 10.1 6.7002L14.7 11.3002C14.8 11.4002 14.8707 11.5085 14.912 11.6252C14.954 11.7419 14.975 11.8669 14.975 12.0002Z" fill="black"/>
</svg>
