<svg width="24" height="24" viewBox="0 0 24 24" fill="none" xmlns="http://www.w3.org/2000/svg">
<path d="M20.6202 8.7C19.5802 4.07 15.5402 2 12.0002 2C12.0002 2 12.0002 2 11.9902 2C8.46024 2 4.43024 4.07 3.38024 8.69C2.20024 13.85 5.36024 18.22 8.22024 20.98C9.28024 22 10.6402 22.51 12.0002 22.51C13.3602 22.51 14.7202 22 15.7702 20.98C18.6302 18.22 21.7902 13.86 20.6202 8.7ZM15.2802 9.53L11.2802 13.53C11.1302 13.68 10.9402 13.75 10.7502 13.75C10.5602 13.75 10.3702 13.68 10.2202 13.53L8.72024 12.03C8.43024 11.74 8.43024 11.26 8.72024 10.97C9.01024 10.68 9.49024 10.68 9.78024 10.97L10.7502 11.94L14.2202 8.47C14.5102 8.18 14.9902 8.18 15.2802 8.47C15.5702 8.76 15.5702 9.24 15.2802 9.53Z" fill="#292D32"/>
</svg>
