<svg width="24" height="24" viewBox="0 0 24 24" fill="none" xmlns="http://www.w3.org/2000/svg">
<path d="M20.6202 8.7C19.5802 4.07 15.5402 2 12.0002 2C12.0002 2 12.0002 2 11.9902 2C8.46024 2 4.43024 4.07 3.38024 8.69C2.20024 13.85 5.36024 18.22 8.22024 20.98C9.28024 22 10.6402 22.51 12.0002 22.51C13.3602 22.51 14.7202 22 15.7702 20.98C18.6302 18.22 21.7902 13.86 20.6202 8.7ZM14.7502 11.75H12.7502V13.75C12.7502 14.16 12.4102 14.5 12.0002 14.5C11.5902 14.5 11.2502 14.16 11.2502 13.75V11.75H9.25024C8.84024 11.75 8.50024 11.41 8.50024 11C8.50024 10.59 8.84024 10.25 9.25024 10.25H11.2502V8.25C11.2502 7.84 11.5902 7.5 12.0002 7.5C12.4102 7.5 12.7502 7.84 12.7502 8.25V10.25H14.7502C15.1602 10.25 15.5002 10.59 15.5002 11C15.5002 11.41 15.1602 11.75 14.7502 11.75Z" fill="#292D32"/>
</svg>
