<svg width="24" height="24" viewBox="0 0 24 24" fill="none" xmlns="http://www.w3.org/2000/svg">
<path d="M20.6202 8.7C19.5802 4.07 15.5402 2 12.0002 2C12.0002 2 12.0002 2 11.9902 2C8.46024 2 4.43024 4.07 3.38024 8.69C2.20024 13.85 5.36024 18.22 8.22024 20.98C9.28024 22 10.6402 22.51 12.0002 22.51C13.3602 22.51 14.7202 22 15.7702 20.98C18.6302 18.22 21.7902 13.86 20.6202 8.7ZM14.5302 13.49C14.3802 13.64 14.1902 13.71 14.0002 13.71C13.8102 13.71 13.6202 13.64 13.4702 13.49L12.0202 12.04L10.5302 13.53C10.3802 13.68 10.1902 13.75 10.0002 13.75C9.81024 13.75 9.62024 13.68 9.47024 13.53C9.18024 13.24 9.18024 12.76 9.47024 12.47L10.9602 10.98L9.51024 9.53C9.22024 9.24 9.22024 8.76 9.51024 8.47C9.80024 8.18 10.2802 8.18 10.5702 8.47L12.0202 9.92L13.4202 8.52C13.7102 8.23 14.1902 8.23 14.4802 8.52C14.7702 8.81 14.7702 9.29 14.4802 9.58L13.0802 10.98L14.5302 12.43C14.8202 12.72 14.8202 13.19 14.5302 13.49Z" fill="#292D32"/>
</svg>
