<svg width="16" height="14" viewBox="0 0 16 14" fill="none" xmlns="http://www.w3.org/2000/svg">
<path d="M10.1091 1.81348H5.05458C2.52731 1.81348 1.26367 2.90294 1.26367 5.08187V12.1634C1.26367 12.463 1.54799 12.7081 1.89549 12.7081H10.1091C12.6364 12.7081 13.9 11.6186 13.9 9.43972V5.08187C13.9 2.90294 12.6364 1.81348 10.1091 1.81348ZM7.01954 9.79924C6.86158 9.93542 6.57094 10.0607 6.35613 10.0879L5.04194 10.2459C4.9914 10.2514 4.94085 10.2568 4.89663 10.2568C4.67549 10.2568 4.47331 10.1914 4.32799 10.0662C4.15108 9.91364 4.07526 9.6903 4.11949 9.45061L4.30272 8.31757C4.33431 8.13236 4.47963 7.87634 4.63758 7.7456L7.01954 5.69197C7.05744 5.79002 7.10799 5.88807 7.16485 5.99702C7.22172 6.09507 7.27858 6.19312 7.34176 6.28572C7.39231 6.36199 7.44917 6.43825 7.49972 6.49272C7.5629 6.57443 7.62608 6.64525 7.67031 6.68338C7.69558 6.71606 7.72085 6.73785 7.72717 6.74875C7.86617 6.88493 8.01149 7.01566 8.15049 7.11372C8.1884 7.1464 8.21367 7.16274 8.21999 7.16819C8.30213 7.22266 8.37794 7.28258 8.45376 7.32071C8.5359 7.37519 8.62435 7.42421 8.71281 7.46779C8.82022 7.52226 8.93394 7.57674 9.05399 7.62576C9.17404 7.67479 9.28776 7.71292 9.40149 7.7456L7.01954 9.79924ZM10.4566 6.84135L9.96381 7.26624C9.93222 7.29348 9.88799 7.30982 9.84376 7.30982C9.83113 7.30982 9.80585 7.30982 9.79322 7.30437C8.70649 7.03745 7.8409 6.29117 7.53131 5.35423C7.51235 5.30521 7.53131 5.25073 7.57554 5.2126L8.07467 4.78226C8.88972 4.07956 9.66053 4.0959 10.4566 4.78226C10.861 5.13089 11.0632 5.46863 11.0569 5.81725C11.0569 6.16044 10.861 6.49272 10.4566 6.84135Z" fill="#292D32"/>
</svg>
