<svg width="24" height="24" viewBox="0 0 24 24" fill="none" xmlns="http://www.w3.org/2000/svg">
<path fill-rule="evenodd" clip-rule="evenodd" d="M17.9098 2.75C16.894 2.75 16.0798 3.56421 16.0798 4.58C16.0798 5.55792 16.832 6.34607 17.7841 6.40782C17.8639 6.40073 17.9457 6.40073 18.0256 6.40782C18.9761 6.34613 19.7315 5.559 19.7398 4.57733C19.7384 3.57086 18.9228 2.75 17.9098 2.75ZM14.5798 4.58C14.5798 2.73579 16.0656 1.25 17.9098 1.25C19.7559 1.25 21.2398 2.74768 21.2398 4.58V4.58536H21.2398C21.227 6.38428 19.8109 7.84488 18.027 7.90951C17.9862 7.91099 17.9453 7.90913 17.9048 7.90396C17.8643 7.90913 17.8235 7.91099 17.7827 7.90951C15.9997 7.84491 14.5798 6.38403 14.5798 4.58Z" fill="#292D32"/>
<path fill-rule="evenodd" clip-rule="evenodd" d="M16.8104 8.85124C18.3307 8.58491 20.0643 8.83883 21.3245 9.67506L21.3259 9.67596C22.1872 10.2502 22.7173 11.0823 22.7173 12.01C22.7173 12.9377 22.1872 13.7698 21.3259 14.344C20.0749 15.1813 18.3621 15.4342 16.8456 15.1796C16.4372 15.1111 16.1616 14.7243 16.2302 14.3158C16.2988 13.9073 16.6855 13.6318 17.094 13.7003C18.317 13.9057 19.6235 13.6789 20.4924 13.0969L20.4938 13.096C21.0424 12.7302 21.2173 12.3223 21.2173 12.01C21.2173 11.6978 21.0426 11.2901 20.4945 10.9245C19.6147 10.3411 18.2886 10.1151 17.0692 10.3287C16.6612 10.4002 16.2725 10.1274 16.2011 9.71941C16.1296 9.31141 16.4024 8.92271 16.8104 8.85124Z" fill="#292D32"/>
<path fill-rule="evenodd" clip-rule="evenodd" d="M2.72998 4.58C2.72998 2.74768 4.21388 1.25 6.05998 1.25C7.9042 1.25 9.38998 2.73579 9.38998 4.58C9.38998 6.38403 7.97013 7.84491 6.18714 7.90951C6.14632 7.91099 6.10547 7.90913 6.06498 7.90396C6.0245 7.90913 5.98364 7.91099 5.94283 7.90951C4.15889 7.84488 2.74285 6.38429 2.73 4.58536L2.72998 4.58ZM4.22998 4.57733C4.23836 5.559 4.99376 6.34613 5.94423 6.40782C6.02409 6.40073 6.10588 6.40073 6.18574 6.40782C7.13785 6.34607 7.88998 5.55792 7.88998 4.58C7.88998 3.56421 7.07577 2.75 6.05998 2.75C5.04698 2.75 4.23142 3.57087 4.22998 4.57733Z" fill="#292D32"/>
<path fill-rule="evenodd" clip-rule="evenodd" d="M3.47529 10.9245C4.35505 10.3411 5.68115 10.1151 6.90052 10.3287C7.30852 10.4002 7.69721 10.1274 7.76869 9.71941C7.84016 9.31141 7.56736 8.92271 7.15935 8.85124C5.63904 8.58491 3.90551 8.83883 2.64527 9.67506L2.64526 9.67506L2.64392 9.67596C1.78253 10.2502 1.25244 11.0823 1.25244 12.01C1.25244 12.9374 1.78225 13.7693 2.64324 14.3436C3.8942 15.1812 5.60735 15.4343 7.12411 15.1796C7.53261 15.1111 7.80817 14.7243 7.73959 14.3158C7.67101 13.9073 7.28426 13.6318 6.87577 13.7003C5.6528 13.9057 4.3463 13.6789 3.47732 13.0969L3.47597 13.096C2.92735 12.7302 2.75244 12.3223 2.75244 12.01C2.75244 11.6978 2.92721 11.2901 3.47529 10.9245Z" fill="#292D32"/>
<path fill-rule="evenodd" clip-rule="evenodd" d="M11.9101 10.2202C10.8943 10.2202 10.0801 11.0344 10.0801 12.0502C10.0801 13.0281 10.8322 13.8163 11.7843 13.878C11.8653 13.8708 11.9483 13.8709 12.0292 13.8783C12.972 13.8243 13.7317 13.0345 13.7401 12.0475C13.7386 11.0411 12.9231 10.2202 11.9101 10.2202ZM8.58008 12.0502C8.58008 10.206 10.0659 8.72021 11.9101 8.72021C13.7562 8.72021 15.2401 10.2179 15.2401 12.0502V12.0556H15.2401C15.2272 13.8497 13.8148 15.3279 12.0218 15.3799C11.9828 15.381 11.9438 15.3791 11.9051 15.3742C11.8646 15.3793 11.8237 15.3812 11.7829 15.3797C9.99992 15.3151 8.58008 13.8542 8.58008 12.0502Z" fill="#292D32"/>
<path fill-rule="evenodd" clip-rule="evenodd" d="M12.0037 16.2354C13.1722 16.2354 14.381 16.5263 15.326 17.1563C16.1874 17.7306 16.7175 18.5627 16.7175 19.4904C16.7175 20.4179 16.1875 21.2499 15.3263 21.8242C14.3774 22.4586 13.169 22.7529 12 22.7529C10.831 22.7529 9.62258 22.4586 8.67362 21.8242C7.81243 21.2499 7.28247 20.4179 7.28247 19.4904C7.28247 18.5627 7.81256 17.7306 8.67395 17.1563L8.67575 17.1551L8.67575 17.1551C9.62473 16.5264 10.835 16.2354 12.0037 16.2354ZM9.50511 18.405C8.95719 18.7706 8.78247 19.1782 8.78247 19.4904C8.78247 19.8027 8.95738 20.2106 9.506 20.5763L9.5069 20.5769C10.1578 21.0122 11.0592 21.2529 12 21.2529C12.9407 21.2529 13.8421 21.0122 14.493 20.5769L14.4939 20.5763C15.0426 20.2106 15.2175 19.8027 15.2175 19.4904C15.2175 19.178 15.0426 18.7701 14.4939 18.4044C13.8489 17.9744 12.9477 17.7354 12.0037 17.7354C11.0604 17.7354 10.1561 17.9741 9.50511 18.405Z" fill="#292D32"/>
</svg>
