<svg width="24" height="24" viewBox="0 0 24 24" fill="none" xmlns="http://www.w3.org/2000/svg">
<path fill-rule="evenodd" clip-rule="evenodd" d="M12 2.5C6.71745 2.5 2.5 6.75484 2.5 12C2.5 12.2761 2.27614 12.5 2 12.5C1.72386 12.5 1.5 12.2761 1.5 12C1.5 6.20516 6.16255 1.5 12 1.5C15.4835 1.5 18.0929 2.954 19.8215 4.39605C20.5236 4.98169 21.0828 5.56719 21.5 6.05676V2.56C21.5 2.28386 21.7239 2.06 22 2.06C22.2761 2.06 22.5 2.28386 22.5 2.56V7.56C22.5 7.83614 22.2761 8.06 22 8.06H17.56C17.2839 8.06 17.06 7.83614 17.06 7.56C17.06 7.28386 17.2839 7.06 17.56 7.06H21.0298C21.0151 7.04137 21.0001 7.02247 20.9848 7.00333C20.5848 6.5026 19.9832 5.83317 19.181 5.16395C17.5771 3.826 15.1865 2.5 12 2.5ZM22 11.5C22.2761 11.5 22.5 11.7239 22.5 12C22.5 17.7961 17.7961 22.5 12 22.5C9.06636 22.5 6.72882 21.0232 5.14908 19.5904C4.52001 19.0198 4.00395 18.4499 3.61 17.9698V21.44C3.61 21.7161 3.38614 21.94 3.11 21.94C2.83386 21.94 2.61 21.7161 2.61 21.44V16.44C2.61 16.1639 2.83386 15.94 3.11 15.94H7.63C7.90614 15.94 8.13 16.1639 8.13 16.44C8.13 16.7161 7.90614 16.94 7.63 16.94H4.07012C4.08596 16.9608 4.10215 16.9819 4.11867 17.0033C4.50745 17.5072 5.08149 18.179 5.82092 18.8496C7.30618 20.1968 9.41364 21.5 12 21.5C17.2439 21.5 21.5 17.2439 21.5 12C21.5 11.7239 21.7239 11.5 22 11.5Z" fill="#292D32"/>
</svg>
