<svg width="24" height="24" viewBox="0 0 24 24" fill="none" xmlns="http://www.w3.org/2000/svg">
<path fill-rule="evenodd" clip-rule="evenodd" d="M12.0026 1.24756C12.6109 1.24756 13.2561 1.33178 13.7871 1.52546L13.7934 1.52773L18.7828 3.39756C18.7828 3.39754 18.7829 3.39757 18.7828 3.39756M5.23748 3.39756L10.227 1.52775C10.7516 1.33181 11.3953 1.24756 12.0026 1.24756M10.7526 2.93265C10.7524 2.93271 10.7527 2.9326 10.7526 2.93265L5.76334 4.80236C5.36036 4.95304 4.95148 5.2875 4.6407 5.73674C4.32999 6.18589 4.16016 6.68737 4.16016 7.12004V14.55C4.16016 14.9911 4.31126 15.5573 4.58892 16.1093C4.86637 16.6608 5.23192 17.1222 5.58883 17.389M5.58883 17.389L9.89084 20.6006C10.4429 21.0156 11.209 21.2451 12.0101 21.2451C12.8113 21.2451 13.5773 21.0156 14.1295 20.6006L14.1315 20.5991L18.4312 17.3893M10.7526 2.93265C11.0579 2.81869 11.5102 2.74756 12.0026 2.74756C12.4929 2.74756 12.9515 2.81792 13.2703 2.93362" fill="#292D32"/>
<path fill-rule="evenodd" clip-rule="evenodd" d="M11.9402 8.1499C11.3844 8.1499 10.9302 8.60413 10.9302 9.15991C10.9302 9.70721 11.3589 10.1477 11.8838 10.1699H11.9862C12.5113 10.1478 12.9424 9.716 12.9502 9.15604C12.9481 8.60202 12.4947 8.1499 11.9402 8.1499ZM9.43018 9.15991C9.43018 7.7757 10.556 6.6499 11.9402 6.6499C13.3244 6.6499 14.4502 7.7757 14.4502 9.15991V9.16772C14.4361 10.5222 13.3731 11.6265 12.0241 11.6695C12.0161 11.6698 12.0082 11.6699 12.0002 11.6699H11.8702C11.8622 11.6699 11.8542 11.6698 11.8463 11.6695C10.4958 11.6264 9.43018 10.5091 9.43018 9.15991Z" fill="#292D32"/>
<path fill-rule="evenodd" clip-rule="evenodd" d="M14.3981 13.0972C15.0336 13.5216 15.45 14.1558 15.45 14.8849C15.45 15.6145 15.0331 16.249 14.3967 16.6734C13.7024 17.1382 12.8288 17.3474 11.995 17.3474C11.161 17.3474 10.2871 17.1381 9.5927 16.673C8.95673 16.2485 8.54004 15.6142 8.54004 14.8849C8.54004 14.155 8.95731 13.5203 9.59401 13.0958L9.59532 13.095L9.59533 13.095C10.2933 12.6318 11.1682 12.4224 12.0025 12.4224C12.8355 12.4224 13.7075 12.6312 14.3981 13.0972ZM10.4254 14.3443C10.1027 14.5597 10.04 14.7698 10.04 14.8849C10.04 15 10.1028 15.2103 10.4261 15.4258L10.4274 15.4267C10.823 15.6916 11.3891 15.8474 11.995 15.8474C12.601 15.8474 13.1671 15.6916 13.5627 15.4267L13.564 15.4258C13.8873 15.2103 13.95 15 13.95 14.8849C13.95 14.7697 13.8873 14.5594 13.564 14.3439L13.56 14.3412L13.56 14.3412C13.1709 14.0782 12.6088 13.9224 12.0025 13.9224C11.3972 13.9224 10.8274 14.0778 10.4254 14.3443Z" fill="#292D32"/>
</svg>
