<svg width="24" height="24" viewBox="0 0 24 24" fill="none" xmlns="http://www.w3.org/2000/svg">
<path d="M18.5398 4.11984L13.0398 2.05984C12.4698 1.84984 11.5398 1.84984 10.9698 2.05984L5.4698 4.11984C4.4098 4.51984 3.5498 5.75984 3.5498 6.88984V14.9898C3.5498 15.7998 4.0798 16.8698 4.7298 17.3498L10.2298 21.4598C11.1998 22.1898 12.7898 22.1898 13.7598 21.4598L19.2598 17.3498C19.9098 16.8598 20.4398 15.7998 20.4398 14.9898V6.88984C20.4498 5.75984 19.5898 4.51984 18.5398 4.11984ZM14.6798 13.9698C14.5298 14.1198 14.3398 14.1898 14.1498 14.1898C13.9598 14.1898 13.7698 14.1198 13.6198 13.9698L12.0298 12.3798L10.3898 14.0198C10.2398 14.1698 10.0498 14.2398 9.8598 14.2398C9.6698 14.2398 9.4798 14.1698 9.3298 14.0198C9.0398 13.7298 9.0398 13.2498 9.3298 12.9598L10.9698 11.3198L9.3698 9.71984C9.0798 9.42984 9.0798 8.94984 9.3698 8.65984C9.6598 8.36984 10.1398 8.36984 10.4298 8.65984L12.0198 10.2498L13.5698 8.69984C13.8598 8.40984 14.3398 8.40984 14.6298 8.69984C14.9198 8.98984 14.9198 9.46984 14.6298 9.75984L13.0798 11.3098L14.6698 12.8998C14.9698 13.1998 14.9698 13.6698 14.6798 13.9698Z" fill="#292D32"/>
</svg>
