<svg width="24" height="24" viewBox="0 0 24 24" fill="none" xmlns="http://www.w3.org/2000/svg">
<path d="M7.79999 22.1502C5.14999 22.1502 2.98999 20.0002 2.98999 17.3402V14.5002C2.98999 13.8302 3.64999 13.3802 4.27999 13.6002C4.53999 13.6902 4.79999 13.7502 5.06999 13.7902C5.18999 13.8102 5.30999 13.8302 5.42999 13.8302C5.57999 13.8502 5.73999 13.8602 5.88999 13.8602C6.99999 13.8602 8.09999 13.4502 8.96999 12.7402C9.79999 13.4502 10.87 13.8602 12.01 13.8602C13.15 13.8602 14.21 13.4702 15.04 12.7502C15.9 13.4502 16.98 13.8602 18.08 13.8602C18.25 13.8602 18.43 13.8502 18.59 13.8302C18.71 13.8202 18.81 13.8102 18.92 13.7902C19.22 13.7502 19.49 13.6702 19.76 13.5802C20.38 13.3702 21.03 13.8302 21.03 14.4802V17.3402C21.03 19.9902 18.88 22.1502 16.22 22.1502H7.79999Z" fill="#292D32"/>
<path d="M21.9801 8.5901L21.7001 5.9301C21.3001 3.0301 19.9801 1.8501 17.1701 1.8501H6.8201C4.0001 1.8501 2.6901 3.0301 2.2801 5.9601L2.0201 8.6001C1.9201 9.6301 2.2001 10.6301 2.8101 11.4101C3.5401 12.3601 4.6601 12.9001 5.9101 12.9001C7.1201 12.9001 8.2801 12.2901 9.0201 11.3201C9.6701 12.2901 10.7801 12.9001 12.0201 12.9001C13.2601 12.9001 14.3501 12.3201 15.0101 11.3601C15.7501 12.3101 16.9001 12.9001 18.0901 12.9001C19.3701 12.9001 20.5201 12.3301 21.2401 11.3301C21.8201 10.5601 22.0801 9.5901 21.9801 8.5901ZM13.5001 7.7301H10.5001C10.0901 7.7301 9.7501 7.4001 9.7501 6.9801C9.7501 6.5701 10.0901 6.2301 10.5001 6.2301H13.5001C13.9101 6.2301 14.2501 6.5701 14.2501 6.9801C14.2501 7.4001 13.9101 7.7301 13.5001 7.7301Z" fill="#292D32"/>
</svg>
