<svg width="24" height="24" viewBox="0 0 24 24" fill="none" xmlns="http://www.w3.org/2000/svg">
<path d="M16 8.75C15.59 8.75 15.25 8.41 15.25 8V4.5C15.25 3.42 14.58 2.75 13.5 2.75H10.5C9.42 2.75 8.75 3.42 8.75 4.5V8C8.75 8.41 8.41 8.75 8 8.75C7.59 8.75 7.25 8.41 7.25 8V4.5C7.25 2.59 8.59 1.25 10.5 1.25H13.5C15.41 1.25 16.75 2.59 16.75 4.5V8C16.75 8.41 16.41 8.75 16 8.75Z" fill="#292D32"/>
<path d="M8.00009 17.78C7.59009 17.78 7.25009 17.44 7.25009 17.03C7.25009 16.61 7.59009 16.28 8.00009 16.28H19.7601C20.0601 16.28 20.2901 16.02 20.2601 15.72L19.5801 10.03C19.3401 8.09 19.0001 6.5 15.6001 6.5H8.40009C5.00009 6.5 4.66009 8.09 4.43009 10.03L3.53009 17.53C3.24009 19.99 4.00009 22 7.51009 22H16.4901C19.6501 22 20.5801 20.37 20.5301 18.25C20.5201 17.98 20.3001 17.78 20.0301 17.78H8.00009Z" fill="#292D32"/>
</svg>
