<svg width="24" height="24" viewBox="0 0 24 24" fill="none" xmlns="http://www.w3.org/2000/svg">
<path d="M14.8901 3.45H9.11014C8.71014 3.45 8.39014 3.13 8.39014 2.73C8.39014 2.33 8.71014 2 9.11014 2H14.8901C15.2901 2 15.6101 2.32 15.6101 2.72C15.6101 3.12 15.2901 3.45 14.8901 3.45Z" fill="#292D32"/>
<path d="M14.0001 19.9699V17.0299C14.0001 15.2199 15.2201 13.9999 17.0301 13.9999H19.9701C20.2001 13.9999 20.4201 14.0199 20.6301 14.0599C20.6501 13.8199 20.6701 13.5799 20.6701 13.3299C20.6701 8.5399 16.7801 4.6499 12.0001 4.6499C7.22008 4.6499 3.33008 8.5399 3.33008 13.3299C3.33008 18.1099 7.22008 21.9999 12.0001 21.9999C12.8501 21.9999 13.6601 21.8599 14.4401 21.6399C14.1601 21.1699 14.0001 20.6099 14.0001 19.9699ZM12.7501 12.9999C12.7501 13.4099 12.4101 13.7499 12.0001 13.7499C11.5901 13.7499 11.2501 13.4099 11.2501 12.9999V7.9999C11.2501 7.5899 11.5901 7.2499 12.0001 7.2499C12.4101 7.2499 12.7501 7.5899 12.7501 7.9999V12.9999Z" fill="#292D32"/>
<path d="M19.97 15H17.04C15.76 15 15 15.76 15 17.03V19.97C15 21.24 15.76 22 17.04 22H19.97C21.24 22 22 21.24 22 19.97V17.03C22 15.76 21.24 15 19.97 15ZM17.92 20.06C17.92 20.38 17.66 20.64 17.33 20.64C17.01 20.64 16.75 20.38 16.75 20.06V16.94C16.75 16.62 17.01 16.36 17.33 16.36C17.66 16.36 17.92 16.62 17.92 16.94V20.06ZM20.25 20.06C20.25 20.38 19.99 20.64 19.67 20.64C19.35 20.64 19.08 20.38 19.08 20.06V16.94C19.08 16.62 19.35 16.36 19.67 16.36C19.99 16.36 20.25 16.62 20.25 16.94V20.06Z" fill="#292D32"/>
</svg>
